<svg width="16" height="16" viewBox="0 0 16 16" fill="none" xmlns="http://www.w3.org/2000/svg">
<path d="M13.2417 4.34867L8.00241 9.58791L2.6943 4.27984L2.69383 4.2808C2.51415 4.10697 2.2695 4 1.99996 4C1.44772 4 1 4.44775 1 5.00001C1 5.26953 1.10694 5.51415 1.28078 5.69386L1.28029 5.69434L7.28026 11.6943L7.28074 11.6939C7.4624 11.8823 7.71726 12 7.99999 12C8.00097 12 8.00144 12 8.00242 12C8.00341 12 8.0039 12 8.00439 12C8.2871 12 8.54247 11.8823 8.72414 11.6939L8.7246 11.6943L14.7246 5.69439L14.7222 5.69193C14.894 5.51221 15 5.26861 15 5.00003C15 4.44776 14.5522 4.00001 14 4.00001C13.6968 4.00004 13.4253 4.13529 13.2417 4.34867Z" fill="white" fill-opacity="0.6"/>
</svg>
