<svg width="16" height="16" viewBox="0 0 16 16" fill="none" xmlns="http://www.w3.org/2000/svg">
<path d="M11.8915 8.31445C11.8995 8.29894 11.9125 8.28595 11.9195 8.26994C12.057 7.98393 12.012 7.63395 11.7685 7.40392L6.249 2.18344C5.94799 1.89894 5.47351 1.91243 5.1885 2.21295C4.90399 2.51396 4.917 2.98844 5.21801 3.27346L10.1705 7.95845L5.2375 12.7129C4.9395 13.0004 4.9305 13.4749 5.21801 13.7734C5.36501 13.9264 5.56151 14.003 5.75802 14.003C5.94552 14.003 6.13302 13.933 6.27851 13.793L11.748 8.52146C11.7585 8.51095 11.7625 8.49646 11.773 8.48547C11.781 8.47797 11.7895 8.47246 11.7975 8.46448C11.84 8.41994 11.8625 8.36543 11.8915 8.31445Z" fill="white" fill-opacity="0.6"/>
</svg>
