<svg width="32" height="32" viewBox="0 0 32 32" fill="none" xmlns="http://www.w3.org/2000/svg">
<path d="M15.9978 17.4715L10.7058 22.7635C10.5212 22.952 10.2696 23.0598 10.0058 23.0635C9.80719 23.0647 9.61272 23.0067 9.4472 22.8969C9.28168 22.7871 9.15261 22.6305 9.07644 22.447C9.00028 22.2636 8.98047 22.0616 9.01954 21.8669C9.05861 21.6721 9.15479 21.4934 9.29582 21.3535L14.5878 16.0615L9.29582 10.7695C9.13199 10.5782 9.04638 10.3322 9.0561 10.0805C9.06583 9.82881 9.17016 9.59007 9.34825 9.41198C9.52635 9.23389 9.76509 9.12955 10.0168 9.11983C10.2684 9.11011 10.5145 9.19572 10.7058 9.35954L15.9978 14.6505L21.2998 9.34954C21.3895 9.24486 21.4998 9.15984 21.6238 9.09982C21.7479 9.03979 21.883 9.00606 22.0208 9.00075C22.1585 8.99543 22.2958 9.01863 22.4241 9.06891C22.5525 9.11918 22.669 9.19544 22.7665 9.29289C22.8639 9.39035 22.9402 9.5069 22.9905 9.63522C23.0407 9.76355 23.0639 9.90088 23.0586 10.0386C23.0533 10.1763 23.0196 10.3114 22.9595 10.4355C22.8995 10.5596 22.8145 10.6699 22.7098 10.7595L17.4088 16.0615L22.7098 21.3635C22.8469 21.5033 22.9399 21.6802 22.9773 21.8724C23.0147 22.0645 22.995 22.2634 22.9204 22.4444C22.8459 22.6254 22.7199 22.7805 22.558 22.8906C22.3962 23.0007 22.2055 23.0608 22.0098 23.0635C21.8782 23.0643 21.7477 23.0391 21.6259 22.9893C21.5041 22.9395 21.3933 22.8662 21.2998 22.7735L15.9978 17.4715Z" fill="white"/>
</svg>
