<svg width="32" height="32" viewBox="0 0 32 32" fill="none" xmlns="http://www.w3.org/2000/svg">
<path d="M23.6195 13.3629C23.8977 12.5473 24.057 11.6754 24.057 10.766C24.057 6.31914 20.4508 2.71289 16.0039 2.71289C11.557 2.71289 7.94766 6.31602 7.94766 10.766C7.94766 11.6754 8.10703 12.5473 8.38516 13.3629C4.74766 14.1379 2.01953 17.3691 2.01953 21.2379C2.01953 25.6848 5.62578 29.291 10.0727 29.291C12.4227 29.291 14.532 28.2785 16.0039 26.6723C17.4758 28.2785 19.5852 29.291 21.9352 29.291C26.382 29.291 29.9883 25.6848 29.9883 21.2379C29.9852 17.366 27.257 14.1379 23.6195 13.3629ZM16.0008 4.81289C19.282 4.81289 21.9539 7.48477 21.9539 10.766C21.9539 11.6379 21.7602 12.4629 21.4227 13.2098C20.4883 15.2754 18.4133 16.7191 16.0008 16.7191C13.5883 16.7191 11.5133 15.2754 10.5789 13.2098C10.2414 12.4629 10.0477 11.6379 10.0477 10.766C10.0477 7.48164 12.7195 4.81289 16.0008 4.81289ZM10.0695 27.1879C6.78828 27.1879 4.11641 24.516 4.11641 21.2348C4.11641 18.191 6.41328 15.6754 9.36641 15.3285C10.5133 16.9941 12.2727 18.2066 14.3195 18.641C14.0383 19.4566 13.8758 20.3254 13.8758 21.2348C13.8758 22.5504 14.1977 23.791 14.757 24.8879C13.6695 26.2848 11.9758 27.1879 10.0695 27.1879ZM21.932 27.1879C20.0258 27.1879 18.332 26.2848 17.2414 24.8879C16.5383 23.9879 16.0914 22.8848 16.0008 21.6816C15.9883 21.5348 15.9789 21.3848 15.9789 21.2348C15.9789 21.0848 15.9914 20.9379 16.0008 20.7879C16.0539 20.0785 16.2445 19.4098 16.5258 18.791C19.0602 18.6285 21.2758 17.2973 22.6352 15.3254C25.5883 15.6754 27.8852 18.1879 27.8852 21.2316C27.8852 24.5191 25.2133 27.1879 21.932 27.1879Z" fill="white"/>
<path d="M24.0557 10.7646C24.0555 6.45683 20.6714 2.93825 16.417 2.72266L16.0029 2.71191C11.5562 2.71191 7.9465 6.31483 7.94629 10.7646L7.9541 11.1045C7.98843 11.8917 8.14045 12.6487 8.38379 13.3623C4.74652 14.1375 2.01855 17.3687 2.01855 21.2373L2.0293 21.6514C2.23812 25.7684 5.54016 29.0705 9.65723 29.2793L10.0713 29.29C12.4213 29.29 14.5311 28.2771 16.0029 26.6709C17.3827 28.1767 19.3228 29.1611 21.4961 29.2783L21.9346 29.29C26.2423 29.2898 29.7608 25.9056 29.9766 21.6514L29.9873 21.2373C29.9842 17.3654 27.2557 14.1373 23.6182 13.3623C23.8615 12.6487 24.0145 11.8917 24.0488 11.1045L24.0557 10.7646ZM13.6748 21.2334C13.6748 20.3775 13.8163 19.5579 14.0615 18.7842C12.0973 18.3115 10.4081 17.1379 9.27344 15.542C6.47567 15.9283 4.31562 18.3324 4.31543 21.2334C4.31543 24.4041 6.89766 26.9872 10.0684 26.9873V27.1865L9.7627 27.1787C6.72433 27.024 4.27794 24.5784 4.12305 21.54L4.11523 21.2334C4.11543 18.1899 6.41231 15.6741 9.36523 15.3271C10.5121 16.9927 12.2716 18.2052 14.3184 18.6396C14.0371 19.4552 13.875 20.3242 13.875 21.2334L13.8896 21.7236C13.9589 22.8573 14.2665 23.927 14.7559 24.8867C13.6684 26.2836 11.9746 27.1865 10.0684 27.1865V26.9873C11.8662 26.9873 13.467 26.1538 14.5205 24.8574C13.9842 23.7633 13.6748 22.5346 13.6748 21.2334ZM27.6846 21.2305C27.6845 18.3287 25.5229 15.9273 22.7236 15.5391C21.3478 17.471 19.1627 18.7797 16.6611 18.9775C16.4139 19.5481 16.2474 20.1583 16.1992 20.8018C16.1895 20.9566 16.1778 21.0925 16.1777 21.2334C16.1777 21.3045 16.1798 21.3764 16.1836 21.4482L16.1992 21.6641V21.666L16.2197 21.8828C16.3419 22.9609 16.7615 23.9483 17.3984 24.7637L17.6025 25.0117C18.6581 26.2205 20.2046 26.9872 21.9307 26.9873V27.1865L21.5762 27.1768C19.9328 27.0794 18.4711 26.3095 17.4521 25.1426L17.2402 24.8867C16.5812 24.0431 16.1469 23.0209 16.0205 21.9053L16 21.6807C15.9937 21.6071 15.9883 21.5327 15.9844 21.458L15.9775 21.2334C15.9776 21.0836 15.9906 20.9369 16 20.7871C16.0531 20.0778 16.2432 19.4087 16.5244 18.79C19.0588 18.6275 21.2744 17.2961 22.6338 15.3242C25.5869 15.6742 27.8837 18.1868 27.8838 21.2305L27.876 21.5371C27.7161 24.6824 25.1093 27.1865 21.9307 27.1865V26.9873C25.1015 26.9873 27.6846 24.4075 27.6846 21.2305ZM21.7529 10.7646C21.7527 7.5941 19.1706 5.01182 16 5.01172C12.8293 5.01172 10.2473 7.59098 10.2471 10.7646C10.2471 11.6063 10.4334 12.4036 10.7598 13.126L10.9424 13.4932C11.9156 15.2922 13.815 16.5186 16 16.5186V16.7178L15.7744 16.7139C13.5333 16.6299 11.611 15.2997 10.6689 13.4004L10.5781 13.209C10.2828 12.5555 10.0974 11.842 10.0557 11.0898L10.0469 10.7646C10.0471 7.48045 12.7189 4.81152 16 4.81152L16.3057 4.81934C19.4454 4.97919 21.9529 7.58614 21.9531 10.7646L21.9443 11.0898C21.9026 11.842 21.7172 12.5555 21.4219 13.209L21.3311 13.4004C20.3577 15.3631 18.3371 16.7177 16 16.7178V16.5186C18.3304 16.5185 20.3359 15.1231 21.2393 13.126L21.3555 12.8525C21.6101 12.2043 21.7529 11.5014 21.7529 10.7646ZM24.2559 10.7646C24.2559 11.6202 24.1164 12.4424 23.874 13.2168C27.4942 14.09 30.1842 17.3448 30.1875 21.2363V21.2373C30.1873 25.7943 26.4916 29.49 21.9346 29.4902C19.6021 29.4902 17.5027 28.5146 16.0029 26.959C14.5031 28.5146 12.4038 29.4902 10.0713 29.4902C5.51427 29.49 1.81857 25.7943 1.81836 21.2373C1.81836 17.3488 4.50801 14.0904 8.12793 13.2168C7.88562 12.4425 7.74707 11.6201 7.74707 10.7646C7.74728 6.20422 11.4459 2.51172 16.0029 2.51172C20.5601 2.51172 24.2556 6.2075 24.2559 10.7646Z" fill="white"/>
</svg>
