<svg width="32" height="32" viewBox="0 0 32 32" fill="none" xmlns="http://www.w3.org/2000/svg">
<path d="M27.2002 28.5996H4.8002C3.64082 28.5996 2.7002 27.659 2.7002 26.4996V9.69961C2.7002 8.54023 3.64082 7.59961 4.8002 7.59961H27.2002C28.3596 7.59961 29.3002 8.54023 29.3002 9.69961V26.4996C29.3002 27.659 28.3596 28.5996 27.2002 28.5996ZM5.5002 25.7996H26.5002V10.3996H5.5002V25.7996Z" fill="white"/>
<path d="M10.4 10.4004C9.62812 10.4004 9 9.77227 9 9.00039V4.80039C9 4.02852 9.62812 3.40039 10.4 3.40039C11.1719 3.40039 11.8 4.02852 11.8 4.80039V9.00039C11.8 9.77227 11.1719 10.4004 10.4 10.4004ZM21.6 10.4004C20.8281 10.4004 20.2 9.77227 20.2 9.00039V4.80039C20.2 4.02852 20.8281 3.40039 21.6 3.40039C22.3719 3.40039 23 4.02852 23 4.80039V9.00039C23 9.77227 22.3719 10.4004 21.6 10.4004ZM9 13.9004H16V16.7004H9V13.9004ZM9 19.5004H23V22.3004H9V19.5004Z" fill="white"/>
</svg>
