<svg width="32" height="32" viewBox="0 0 32 32" fill="none" xmlns="http://www.w3.org/2000/svg">
<g clip-path="url(#clip0_90_35587)">
<path d="M15.9999 17.0755C10.2443 17.0755 4.49766 15.3279 0.402545 11.8399C0.28593 11.7383 0.190558 11.6145 0.121911 11.4759C0.053264 11.3372 0.0126947 11.1864 0.00253464 11.032C-0.00762537 10.8776 0.0128243 10.7227 0.0627084 10.5763C0.112592 10.4298 0.190927 10.2947 0.293211 10.1786C0.500617 9.94353 0.792668 9.80016 1.1055 9.77984C1.41832 9.75952 1.72647 9.8639 1.96254 10.0702C9.18388 16.2835 22.847 16.2835 30.0372 10.0702C30.2733 9.8639 30.5814 9.75952 30.8943 9.77984C31.2071 9.80016 31.4991 9.94353 31.7065 10.1786C32.1368 10.6675 32.0888 11.4115 31.5972 11.8408C27.5021 15.3279 21.7554 17.0755 15.9999 17.0755ZM11.7261 22.2168C11.6561 22.2245 11.5854 22.2245 11.5154 22.2168C11.1928 22.1724 10.9021 21.9946 10.7172 21.7279C10.5314 21.4604 10.4683 21.127 10.5412 20.8106L11.3208 16.2284C11.3754 15.9189 11.5506 15.6437 11.8079 15.4632C12.0652 15.2828 12.3836 15.2117 12.6932 15.2657C12.8466 15.2917 12.9933 15.3478 13.125 15.4306C13.2567 15.5135 13.3707 15.6215 13.4605 15.7485C13.5504 15.8755 13.6143 16.019 13.6486 16.1708C13.6829 16.3225 13.6868 16.4795 13.6603 16.6328L12.8808 21.2142C12.841 21.4922 12.7024 21.7466 12.4903 21.9307C12.2783 22.1149 12.007 22.2164 11.7261 22.2168ZM29.2577 19.8862C28.9465 19.8862 28.6479 19.7599 28.431 19.5368L24.5865 15.6542C24.4233 15.5138 24.3023 15.3309 24.2369 15.1258C24.1716 14.9207 24.1645 14.7014 24.2165 14.4926C24.2685 14.2837 24.3775 14.0933 24.5314 13.9428C24.6852 13.7922 24.8779 13.6874 25.0879 13.6399C25.2976 13.5913 25.5167 13.6013 25.7212 13.6689C25.9256 13.7364 26.1075 13.859 26.247 14.023L30.0923 17.9057C30.5483 18.3608 30.5483 19.0977 30.0923 19.5528C29.8665 19.7662 29.5679 19.8853 29.2568 19.8862H29.2577ZM2.7421 19.8862C2.45073 19.8719 2.17413 19.7537 1.96254 19.5528C1.85405 19.4449 1.76795 19.3165 1.7092 19.1752C1.65045 19.0339 1.62021 18.8823 1.62021 18.7293C1.62021 18.5762 1.65045 18.4247 1.7092 18.2833C1.76795 18.142 1.85405 18.0137 1.96254 17.9057L5.80699 14.023C5.93879 13.8355 6.12267 13.6907 6.3359 13.6066C6.54912 13.5224 6.78233 13.5026 7.00668 13.5497C7.23103 13.5967 7.43669 13.7084 7.5982 13.8711C7.75971 14.0337 7.87001 14.2401 7.91543 14.4648C7.95942 14.6897 7.93598 14.9226 7.84805 15.1342C7.76012 15.3458 7.61162 15.5267 7.42121 15.6542L3.57677 19.5368C3.46827 19.6482 3.33843 19.7365 3.19502 19.7965C3.05161 19.8565 2.89756 19.887 2.7421 19.8862ZM20.3279 22.2168C20.0541 22.216 19.7894 22.1191 19.5798 21.943C19.3702 21.7669 19.2291 21.5228 19.1812 21.2533L18.4017 16.671C18.3314 16.4608 18.3228 16.2348 18.3768 16.0198C18.4309 15.8048 18.5453 15.6098 18.7065 15.4577C18.8681 15.3052 19.0697 15.2016 19.2878 15.1591C19.5059 15.1166 19.7315 15.137 19.9385 15.2177C20.3617 15.3839 20.6497 15.7777 20.679 16.2284L21.4585 20.8106C21.5154 21.1146 21.4479 21.4284 21.2701 21.6826C21.0923 21.9368 20.8212 22.1093 20.5145 22.1626C20.4543 22.1866 20.3917 22.2045 20.3279 22.2159V22.2168Z" fill="white"/>
</g>
<defs>
<clipPath id="clip0_90_35587">
<rect width="32" height="32" fill="white"/>
</clipPath>
</defs>
</svg>
