<svg width="32" height="32" viewBox="0 0 32 32" fill="none" xmlns="http://www.w3.org/2000/svg">
<path d="M31.8353 15.0214C31.8353 15.0214 31.702 14.6214 31.5686 14.488L30.902 13.1547C30.2353 12.088 29.302 10.7547 27.9686 9.28802C25.4353 6.48802 21.4353 3.55469 15.9686 3.55469C10.502 3.55469 6.50195 6.48802 3.96862 9.28802C2.63529 10.7547 1.70195 12.088 1.03529 13.1547C0.76862 13.688 0.501953 14.088 0.36862 14.488C0.235286 14.6214 0.101953 15.0214 0.101953 15.0214C-0.0313802 15.4214 -0.0313802 15.8214 0.101953 16.088C0.101953 16.088 0.235286 16.488 0.36862 16.6214L1.03529 17.9547C1.70195 19.0214 2.63529 20.3547 3.96862 21.8214C6.50195 24.6214 10.502 27.5547 15.9686 27.5547C21.4353 27.5547 25.4353 24.6214 27.9686 21.8214C29.302 20.3547 30.2353 19.0214 30.902 17.9547C31.1686 17.4214 31.4353 17.0214 31.5686 16.6214C31.702 16.488 31.8353 16.088 31.8353 16.088C31.9686 15.688 31.9686 15.4214 31.8353 15.0214ZM28.6353 16.488C28.102 17.4214 27.1686 18.7547 26.102 19.9547C23.702 22.488 20.3686 24.888 15.9686 24.888C11.5686 24.888 8.23529 22.488 5.83529 19.9547C4.63529 18.7547 3.83529 17.4214 3.30195 16.488C3.03529 16.088 2.90195 15.8214 2.76862 15.5547C2.90195 15.288 3.03529 15.0214 3.30195 14.6214C3.96862 13.688 4.76862 12.3547 5.83529 11.1547C8.23529 8.62135 11.5686 6.22135 15.9686 6.22135C20.3686 6.22135 23.702 8.62135 26.102 11.1547C27.302 12.3547 28.102 13.688 28.6353 14.6214C28.902 15.0214 29.0353 15.288 29.1686 15.5547C29.0353 15.8214 28.7686 16.088 28.6353 16.488Z" fill="white"/>
<path d="M15.9695 10.7565C13.5695 10.7565 11.4362 12.8898 11.4362 15.5565C11.4362 18.2232 13.5695 20.3565 15.9695 20.3565C18.3695 20.3565 20.5029 18.2232 20.5029 15.5565C20.5029 12.8898 18.3695 10.7565 15.9695 10.7565ZM8.76953 15.5565C8.76953 11.5565 11.9695 8.08984 15.9695 8.08984C19.9695 8.08984 23.1695 11.5565 23.1695 15.5565C23.1695 19.5565 19.9695 23.0232 15.9695 23.0232C11.9695 23.0232 8.76953 19.5565 8.76953 15.5565Z" fill="white"/>
</svg>
