<svg width="24" height="24" viewBox="0 0 24 24" fill="none" xmlns="http://www.w3.org/2000/svg">
<path d="M12 4.5C16.125 4.5 19.5 7.875 19.5 12C19.5 16.125 16.125 19.5 12 19.5C7.875 19.5 4.5 16.125 4.5 12C4.5 7.875 7.875 4.5 12 4.5ZM12 6C8.7 6 6 8.7 6 12C6 15.3 8.7 18 12 18C15.3 18 18 15.3 18 12C18 8.7 15.3 6 12 6Z" fill="#197CDF"/>
<path d="M12 10.6935L10.38 9.16935C10.14 8.94355 9.78 8.94355 9.54 9.16935C9.3 9.39516 9.3 9.73387 9.54 9.95968L11.16 11.4839H9.6C9.24 11.4839 9 11.7097 9 12.0484C9 12.3871 9.24 12.6129 9.6 12.6129H11.4V13.1774H9.6C9.24 13.1774 9 13.4032 9 13.7419C9 14.0806 9.24 14.3065 9.6 14.3065H11.4V15.4355C11.4 15.7742 11.64 16 12 16C12.36 16 12.6 15.7742 12.6 15.4355V14.3065H14.4C14.76 14.3065 15 14.0806 15 13.7419C15 13.4032 14.76 13.1774 14.4 13.1774H12.6V12.6129H14.4C14.76 12.6129 15 12.3871 15 12.0484C15 11.7097 14.76 11.4839 14.4 11.4839H12.84L14.46 9.95968C14.7 9.73387 14.7 9.39516 14.46 9.16935C14.22 8.94355 13.86 8.94355 13.62 9.16935L12 10.6935Z" fill="#197CDF"/>
</svg>
