<svg width="24" height="24" viewBox="0 0 24 24" fill="none" xmlns="http://www.w3.org/2000/svg">
<path d="M10.5 9.75H9C8.80109 9.75 8.61032 9.67098 8.46967 9.53033C8.32902 9.38968 8.25 9.19891 8.25 9C8.25 8.80109 8.32902 8.61032 8.46967 8.46967C8.61032 8.32902 8.80109 8.25 9 8.25H10.5C10.6989 8.25 10.8897 8.32902 11.0303 8.46967C11.171 8.61032 11.25 8.80109 11.25 9C11.25 9.19891 11.171 9.38968 11.0303 9.53033C10.8897 9.67098 10.6989 9.75 10.5 9.75ZM18 15.75H6C5.80109 15.75 5.61032 15.671 5.46967 15.5303C5.32902 15.3897 5.25 15.1989 5.25 15C5.25 14.8011 5.32902 14.6103 5.46967 14.4697C5.61032 14.329 5.80109 14.25 6 14.25H18C18.1989 14.25 18.3897 14.329 18.5303 14.4697C18.671 14.6103 18.75 14.8011 18.75 15C18.75 15.1989 18.671 15.3897 18.5303 15.5303C18.3897 15.671 18.1989 15.75 18 15.75ZM18 18.75H6C5.80109 18.75 5.61032 18.671 5.46967 18.5303C5.32902 18.3897 5.25 18.1989 5.25 18C5.25 17.8011 5.32902 17.6103 5.46967 17.4697C5.61032 17.329 5.80109 17.25 6 17.25H18C18.1989 17.25 18.3897 17.329 18.5303 17.4697C18.671 17.6103 18.75 17.8011 18.75 18C18.75 18.1989 18.671 18.3897 18.5303 18.5303C18.3897 18.671 18.1989 18.75 18 18.75ZM17.25 12.75H6.75C6.35218 12.75 5.97064 12.592 5.68934 12.3107C5.40804 12.0294 5.25 11.6478 5.25 11.25V6.75C5.25 6.35218 5.40804 5.97064 5.68934 5.68934C5.97064 5.40804 6.35218 5.25 6.75 5.25H17.25C17.6478 5.25 18.0294 5.40804 18.3107 5.68934C18.592 5.97064 18.75 6.35218 18.75 6.75V11.25C18.75 11.6478 18.592 12.0294 18.3107 12.3107C18.0294 12.592 17.6478 12.75 17.25 12.75ZM6.75 6.75V11.25H17.25V6.75H6.75Z" fill="#197CDF"/>
</svg>
