<svg width="24" height="24" viewBox="0 0 24 24" fill="none" xmlns="http://www.w3.org/2000/svg">
<path d="M8.25 11.25C7.45435 11.25 6.69129 10.9339 6.12868 10.3713C5.56607 9.80871 5.25 9.04565 5.25 8.25C5.25 7.45435 5.56607 6.69129 6.12868 6.12868C6.69129 5.56607 7.45435 5.25 8.25 5.25C9.04565 5.25 9.80871 5.56607 10.3713 6.12868C10.9339 6.69129 11.25 7.45435 11.25 8.25C11.25 9.04565 10.9339 9.80871 10.3713 10.3713C9.80871 10.9339 9.04565 11.25 8.25 11.25ZM8.25 9.75C8.64782 9.75 9.02936 9.59196 9.31066 9.31066C9.59196 9.02936 9.75 8.64782 9.75 8.25C9.75 7.85218 9.59196 7.47064 9.31066 7.18934C9.02936 6.90804 8.64782 6.75 8.25 6.75C7.85218 6.75 7.47064 6.90804 7.18934 7.18934C6.90804 7.47064 6.75 7.85218 6.75 8.25C6.75 8.64782 6.90804 9.02936 7.18934 9.31066C7.47064 9.59196 7.85218 9.75 8.25 9.75ZM15.75 11.25C14.9544 11.25 14.1913 10.9339 13.6287 10.3713C13.0661 9.80871 12.75 9.04565 12.75 8.25C12.75 7.45435 13.0661 6.69129 13.6287 6.12868C14.1913 5.56607 14.9544 5.25 15.75 5.25C16.5456 5.25 17.3087 5.56607 17.8713 6.12868C18.4339 6.69129 18.75 7.45435 18.75 8.25C18.75 9.04565 18.4339 9.80871 17.8713 10.3713C17.3087 10.9339 16.5456 11.25 15.75 11.25ZM15.75 18.75C14.9544 18.75 14.1913 18.4339 13.6287 17.8713C13.0661 17.3087 12.75 16.5456 12.75 15.75C12.75 14.9544 13.0661 14.1913 13.6287 13.6287C14.1913 13.0661 14.9544 12.75 15.75 12.75C16.5456 12.75 17.3087 13.0661 17.8713 13.6287C18.4339 14.1913 18.75 14.9544 18.75 15.75C18.75 16.5456 18.4339 17.3087 17.8713 17.8713C17.3087 18.4339 16.5456 18.75 15.75 18.75ZM15.75 17.25C16.1478 17.25 16.5294 17.092 16.8107 16.8107C17.092 16.5294 17.25 16.1478 17.25 15.75C17.25 15.3522 17.092 14.9706 16.8107 14.6893C16.5294 14.408 16.1478 14.25 15.75 14.25C15.3522 14.25 14.9706 14.408 14.6893 14.6893C14.408 14.9706 14.25 15.3522 14.25 15.75C14.25 16.1478 14.408 16.5294 14.6893 16.8107C14.9706 17.092 15.3522 17.25 15.75 17.25ZM8.25 18.75C7.45435 18.75 6.69129 18.4339 6.12868 17.8713C5.56607 17.3087 5.25 16.5456 5.25 15.75C5.25 14.9544 5.56607 14.1913 6.12868 13.6287C6.69129 13.0661 7.45435 12.75 8.25 12.75C9.04565 12.75 9.80871 13.0661 10.3713 13.6287C10.9339 14.1913 11.25 14.9544 11.25 15.75C11.25 16.5456 10.9339 17.3087 10.3713 17.8713C9.80871 18.4339 9.04565 18.75 8.25 18.75ZM8.25 17.25C8.64782 17.25 9.02936 17.092 9.31066 16.8107C9.59196 16.5294 9.75 16.1478 9.75 15.75C9.75 15.3522 9.59196 14.9706 9.31066 14.6893C9.02936 14.408 8.64782 14.25 8.25 14.25C7.85218 14.25 7.47064 14.408 7.18934 14.6893C6.90804 14.9706 6.75 15.3522 6.75 15.75C6.75 16.1478 6.90804 16.5294 7.18934 16.8107C7.47064 17.092 7.85218 17.25 8.25 17.25Z" fill="#197CDF"/>
</svg>
