<svg width="32" height="32" viewBox="0 0 32 32" fill="none" xmlns="http://www.w3.org/2000/svg">
<path d="M7 20.014V9C7 8.46957 7.21071 7.96086 7.58579 7.58579C7.96086 7.21071 8.46957 7 9 7H23C23.5304 7 24.0391 7.21071 24.4142 7.58579C24.7893 7.96086 25 8.46957 25 9V23C25 23.5304 24.7893 24.0391 24.4142 24.4142C24.0391 24.7893 23.5304 25 23 25H9C8.46957 25 7.96086 24.7893 7.58579 24.4142C7.21071 24.0391 7 23.5304 7 23V20.014ZM23 19V9H9V18.077L9.874 17.463C10.046 17.3425 10.2516 17.2791 10.4616 17.282C10.6716 17.2849 10.8754 17.3538 11.044 17.479L13.592 19.368L15.119 16.527C15.2007 16.3749 15.3203 16.2464 15.4664 16.1543C15.6124 16.0621 15.7798 16.0093 15.9523 16.0011C16.1248 15.9928 16.2965 16.0294 16.4506 16.1072C16.6048 16.185 16.7362 16.3013 16.832 16.445L18.535 19H23ZM23 21H18C17.8354 21 17.6734 20.9594 17.5282 20.8818C17.3831 20.8042 17.2593 20.6919 17.168 20.555L16.092 18.941L14.806 21.333C14.7381 21.4595 14.6437 21.5699 14.5293 21.6567C14.4149 21.7435 14.2831 21.8046 14.143 21.8359C14.0029 21.8672 13.8576 21.868 13.7172 21.8382C13.5767 21.8083 13.4443 21.7486 13.329 21.663L10.432 19.515L9 20.52V23H23V21ZM12 11C12.2652 11 12.5196 11.1054 12.7071 11.2929C12.8946 11.4804 13 11.7348 13 12V15C13 15.2652 12.8946 15.5196 12.7071 15.7071C12.5196 15.8946 12.2652 16 12 16C11.7348 16 11.4804 15.8946 11.2929 15.7071C11.1054 15.5196 11 15.2652 11 15V12C11 11.7348 11.1054 11.4804 11.2929 11.2929C11.4804 11.1054 11.7348 11 12 11ZM16 11C16.2652 11 16.5196 11.1054 16.7071 11.2929C16.8946 11.4804 17 11.7348 17 12V14C17 14.2652 16.8946 14.5196 16.7071 14.7071C16.5196 14.8946 16.2652 15 16 15C15.7348 15 15.4804 14.8946 15.2929 14.7071C15.1054 14.5196 15 14.2652 15 14V12C15 11.7348 15.1054 11.4804 15.2929 11.2929C15.4804 11.1054 15.7348 11 16 11ZM20 11C20.2652 11 20.5196 11.1054 20.7071 11.2929C20.8946 11.4804 21 11.7348 21 12V15.86C21 16.1252 20.8946 16.3796 20.7071 16.5671C20.5196 16.7546 20.2652 16.86 20 16.86C19.7348 16.86 19.4804 16.7546 19.2929 16.5671C19.1054 16.3796 19 16.1252 19 15.86V12C19 11.7348 19.1054 11.4804 19.2929 11.2929C19.4804 11.1054 19.7348 11 20 11Z" fill="white"/>
</svg>
