<svg width="32" height="32" viewBox="0 0 32 32" fill="none" xmlns="http://www.w3.org/2000/svg">
<g clip-path="url(#clip0_1016_2396)">
<path d="M20 0.799805V11.9998H31.2C31.2 9.02938 30.02 6.18062 27.9196 4.08021C25.8192 1.9798 22.9704 0.799805 20 0.799805Z" fill="white"/>
<path d="M15.0171 32.0001C11.0343 32.0001 7.21468 30.4179 4.39842 27.6017C1.58216 24.7854 0 20.9658 0 16.983C0 13.0002 1.58216 9.1805 4.39842 6.36424C7.21468 3.54798 11.0343 1.96582 15.0171 1.96582H17.3029V14.6972H30.0343V16.983C30.0282 20.9639 28.4441 24.7801 25.6292 27.595C22.8142 30.41 18.9981 31.9941 15.0171 32.0001ZM12.7314 6.85725C10.896 7.25269 9.20108 8.13552 7.825 9.41285C6.44893 10.6902 5.44256 12.3148 4.9118 14.1158C4.38104 15.9167 4.3455 17.8274 4.80892 19.6469C5.27234 21.4664 6.21759 23.1273 7.54521 24.4549C8.87284 25.7825 10.5338 26.7278 12.3532 27.1912C14.1727 27.6546 16.0834 27.6191 17.8843 27.0883C19.6853 26.5575 21.3099 25.5512 22.5873 24.1751C23.8646 22.799 24.7474 21.1041 25.1429 19.2687H12.7314V6.85725Z" fill="white"/>
<path d="M15.0171 32.0001C11.0343 32.0001 7.21468 30.4179 4.39842 27.6017C1.58216 24.7854 0 20.9658 0 16.983C0 13.0002 1.58216 9.1805 4.39842 6.36424C7.21468 3.54798 11.0343 1.96582 15.0171 1.96582H17.3029V14.6972H30.0343V16.983C30.0282 20.9639 28.4441 24.7801 25.6292 27.595C22.8142 30.41 18.9981 31.9941 15.0171 32.0001ZM12.7314 6.85725C10.896 7.25269 9.20108 8.13552 7.825 9.41285C6.44893 10.6902 5.44256 12.3148 4.9118 14.1158C4.38104 15.9167 4.3455 17.8274 4.80892 19.6469C5.27234 21.4664 6.21759 23.1273 7.54521 24.4549C8.87284 25.7825 10.5338 26.7278 12.3532 27.1912C14.1727 27.6546 16.0834 27.6191 17.8843 27.0883C19.6853 26.5575 21.3099 25.5512 22.5873 24.1751C23.8646 22.799 24.7474 21.1041 25.1429 19.2687H12.7314V6.85725Z" fill="url(#paint0_linear_1016_2396)" fill-opacity="0.5"/>
<path d="M17.3027 14.6973H30.0342V16.9834C30.028 20.9642 28.4438 24.7799 25.6289 27.5947C25.4947 27.729 25.3575 27.8597 25.2188 27.9883L22.6357 24.1191C23.8861 22.7529 24.7523 21.0799 25.1426 19.2686H12.7314V6.85742C12.2692 6.95703 11.8156 7.08711 11.374 7.24707L8.76074 3.33105C10.7054 2.43985 12.8372 1.96582 15.0176 1.96582H17.3027V14.6973Z" fill="white"/>
</g>
<defs>
<linearGradient id="paint0_linear_1016_2396" x1="26.5" y1="25.0001" x2="15.5" y2="34.0001" gradientUnits="userSpaceOnUse">
<stop stop-color="#197CDF"/>
<stop offset="1" stop-color="#197CDF" stop-opacity="0"/>
</linearGradient>
<clipPath id="clip0_1016_2396">
<rect width="32" height="32" fill="white"/>
</clipPath>
</defs>
</svg>
