<svg width="32" height="32" viewBox="0 0 32 32" fill="none" xmlns="http://www.w3.org/2000/svg">
<g clip-path="url(#clip0_1016_2411)">
<path d="M11.4365 19.4314C11.4365 20.0322 11.5548 20.6271 11.7846 21.1822C12.0145 21.7372 12.3515 22.2416 12.7763 22.6664C13.2011 23.0912 13.7054 23.4282 14.2604 23.6582C14.8155 23.8881 15.4104 24.0064 16.0111 24.0064C16.6119 24.0064 17.2068 23.8881 17.7619 23.6582C18.3169 23.4282 18.8212 23.0912 19.246 22.6664C19.6708 22.2416 20.0078 21.7372 20.2376 21.1822C20.4675 20.6271 20.5858 20.0322 20.5858 19.4314C20.5858 18.8307 20.4675 18.2357 20.2376 17.6807C20.0078 17.1256 19.6708 16.6213 19.246 16.1964C18.8212 15.7716 18.3169 15.4346 17.7619 15.2047C17.2068 14.9748 16.6119 14.8564 16.0111 14.8564C15.4104 14.8564 14.8155 14.9748 14.2604 15.2047C13.7054 15.4346 13.2011 15.7716 12.7763 16.1964C12.3515 16.6213 12.0145 17.1256 11.7846 17.6807C11.5548 18.2357 11.4365 18.8307 11.4365 19.4314Z" fill="white"/>
<path d="M27.4477 12.5688V14.8561C27.4476 17.8891 26.2426 20.7979 24.0978 22.9426C21.9531 25.0872 19.0442 26.292 16.0112 26.292C12.9781 26.292 10.0693 25.0872 7.92451 22.9426C5.77976 20.7979 4.57477 17.8891 4.57462 14.8561V12.5688H27.4477ZM32.0223 7.99414H0V14.8561C0 19.1025 1.68689 23.175 4.68956 26.1777C7.69224 29.1804 11.7647 30.8672 16.0112 30.8672C20.2576 30.8672 24.3301 29.1804 27.3328 26.1777C30.3354 23.175 32.0223 19.1025 32.0223 14.8561V7.99414Z" fill="white"/>
<path d="M27.4477 12.5688V14.8561C27.4476 17.8891 26.2426 20.7979 24.0978 22.9426C21.9531 25.0872 19.0442 26.292 16.0112 26.292C12.9781 26.292 10.0693 25.0872 7.92451 22.9426C5.77976 20.7979 4.57477 17.8891 4.57462 14.8561V12.5688H27.4477ZM32.0223 7.99414H0V14.8561C0 19.1025 1.68689 23.175 4.68956 26.1777C7.69224 29.1804 11.7647 30.8672 16.0112 30.8672C20.2576 30.8672 24.3301 29.1804 27.3328 26.1777C30.3354 23.175 32.0223 19.1025 32.0223 14.8561V7.99414Z" fill="url(#paint0_linear_1016_2411)" fill-opacity="0.5"/>
<path d="M32.0223 1.13281H0V5.70743H32.0223V1.13281Z" fill="white"/>
<path d="M27.4477 12.5688H4.57462L0 7.99414H32.0223L27.4477 12.5688Z" fill="white"/>
<path d="M22.873 16.0001C22.873 16.3034 22.9935 16.5943 23.208 16.8088C23.4225 17.0233 23.7134 17.1438 24.0167 17.1438C24.32 17.1438 24.6109 17.0233 24.8254 16.8088C25.0399 16.5943 25.1604 16.3034 25.1604 16.0001C25.1604 15.6968 25.0399 15.4059 24.8254 15.1914C24.6109 14.9769 24.32 14.8564 24.0167 14.8564C23.7134 14.8564 23.4225 14.9769 23.208 15.1914C22.9935 15.4059 22.873 15.6968 22.873 16.0001Z" fill="#197CDF"/>
</g>
<defs>
<linearGradient id="paint0_linear_1016_2411" x1="16.0112" y1="12.1234" x2="16.0112" y2="30.8675" gradientUnits="userSpaceOnUse">
<stop stop-color="#197CDF"/>
<stop offset="0.8" stop-color="#197CDF" stop-opacity="0"/>
</linearGradient>
<clipPath id="clip0_1016_2411">
<rect width="32" height="32" fill="white"/>
</clipPath>
</defs>
</svg>
