<svg width="32" height="32" viewBox="0 0 32 32" fill="none" xmlns="http://www.w3.org/2000/svg">
<path d="M24.924 17.0177C24.8875 16.9565 24.8391 16.903 24.7814 16.8602C24.7238 16.8174 24.658 16.7861 24.5879 16.7681C24.5178 16.7501 24.4448 16.7459 24.373 16.7555C24.3012 16.7652 24.2321 16.7886 24.1696 16.8244L21.4985 18.3707L17.273 15.999L21.5004 13.6177L24.132 15.1002C24.2156 15.1476 24.3105 15.1729 24.4072 15.1737C24.5283 15.173 24.6459 15.1335 24.7418 15.0612C24.8376 14.9889 24.9065 14.8879 24.9378 14.7737C24.9691 14.6594 24.961 14.5383 24.9149 14.429C24.8687 14.3196 24.7871 14.2281 24.6824 14.1686L22.6014 12.9953L24.3993 11.9921C24.4649 11.9584 24.5228 11.9121 24.5697 11.856C24.6165 11.7999 24.6513 11.7352 24.6719 11.6656C24.6924 11.5961 24.6984 11.5233 24.6894 11.4514C24.6805 11.3796 24.6567 11.3103 24.6196 11.2476C24.5825 11.1849 24.5328 11.1302 24.4736 11.0868C24.4143 11.0433 24.3466 11.012 24.2746 10.9947C24.2026 10.9774 24.1278 10.9745 24.0546 10.9861C23.9815 10.9977 23.9115 11.0237 23.8488 11.0623L22.0489 12.0694L22.0133 9.63584C22.0112 9.49332 21.9512 9.35746 21.8465 9.25813C21.7417 9.15881 21.6009 9.10416 21.4549 9.10621C21.3089 9.10826 21.1697 9.16685 21.068 9.26907C20.9662 9.37129 20.9103 9.50878 20.9124 9.6513L20.9559 12.686L16.675 15.0944V10.208L19.3085 8.72349C19.4351 8.65198 19.5274 8.53432 19.565 8.39639C19.6027 8.25846 19.5827 8.11156 19.5095 7.98802C19.4362 7.86447 19.3157 7.77439 19.1744 7.7376C19.0331 7.7008 18.8826 7.72031 18.7561 7.79182L16.675 8.96511V6.53735C16.675 6.39484 16.617 6.25816 16.5138 6.15739C16.4106 6.05661 16.2706 6 16.1246 6C15.9786 6 15.8386 6.05661 15.7353 6.15739C15.6321 6.25816 15.5741 6.39484 15.5741 6.53735V8.97671L13.396 7.78796C13.3328 7.75356 13.2633 7.73165 13.1915 7.72348C13.1196 7.71531 13.0468 7.72104 12.9772 7.74033C12.8367 7.7793 12.7177 7.87118 12.6466 7.99575C12.5754 8.12032 12.5579 8.26738 12.5978 8.40459C12.6377 8.54179 12.7318 8.6579 12.8594 8.72736L15.5741 10.208V15.0403L11.218 12.5874V9.62037C11.218 9.47786 11.16 9.34118 11.0567 9.24041C10.9535 9.13963 10.8135 9.08302 10.6675 9.08302C10.5215 9.08302 10.3815 9.13963 10.2783 9.24041C10.175 9.34118 10.117 9.47786 10.117 9.62037V11.9669L7.82611 10.6738C7.69955 10.6026 7.54917 10.5833 7.40807 10.6203C7.26696 10.6572 7.14668 10.7474 7.07368 10.871C7.00069 10.9945 6.98096 11.1413 7.01883 11.2791C7.05671 11.4168 7.14909 11.5342 7.27565 11.6055L9.57451 12.9044L7.43802 14.1492C7.33487 14.2099 7.25484 14.3017 7.21011 14.4109C7.16538 14.52 7.1584 14.6404 7.19023 14.7538C7.22207 14.8671 7.29097 14.9672 7.38645 15.0389C7.48194 15.1105 7.59878 15.1497 7.71919 15.1505C7.81844 15.1507 7.9158 15.1239 8.00036 15.0732L10.6715 13.5268L15.0712 15.999L10.6715 18.479L8.03798 16.9945C7.91142 16.9232 7.76104 16.904 7.61994 16.9409C7.47883 16.9779 7.35855 17.0681 7.28555 17.1916C7.21256 17.3152 7.19283 17.462 7.2307 17.5997C7.26858 17.7375 7.36096 17.8549 7.48752 17.9262L9.57451 19.0994L7.70533 20.149C7.59935 20.2085 7.51666 20.3006 7.47026 20.411C7.42387 20.5214 7.41643 20.6437 7.4491 20.7586C7.48178 20.8736 7.55271 20.9747 7.65073 21.0459C7.74874 21.1172 7.86827 21.1546 7.99045 21.1522C8.08407 21.1498 8.17545 21.1238 8.25578 21.0768L10.1289 20.0215L10.1685 22.4589C10.1706 22.6 10.2295 22.7347 10.3325 22.8339C10.4355 22.933 10.5744 22.9885 10.719 22.9885C10.7914 22.9877 10.8629 22.973 10.9294 22.9452C10.9959 22.9173 11.0561 22.8769 11.1065 22.8262C11.1569 22.7756 11.1966 22.7156 11.2232 22.6499C11.2498 22.5842 11.2628 22.514 11.2615 22.4434L11.218 19.4087L15.5741 16.9558V21.7882L12.9406 23.2765C12.8353 23.3356 12.753 23.4271 12.7065 23.5367C12.6599 23.6463 12.6519 23.7678 12.6835 23.8823C12.7152 23.9968 12.7847 24.0979 12.8814 24.1698C12.978 24.2417 13.0963 24.2803 13.2178 24.2797C13.3141 24.28 13.4086 24.2546 13.4911 24.2062L15.5741 23.033V25.4626C15.5741 25.6052 15.6321 25.7418 15.7353 25.8426C15.8386 25.9434 15.9786 26 16.1246 26C16.2706 26 16.4106 25.9434 16.5138 25.8426C16.617 25.7418 16.675 25.6052 16.675 25.4626V23.0233L18.8531 24.2101C18.9804 24.2798 19.131 24.2973 19.2715 24.2587C19.4121 24.2201 19.5311 24.1286 19.6026 24.0043C19.674 23.8799 19.6919 23.733 19.6523 23.5958C19.6128 23.4586 19.519 23.3424 19.3917 23.2726L16.675 21.792V16.9036L20.948 19.3121V22.2791C20.9564 22.4163 21.0182 22.5452 21.1207 22.6394C21.2232 22.7337 21.3587 22.7861 21.4995 22.7861C21.6403 22.7861 21.7757 22.7337 21.8782 22.6394C21.9807 22.5452 22.0425 22.4163 22.0509 22.2791V19.9325L23.9518 21.0053C24.0356 21.0521 24.1305 21.0767 24.227 21.0768C24.3483 21.077 24.4663 21.0381 24.5626 20.966C24.6589 20.894 24.7282 20.7929 24.7596 20.6785C24.7909 20.5641 24.7827 20.4428 24.7362 20.3334C24.6897 20.224 24.6074 20.1327 24.5022 20.0736L22.5915 18.997L24.7339 17.7503C24.858 17.6772 24.9476 17.5593 24.9831 17.4221C25.0187 17.285 24.9975 17.1396 24.924 17.0177Z" fill="white" stroke="white" stroke-width="0.6"/>
</svg>
