<svg width="32" height="32" viewBox="0 0 32 32" fill="none" xmlns="http://www.w3.org/2000/svg">
<path d="M17.1699 19.9995C17.3765 19.414 17.7597 18.907 18.2665 18.5483C18.7734 18.1897 19.379 17.9971 19.9999 17.9971C20.6208 17.9971 21.2265 18.1897 21.7333 18.5483C22.2402 18.907 22.6233 19.414 22.8299 19.9995H23.9899C24.2551 19.9995 24.5095 20.1049 24.697 20.2924C24.8846 20.4799 24.9899 20.7343 24.9899 20.9995C24.9899 21.2647 24.8846 21.5191 24.697 21.7066C24.5095 21.8942 24.2551 21.9995 23.9899 21.9995H22.8299C22.6233 22.5851 22.2402 23.0921 21.7333 23.4507C21.2265 23.8094 20.6208 24.002 19.9999 24.002C19.379 24.002 18.7734 23.8094 18.2665 23.4507C17.7597 23.0921 17.3765 22.5851 17.1699 21.9995H8.00293C7.73771 21.9995 7.48336 21.8942 7.29582 21.7066C7.10829 21.5191 7.00293 21.2647 7.00293 20.9995C7.00293 20.7343 7.10829 20.4799 7.29582 20.2924C7.48336 20.1049 7.73771 19.9995 8.00293 19.9995H17.1719H17.1699ZM9.16993 9.99952C9.37653 9.41399 9.75967 8.90695 10.2665 8.54831C10.7734 8.18967 11.379 7.99707 11.9999 7.99707C12.6208 7.99707 13.2265 8.18967 13.7333 8.54831C14.2402 8.90695 14.6233 9.41399 14.8299 9.99952H23.9979C24.2631 9.99952 24.5175 10.1049 24.705 10.2924C24.8926 10.48 24.9979 10.7343 24.9979 10.9995C24.9979 11.2647 24.8926 11.5191 24.705 11.7066C24.5175 11.8942 24.2631 11.9995 23.9979 11.9995H14.8289C14.6219 12.5844 14.2387 13.0907 13.7321 13.4488C13.2255 13.8069 12.6203 13.9991 11.9999 13.9991C11.3795 13.9991 10.7744 13.8069 10.2678 13.4488C9.76113 13.0907 9.37795 12.5844 9.17093 11.9995H8.00893C7.74371 11.9995 7.48936 11.8942 7.30182 11.7066C7.11429 11.5191 7.00893 11.2647 7.00893 10.9995C7.00893 10.7343 7.11429 10.48 7.30182 10.2924C7.48936 10.1049 7.74371 9.99952 8.00893 9.99952H9.17093H9.16993ZM11.9999 11.9995C12.2651 11.9995 12.5195 11.8942 12.707 11.7066C12.8946 11.5191 12.9999 11.2647 12.9999 10.9995C12.9999 10.7343 12.8946 10.48 12.707 10.2924C12.5195 10.1049 12.2651 9.99952 11.9999 9.99952C11.7347 9.99952 11.4804 10.1049 11.2928 10.2924C11.1053 10.48 10.9999 10.7343 10.9999 10.9995C10.9999 11.2647 11.1053 11.5191 11.2928 11.7066C11.4804 11.8942 11.7347 11.9995 11.9999 11.9995ZM19.9999 21.9995C20.2651 21.9995 20.5195 21.8942 20.707 21.7066C20.8946 21.5191 20.9999 21.2647 20.9999 20.9995C20.9999 20.7343 20.8946 20.4799 20.707 20.2924C20.5195 20.1049 20.2651 19.9995 19.9999 19.9995C19.7347 19.9995 19.4804 20.1049 19.2928 20.2924C19.1053 20.4799 18.9999 20.7343 18.9999 20.9995C18.9999 21.2647 19.1053 21.5191 19.2928 21.7066C19.4804 21.8942 19.7347 21.9995 19.9999 21.9995Z" fill="white"/>
</svg>
