<svg width="32" height="32" viewBox="0 0 32 32" fill="none" xmlns="http://www.w3.org/2000/svg">
<path d="M20 9V12C20 12.2652 19.8946 12.5196 19.7071 12.7071C19.5196 12.8946 19.2652 13 19 13H13C12.7348 13 12.4804 12.8946 12.2929 12.7071C12.1054 12.5196 12 12.2652 12 12V9H10V23H16V18C16 17.7348 16.1054 17.4804 16.2929 17.2929C16.4804 17.1054 16.7348 17 17 17H22V9H20ZM21.59 19H18V22.59L21.59 19ZM18 25H9C8.73478 25 8.48043 24.8946 8.29289 24.7071C8.10536 24.5196 8 24.2652 8 24V8C8 7.73478 8.10536 7.48043 8.29289 7.29289C8.48043 7.10536 8.73478 7 9 7H23C23.2652 7 23.5196 7.10536 23.7071 7.29289C23.8946 7.48043 24 7.73478 24 8V19C24.0008 19.1316 23.9755 19.2621 23.9258 19.3839C23.876 19.5057 23.8027 19.6166 23.71 19.71L18.71 24.71C18.6166 24.8027 18.5057 24.876 18.3839 24.9258C18.2621 24.9755 18.1316 25.0008 18 25ZM14 11H18V9H14V11Z" fill="white"/>
</svg>
