<svg width="32" height="32" viewBox="0 0 32 32" fill="none" xmlns="http://www.w3.org/2000/svg">
<path d="M16.4304 9.5404C18.0925 7.95397 19.9706 7.47104 21.3582 8.66986C21.9863 9.21276 22.2231 9.89014 22.1126 10.7859L22.0899 10.9463L22.0709 11.0302L21.9952 11.308C21.9584 11.4355 21.9165 11.5614 21.8695 11.6855L21.8291 11.7853C21.6991 12.082 21.3999 12.6205 20.9062 13.4569L20.7124 13.7852L19.3564 12.9771L19.7673 12.2789C20.1303 11.6546 20.345 11.2588 20.3904 11.1357L20.4536 10.9558L20.5375 10.6546L20.5476 10.5902C20.5937 10.238 20.5457 10.0738 20.3759 9.90908L20.326 9.86426C19.7213 9.34155 18.7402 9.56944 17.6431 10.5675L17.5206 10.6818C16.6557 11.5069 15.8382 11.349 15.1368 10.5745L15.0156 10.433L14.7739 10.1313C14.4279 9.70012 14.2852 9.60669 14.1047 9.6433C13.6432 9.73673 13.368 10.0618 13.4185 10.445C13.4772 10.8983 13.9323 11.7013 14.4222 12.2695L14.5276 12.3875L13.3692 13.4594C12.6395 12.6716 11.9671 11.5201 11.8535 10.6489C11.6881 9.38384 12.5669 8.34474 13.7916 8.09601C14.688 7.91483 15.265 8.25699 15.9076 9.02527L16.2668 9.46907L16.3742 9.59028L16.431 9.53977L16.4304 9.5404Z" fill="white"/>
<path d="M13.5189 12.7056L13.4993 12.7139C12.0477 13.3579 10.7986 14.3845 9.8856 15.6839C8.97264 16.9833 8.43022 18.5065 8.3164 20.0905C8.24886 21.0311 8.31704 21.9136 8.54177 22.7633C9.04807 24.6755 12.4943 25.9993 17.0983 26.0006C21.6063 26.0019 24.6883 24.7368 25.3435 22.8164C25.7583 21.6011 25.7349 19.8222 25.3574 18.4561C24.7249 16.1727 23.3821 14.3975 21.35 13.1785L20.8462 12.8919L20.732 12.8306C20.6082 12.7633 20.4799 12.7045 20.3481 12.6545L20.3204 12.645L20.3772 12.6703C18.8621 11.9405 15.3357 11.9607 13.5189 12.7056ZM19.6916 14.0926L19.8501 14.1551C19.8816 14.169 19.9239 14.1892 19.9757 14.2163L20.2598 14.3716L20.3513 14.4234C22.1429 15.4385 23.2931 16.9151 23.836 18.8771C24.1352 19.956 24.1536 21.4168 23.8499 22.3069C23.473 23.4117 21.0072 24.4236 17.0989 24.4224C13.1407 24.4211 10.3271 23.341 10.0676 22.36C9.88958 21.6876 9.83466 20.9787 9.89084 20.2041L9.90852 20.0015C10.0316 18.775 10.4683 17.6009 11.1767 16.5922C11.8851 15.5835 12.8413 14.7742 13.9532 14.2422L14.1173 14.1665C15.5377 13.5838 18.6001 13.5667 19.6916 14.0926Z" fill="white"/>
<path d="M14.9078 17.6133H19.0313C19.5574 17.6133 19.8205 17.8763 19.8205 18.4024C19.8205 18.9285 19.5574 19.1915 19.0313 19.1915H14.9078C14.3817 19.1915 14.1187 18.9285 14.1187 18.4024C14.1187 17.8763 14.3817 17.6133 14.9078 17.6133Z" fill="white"/>
<path d="M14.9078 19.8379H19.0313C19.5574 19.8379 19.8205 20.1009 19.8205 20.627C19.8205 21.1531 19.5574 21.4161 19.0313 21.4161H14.9078C14.3817 21.4161 14.1187 21.1531 14.1187 20.627C14.1187 20.1009 14.3817 19.8379 14.9078 19.8379Z" fill="white"/>
<path d="M17.7584 18.5665V22.69C17.7584 23.2161 17.4954 23.4791 16.9693 23.4791C16.4432 23.4791 16.1802 23.2161 16.1802 22.69V18.5665C16.1802 18.0404 16.4432 17.7773 16.9693 17.7773C17.4954 17.7773 17.7584 18.0404 17.7584 18.5665Z" fill="white"/>
<path d="M15.6708 15.2595L17.4519 17.0406C17.8239 17.4125 17.8239 17.7845 17.4519 18.1565C17.0799 18.5285 16.708 18.5285 16.336 18.1565L14.5549 16.3754C14.1829 16.0034 14.1829 15.6315 14.5549 15.2595C14.9269 14.8875 15.2989 14.8875 15.6708 15.2595Z" fill="white"/>
<path d="M19.3118 16.3676L17.5307 18.1487C17.1587 18.5207 16.7867 18.5207 16.4147 18.1487C16.0427 17.7767 16.0427 17.4047 16.4147 17.0327L18.1958 15.2516C18.5678 14.8797 18.9398 14.8797 19.3118 15.2516C19.6838 15.6236 19.6838 15.9956 19.3118 16.3676Z" fill="white"/>
</svg>
