<svg width="32" height="32" viewBox="0 0 32 32" fill="none" xmlns="http://www.w3.org/2000/svg">
<g clip-path="url(#clip0_1016_2384)">
<path d="M16.0002 32L2.13574 23.9944V8.00559L16.0002 0L29.8646 8.00559V23.9944L16.0002 32ZM6.60814 21.4228L16.0002 26.8344L25.3922 21.4228V10.5772L16.0002 5.16562L6.60814 10.5772V21.4228Z" fill="white"/>
<path d="M16.0002 32L2.13574 23.9944V8.00559L16.0002 0L29.8646 8.00559V23.9944L16.0002 32ZM6.60814 21.4228L16.0002 26.8344L25.3922 21.4228V10.5772L16.0002 5.16562L6.60814 10.5772V21.4228Z" fill="url(#paint0_linear_1016_2384)" fill-opacity="0.5"/>
<path d="M16.0002 0L2.13574 8.00559L6.60814 10.5772L16.0002 5.16562L25.3922 10.5772L29.8646 8.00559L16.0002 0Z" fill="white"/>
<path d="M11.5278 15.989C11.5278 17.1752 11.999 18.3127 12.8378 19.1515C13.6765 19.9902 14.8141 20.4614 16.0002 20.4614C17.1864 20.4614 18.324 19.9902 19.1627 19.1515C20.0014 18.3127 20.4726 17.1752 20.4726 15.989C20.4726 14.8028 20.0014 13.6653 19.1627 12.8265C18.324 11.9878 17.1864 11.5166 16.0002 11.5166C14.8141 11.5166 13.6765 11.9878 12.8378 12.8265C11.999 13.6653 11.5278 14.8028 11.5278 15.989Z" fill="white"/>
</g>
<defs>
<linearGradient id="paint0_linear_1016_2384" x1="16.0002" y1="5.77686" x2="16.0002" y2="32.0003" gradientUnits="userSpaceOnUse">
<stop stop-color="#197CDF"/>
<stop offset="0.5" stop-color="#197CDF" stop-opacity="0"/>
</linearGradient>
<clipPath id="clip0_1016_2384">
<rect width="32" height="32" fill="white"/>
</clipPath>
</defs>
</svg>
