<svg width="20" height="23" viewBox="0 0 20 23" fill="none" xmlns="http://www.w3.org/2000/svg">
<path d="M8.75 2.875V1.25C8.75 0.918479 8.8817 0.600537 9.11612 0.366117C9.35054 0.131696 9.66848 0 10 0C10.3315 0 10.6495 0.131696 10.8839 0.366117C11.1183 0.600537 11.25 0.918479 11.25 1.25V2.875C14.1025 3.45375 16.25 5.97625 16.25 9V15H18.75C19.0815 15 19.3995 15.1317 19.6339 15.3661C19.8683 15.6005 20 15.9185 20 16.25C20 16.5815 19.8683 16.8995 19.6339 17.1339C19.3995 17.3683 19.0815 17.5 18.75 17.5H1.25C0.918479 17.5 0.600537 17.3683 0.366117 17.1339C0.131696 16.8995 0 16.5815 0 16.25C0 15.9185 0.131696 15.6005 0.366117 15.3661C0.600537 15.1317 0.918479 15 1.25 15H3.75V9C3.75018 7.55931 4.24787 6.16288 5.15893 5.04683C6.06999 3.93078 7.33851 3.1636 8.75 2.875ZM13.75 15V9C13.75 8.00544 13.3549 7.05161 12.6517 6.34835C11.9484 5.64509 10.9946 5.25 10 5.25C9.00544 5.25 8.05161 5.64509 7.34835 6.34835C6.64509 7.05161 6.25 8.00544 6.25 9V15H13.75ZM12.5 22.5H7.5C7.16848 22.5 6.85054 22.3683 6.61612 22.1339C6.3817 21.8995 6.25 21.5815 6.25 21.25C6.25 20.9185 6.3817 20.6005 6.61612 20.3661C6.85054 20.1317 7.16848 20 7.5 20H12.5C12.8315 20 13.1495 20.1317 13.3839 20.3661C13.6183 20.6005 13.75 20.9185 13.75 21.25C13.75 21.5815 13.6183 21.8995 13.3839 22.1339C13.1495 22.3683 12.8315 22.5 12.5 22.5Z" fill="white"/>
</svg>
