<svg width="32" height="32" viewBox="0 0 32 32" fill="none" xmlns="http://www.w3.org/2000/svg">
<path d="M16.2038 8.54275C16.7157 8.54275 17.1307 8.95625 17.1307 9.4661V16.8559C17.1315 17.1004 17.034 17.3361 16.8598 17.5083L12.9269 21.4284C12.563 21.7784 11.984 21.7731 11.627 21.417C11.2692 21.0609 11.2648 20.4848 11.6156 20.1223L15.2779 16.4731V9.4661C15.2779 8.95596 15.6931 8.54275 16.2047 8.54275H16.2038ZM26.4848 22.8136L24.1488 25.9579H26.4848V22.8127V22.8136ZM15.9795 3C23.1473 3 28.9578 8.78992 28.9578 15.9322C28.9578 16.4423 28.5426 16.8556 28.031 16.8556C27.5191 16.8556 27.1042 16.4421 27.1042 15.9322C27.1042 9.81079 22.1227 4.847 15.9795 4.847C9.83545 4.847 4.85396 9.81108 4.85396 15.9322C4.85484 21.072 8.39995 25.5382 13.4201 26.7219C13.9188 26.8388 14.2274 27.3366 14.1106 27.8327C13.9929 28.3297 13.4933 28.6375 12.9955 28.5206C7.13811 27.1398 3.00088 21.9286 3 15.9322C3 8.78962 8.8108 3 15.9795 3ZM19.3363 20.8805C19.8904 20.8805 20.3636 20.9675 20.7539 21.1408C21.0055 21.255 21.2324 21.4161 21.4213 21.6167C21.614 21.8191 21.7625 22.053 21.87 22.3187C21.9771 22.5825 22.0301 22.8578 22.0301 23.1436C22.0347 23.5732 21.919 23.9955 21.696 24.3627C21.4743 24.7294 21.2465 25.017 21.0152 25.2246L20.7302 25.4718L20.3416 25.7962L19.85 26.201C19.3644 26.5957 19.0154 26.9126 18.8025 27.1501L18.7278 27.2353C18.6408 27.3328 18.5518 27.45 18.4622 27.587H21.2969C21.58 27.587 21.7947 27.645 21.944 27.7604C22.0928 27.8755 22.1666 28.033 22.1666 28.2319C22.1701 28.3991 22.1069 28.5607 21.9906 28.6805C21.872 28.8035 21.6934 28.8644 21.4541 28.8644H17.4569C17.1851 28.8644 16.9731 28.7897 16.8211 28.6401C16.7485 28.5729 16.6907 28.4912 16.6514 28.4003C16.6122 28.3094 16.5924 28.2114 16.5933 28.1124C16.5933 27.9824 16.6416 27.8099 16.7394 27.5952C16.8378 27.3814 16.9444 27.2119 17.0604 27.0895L17.5266 26.6153L17.9603 26.1887C18.1011 26.0531 18.2347 25.9283 18.3641 25.8097L18.6341 25.5661L18.8628 25.3672C18.9665 25.2794 19.0546 25.2088 19.1275 25.1561L19.1952 25.1086C19.4924 24.8992 19.7396 24.6881 19.9375 24.4781C20.1337 24.2661 20.2848 24.0497 20.3879 23.8283C20.4907 23.6066 20.5428 23.3884 20.5428 23.1767C20.5428 22.9454 20.4875 22.7386 20.3765 22.5567C20.2683 22.3764 20.1125 22.2293 19.9261 22.1318C19.7345 22.0308 19.5209 21.9788 19.3044 21.9804C18.8294 21.9804 18.4566 22.1872 18.1849 22.603C18.1278 22.7084 18.0812 22.8194 18.0431 22.9336L18.0036 23.0461C17.94 23.2469 17.8428 23.4355 17.716 23.6037C17.6089 23.7328 17.4522 23.7981 17.2454 23.7981C17.1621 23.8004 17.0791 23.7858 17.0015 23.7551C16.9239 23.7244 16.8534 23.6783 16.7942 23.6195C16.6747 23.5 16.6155 23.3389 16.6155 23.1331C16.6155 22.8833 16.6709 22.6247 16.7836 22.3529C16.8952 22.082 17.0633 21.8375 17.2859 21.6167C17.5084 21.3968 17.7907 21.2193 18.1327 21.0837C18.4754 20.949 18.8766 20.8805 19.3363 20.8805ZM27.0169 20.8266C27.5674 20.8266 27.8418 21.1405 27.8418 21.7687V25.9579H28.0767C28.3546 25.9579 28.5789 25.9948 28.7467 26.0712C28.9157 26.1477 29 26.3131 29 26.5699C29 26.7785 28.9315 26.9304 28.7933 27.0265C28.6559 27.1223 28.4503 27.17 28.1733 27.17H27.8427V28.1771C27.8427 28.4541 27.7812 28.6609 27.657 28.7962C27.5943 28.8638 27.5176 28.9171 27.4322 28.9521C27.3469 28.9872 27.2549 29.0034 27.1627 28.9994C26.9762 29.0064 26.797 28.93 26.6719 28.7909C26.5472 28.6527 26.4845 28.448 26.4845 28.1771V27.17H23.7582C23.4144 27.17 23.1558 27.0927 22.9842 26.9369C22.8108 26.782 22.7248 26.572 22.7248 26.3046C22.7248 26.2352 22.7379 26.1664 22.7634 26.0961C22.7924 26.0179 22.8302 25.943 22.8767 25.8744L22.9549 25.7593L26.115 21.5473C26.3032 21.294 26.4579 21.1101 26.5785 20.9967C26.6968 20.8849 26.8541 20.8231 27.0169 20.8266Z" fill="white" stroke="white" stroke-width="0.5"/>
</svg>
