<svg width="32" height="32" viewBox="0 0 32 32" fill="none" xmlns="http://www.w3.org/2000/svg">
<path d="M12 13V21H17V20C17 19.7348 17.1054 19.4804 17.2929 19.2929C17.4804 19.1054 17.7348 19 18 19H24C24.2652 19 24.5196 19.1054 24.7071 19.2929C24.8946 19.4804 25 19.7348 25 20V24C25 24.2652 24.8946 24.5196 24.7071 24.7071C24.5196 24.8946 24.2652 25 24 25H18C17.7348 25 17.4804 24.8946 17.2929 24.7071C17.1054 24.5196 17 24.2652 17 24V23H11C10.7348 23 10.4804 22.8946 10.2929 22.7071C10.1054 22.5196 10 22.2652 10 22V13H8C7.73478 13 7.48043 12.8946 7.29289 12.7071C7.10536 12.5196 7 12.2652 7 12V8C7 7.73478 7.10536 7.48043 7.29289 7.29289C7.48043 7.10536 7.73478 7 8 7H14C14.2652 7 14.5196 7.10536 14.7071 7.29289C14.8946 7.48043 15 7.73478 15 8V12C15 12.2652 14.8946 12.5196 14.7071 12.7071C14.5196 12.8946 14.2652 13 14 13H12ZM24 17H18C17.7348 17 17.4804 16.8946 17.2929 16.7071C17.1054 16.5196 17 16.2652 17 16V12C17 11.7348 17.1054 11.4804 17.2929 11.2929C17.4804 11.1054 17.7348 11 18 11H24C24.2652 11 24.5196 11.1054 24.7071 11.2929C24.8946 11.4804 25 11.7348 25 12V16C25 16.2652 24.8946 16.5196 24.7071 16.7071C24.5196 16.8946 24.2652 17 24 17ZM9 11H13V9H9V11ZM19 15H23V13H19V15ZM19 23H23V21H19V23Z" fill="white"/>
</svg>
