<svg width="32" height="32" viewBox="0 0 32 32" fill="none" xmlns="http://www.w3.org/2000/svg">
<path d="M18.2685 2.42676H13.7438V6.95147H18.2685V2.42676Z" fill="white"/>
<path d="M3.19897 6.79311L0 9.99435L3.19897 13.1911L6.39795 9.99208L3.19897 6.79311Z" fill="white"/>
<path d="M28.7953 6.78406L25.5963 9.98304L28.7953 13.182L31.9943 9.98304L28.7953 6.78406Z" fill="white"/>
<path d="M0.169922 25.0498H2.43228H6.957H25.0559H29.5806H31.8429V29.5745H0.169922V25.0498Z" fill="white"/>
<path d="M25.6047 14.1613C28.1503 16.707 29.5804 20.1596 29.5804 23.7597V25.0492H25.0557V23.7597C25.0557 21.3596 24.1023 19.0579 22.4052 17.3608C20.7081 15.6637 18.4063 14.7103 16.0063 14.7103C13.6062 14.7103 11.3045 15.6637 9.60736 17.3608C7.91027 19.0579 6.95685 21.3596 6.95685 23.7597V25.0492H2.43213V23.7597C2.43213 20.1596 3.86226 16.707 6.40791 14.1613C8.95355 11.6157 12.4062 10.1855 16.0063 10.1855C19.6064 10.1855 23.059 11.6157 25.6047 14.1613Z" fill="white"/>
<path d="M25.6047 14.1613C28.1503 16.707 29.5804 20.1596 29.5804 23.7597V25.0492H25.0557V23.7597C25.0557 21.3596 24.1023 19.0579 22.4052 17.3608C20.7081 15.6637 18.4063 14.7103 16.0063 14.7103C13.6062 14.7103 11.3045 15.6637 9.60736 17.3608C7.91027 19.0579 6.95685 21.3596 6.95685 23.7597V25.0492H2.43213V23.7597C2.43213 20.1596 3.86226 16.707 6.40791 14.1613C8.95355 11.6157 12.4062 10.1855 16.0063 10.1855C19.6064 10.1855 23.059 11.6157 25.6047 14.1613Z" fill="url(#paint0_linear_1016_2390)" fill-opacity="0.5"/>
<defs>
<linearGradient id="paint0_linear_1016_2390" x1="27.5" y1="24.9996" x2="27.5" y2="13.9996" gradientUnits="userSpaceOnUse">
<stop stop-color="#197CDF"/>
<stop offset="1" stop-color="#197CDF" stop-opacity="0"/>
</linearGradient>
</defs>
</svg>
