<svg width="40" height="40" viewBox="0 0 40 40" fill="none" xmlns="http://www.w3.org/2000/svg">
<rect width="40" height="40" rx="16" transform="matrix(1 0 0 -1 0 40)" fill="#3B4655"/>
<path d="M22.5 12.4381C22.3355 12.4371 22.1724 12.4687 22.0201 12.5309C21.8678 12.5931 21.7293 12.6847 21.6125 12.8006L15.3625 19.0506C15.1297 19.2848 14.999 19.6016 14.999 19.9318C14.999 20.2621 15.1297 20.5789 15.3625 20.8131L21.6125 27.0631C21.7246 27.1939 21.8625 27.3002 22.0176 27.3752C22.1726 27.4503 22.3415 27.4924 22.5137 27.4991C22.6858 27.5057 22.8575 27.4767 23.0179 27.4139C23.1783 27.351 23.324 27.2557 23.4458 27.1339C23.5676 27.0121 23.663 26.8664 23.7258 26.706C23.7887 26.5456 23.8177 26.3739 23.811 26.2018C23.8044 26.0296 23.7622 25.8607 23.6872 25.7056C23.6121 25.5505 23.5059 25.4126 23.375 25.3006L18.0125 19.9381L23.375 14.5756C23.5505 14.4015 23.6705 14.1793 23.7197 13.937C23.769 13.6947 23.7453 13.4433 23.6516 13.2145C23.5579 12.9857 23.3985 12.7898 23.1936 12.6516C22.9886 12.5134 22.7472 12.4391 22.5 12.4381Z" fill="white"/>
</svg>
