<svg width="40" height="40" viewBox="0 0 40 40" fill="none" xmlns="http://www.w3.org/2000/svg">
<rect width="40" height="40" rx="16" transform="matrix(-1 0 0 1 40 0)" fill="#3B4655"/>
<path d="M17.5 27.5619C17.6645 27.5629 17.8276 27.5313 17.9799 27.4691C18.1322 27.4069 18.2707 27.3153 18.3875 27.1994L24.6375 20.9494C24.8703 20.7152 25.001 20.3984 25.001 20.0682C25.001 19.7379 24.8703 19.4211 24.6375 19.1869L18.3875 12.9369C18.2754 12.8061 18.1375 12.6998 17.9824 12.6248C17.8274 12.5497 17.6585 12.5076 17.4863 12.5009C17.3142 12.4943 17.1425 12.5233 16.9821 12.5861C16.8217 12.649 16.676 12.7443 16.5542 12.8661C16.4324 12.9879 16.337 13.1336 16.2742 13.294C16.2113 13.4544 16.1823 13.6261 16.189 13.7982C16.1956 13.9704 16.2378 14.1393 16.3128 14.2944C16.3879 14.4495 16.4941 14.5874 16.625 14.6994L21.9875 20.0619L16.625 25.4244C16.4495 25.5985 16.3295 25.8207 16.2803 26.063C16.231 26.3053 16.2547 26.5567 16.3484 26.7855C16.4421 27.0143 16.6015 27.2102 16.8064 27.3484C17.0114 27.4866 17.2528 27.5609 17.5 27.5619Z" fill="white"/>
</svg>
