<?xml version="1.0" standalone="no"?><!DOCTYPE svg PUBLIC "-//W3C//DTD SVG 1.1//EN" "http://www.w3.org/Graphics/SVG/1.1/DTD/svg11.dtd"><svg t="1772084138848" class="icon" viewBox="0 0 1024 1024" version="1.1" xmlns="http://www.w3.org/2000/svg" p-id="4640" xmlns:xlink="http://www.w3.org/1999/xlink" width="200" height="200"><path d="M604.8 407.68H158.72L375.68 198.4c17.92-17.28 17.92-46.08 0-63.36a48.384 48.384 0 0 0-65.92 0L13.44 421.12c-17.92 17.28-17.92 46.08 0 63.36l296.32 286.08c17.92 17.28 47.36 17.28 65.92 0 17.92-17.28 17.92-46.08 0-63.36L158.72 497.92h446.08c179.84 0 325.76 140.8 325.76 314.88v44.8c0 24.96 21.12 44.8 46.72 44.8 25.6 0 46.72-20.48 46.72-44.8v-44.8c0-224-187.52-405.12-419.2-405.12z" p-id="4641" fill="#ffffff"></path></svg>