<svg width="40" height="40" viewBox="0 0 40 40" fill="none" xmlns="http://www.w3.org/2000/svg">
<path d="M20 7.5C26.875 7.5 32.5 13.125 32.5 20C32.5 26.875 26.875 32.5 20 32.5C13.125 32.5 7.5 26.875 7.5 20C7.5 13.125 13.125 7.5 20 7.5ZM20 10C14.5 10 10 14.5 10 20C10 25.5 14.5 30 20 30C25.5 30 30 25.5 30 20C30 14.5 25.5 10 20 10ZM16.625 13.625L20 17L23.375 13.625C23.875 13.125 24.625 13.125 25.125 13.625C25.625 14.125 25.625 14.875 25.125 15.375L21.75 18.75H25C25.75 18.75 26.25 19.25 26.25 20C26.25 20.75 25.75 21.25 25 21.25H21.25V22.5H25C25.75 22.5 26.25 23 26.25 23.75C26.25 24.5 25.75 25 25 25H21.25V27.5C21.25 28.25 20.75 28.75 20 28.75C19.25 28.75 18.75 28.25 18.75 27.5V25H15C14.25 25 13.75 24.5 13.75 23.75C13.75 23 14.25 22.5 15 22.5H18.75V21.25H15C14.25 21.25 13.75 20.75 13.75 20C13.75 19.25 14.25 18.75 15 18.75H18.25L14.875 15.375C14.375 14.875 14.375 14.125 14.875 13.625C15.375 13.125 16.125 13.125 16.625 13.625Z" fill="white"/>
</svg>
