<svg width="40" height="40" viewBox="0 0 40 40" fill="none" xmlns="http://www.w3.org/2000/svg">
<path d="M19.2222 10.6667H10.2778C9.93889 10.6667 9.61388 10.5262 9.37425 10.2761C9.13462 10.0261 9 9.68696 9 9.33333C9 8.97971 9.13462 8.64057 9.37425 8.39052C9.61388 8.14048 9.93889 8 10.2778 8H30.7222C31.0611 8 31.3861 8.14048 31.6257 8.39052C31.8654 8.64057 32 8.97971 32 9.33333V29.3333C32 30.0406 31.7308 30.7189 31.2515 31.219C30.7722 31.719 30.1222 32 29.4444 32H21.7778C21.1 32 20.45 31.719 19.9707 31.219C19.4915 30.7189 19.2222 30.0406 19.2222 29.3333V10.6667ZM21.7778 10.6667V29.3333H29.4444V10.6667H21.7778ZM15.3889 26.6667C15.05 26.6667 14.725 26.5262 14.4854 26.2761C14.2457 26.0261 14.1111 25.687 14.1111 25.3333V14.6667C14.1111 14.313 14.2457 13.9739 14.4854 13.7239C14.725 13.4738 15.05 13.3333 15.3889 13.3333C15.7278 13.3333 16.0528 13.4738 16.2924 13.7239C16.532 13.9739 16.6667 14.313 16.6667 14.6667V25.3333C16.6667 25.687 16.532 26.0261 16.2924 26.2761C16.0528 26.5262 15.7278 26.6667 15.3889 26.6667ZM15.3889 32C15.05 32 14.725 31.8595 14.4854 31.6095C14.2457 31.3594 14.1111 31.0203 14.1111 30.6667V29.3333C14.1111 28.9797 14.2457 28.6406 14.4854 28.3905C14.725 28.1405 15.05 28 15.3889 28C15.7278 28 16.0528 28.1405 16.2924 28.3905C16.532 28.6406 16.6667 28.9797 16.6667 29.3333V30.6667C16.6667 31.0203 16.532 31.3594 16.2924 31.6095C16.0528 31.8595 15.7278 32 15.3889 32ZM10.2778 26.6667C9.93889 26.6667 9.61388 26.5262 9.37425 26.2761C9.13462 26.0261 9 25.687 9 25.3333V14.6667C9 14.313 9.13462 13.9739 9.37425 13.7239C9.61388 13.4738 9.93889 13.3333 10.2778 13.3333C10.6167 13.3333 10.9417 13.4738 11.1813 13.7239C11.4209 13.9739 11.5556 14.313 11.5556 14.6667V25.3333C11.5556 25.687 11.4209 26.0261 11.1813 26.2761C10.9417 26.5262 10.6167 26.6667 10.2778 26.6667ZM10.2778 32C9.93889 32 9.61388 31.8595 9.37425 31.6095C9.13462 31.3594 9 31.0203 9 30.6667V29.3333C9 28.9797 9.13462 28.6406 9.37425 28.3905C9.61388 28.1405 9.93889 28 10.2778 28C10.6167 28 10.9417 28.1405 11.1813 28.3905C11.4209 28.6406 11.5556 28.9797 11.5556 29.3333V30.6667C11.5556 31.0203 11.4209 31.3594 11.1813 31.6095C10.9417 31.8595 10.6167 32 10.2778 32ZM25.6111 18.6667C25.2722 18.6667 24.9472 18.5262 24.7076 18.2761C24.468 18.0261 24.3333 17.687 24.3333 17.3333V14.6667C24.3333 14.313 24.468 13.9739 24.7076 13.7239C24.9472 13.4738 25.2722 13.3333 25.6111 13.3333C25.95 13.3333 26.275 13.4738 26.5146 13.7239C26.7543 13.9739 26.8889 14.313 26.8889 14.6667V17.3333C26.8889 17.687 26.7543 18.0261 26.5146 18.2761C26.275 18.5262 25.95 18.6667 25.6111 18.6667ZM25.6111 26.6667C25.2722 26.6667 24.9472 26.5262 24.7076 26.2761C24.468 26.0261 24.3333 25.687 24.3333 25.3333V22.6667C24.3333 22.313 24.468 21.9739 24.7076 21.7239C24.9472 21.4738 25.2722 21.3333 25.6111 21.3333C25.95 21.3333 26.275 21.4738 26.5146 21.7239C26.7543 21.9739 26.8889 22.313 26.8889 22.6667V25.3333C26.8889 25.687 26.7543 26.0261 26.5146 26.2761C26.275 26.5262 25.95 26.6667 25.6111 26.6667Z" fill="white"/>
</svg>
