<svg width="32" height="32" viewBox="0 0 32 32" fill="none" xmlns="http://www.w3.org/2000/svg">
<path d="M14 13H12C11.7348 13 11.4804 12.8946 11.2929 12.7071C11.1054 12.5196 11 12.2652 11 12C11 11.7348 11.1054 11.4804 11.2929 11.2929C11.4804 11.1054 11.7348 11 12 11H14C14.2652 11 14.5196 11.1054 14.7071 11.2929C14.8946 11.4804 15 11.7348 15 12C15 12.2652 14.8946 12.5196 14.7071 12.7071C14.5196 12.8946 14.2652 13 14 13ZM24 21H8C7.73478 21 7.48043 20.8946 7.29289 20.7071C7.10536 20.5196 7 20.2652 7 20C7 19.7348 7.10536 19.4804 7.29289 19.2929C7.48043 19.1054 7.73478 19 8 19H24C24.2652 19 24.5196 19.1054 24.7071 19.2929C24.8946 19.4804 25 19.7348 25 20C25 20.2652 24.8946 20.5196 24.7071 20.7071C24.5196 20.8946 24.2652 21 24 21ZM24 25H8C7.73478 25 7.48043 24.8946 7.29289 24.7071C7.10536 24.5196 7 24.2652 7 24C7 23.7348 7.10536 23.4804 7.29289 23.2929C7.48043 23.1054 7.73478 23 8 23H24C24.2652 23 24.5196 23.1054 24.7071 23.2929C24.8946 23.4804 25 23.7348 25 24C25 24.2652 24.8946 24.5196 24.7071 24.7071C24.5196 24.8946 24.2652 25 24 25ZM23 17H9C8.46957 17 7.96086 16.7893 7.58579 16.4142C7.21071 16.0391 7 15.5304 7 15V9C7 8.46957 7.21071 7.96086 7.58579 7.58579C7.96086 7.21071 8.46957 7 9 7H23C23.5304 7 24.0391 7.21071 24.4142 7.58579C24.7893 7.96086 25 8.46957 25 9V15C25 15.5304 24.7893 16.0391 24.4142 16.4142C24.0391 16.7893 23.5304 17 23 17ZM9 9V15H23V9H9Z" fill="white"/>
</svg>
