<svg width="40" height="40" viewBox="0 0 40 40" fill="none" xmlns="http://www.w3.org/2000/svg">
<path fill-rule="evenodd" clip-rule="evenodd" d="M24.056 6C24.3514 6 24.6346 6.11409 24.8435 6.31717C25.0523 6.52025 25.1696 6.79568 25.1696 7.08288V10.3118H26.2768C28.3415 10.3118 30.0286 11.9297 30.0286 13.9375V15.9518H33.8864C34.0326 15.9518 34.1774 15.9798 34.3126 16.0342C34.4477 16.0886 34.5704 16.1684 34.6738 16.269C34.7772 16.3695 34.8593 16.4889 34.9152 16.6203C34.9712 16.7517 35 16.8925 35 17.0347C35 17.3219 34.8827 17.5973 34.6738 17.8004C34.465 18.0035 34.1817 18.1175 33.8864 18.1175H30.0286V19.3556H33.8864C34.1817 19.3556 34.465 19.4697 34.6738 19.6728C34.8827 19.8759 35 20.1513 35 20.4385C35 20.7257 34.8827 21.0011 34.6738 21.2042C34.465 21.4073 34.1817 21.5214 33.8864 21.5214H30.0286V22.7586H33.8864C34.0326 22.7586 34.1774 22.7867 34.3126 22.8411C34.4477 22.8955 34.5704 22.9753 34.6738 23.0758C34.7772 23.1764 34.8593 23.2957 34.9152 23.4271C34.9712 23.5585 35 23.6993 35 23.8415C35 24.1287 34.8827 24.4042 34.6738 24.6072C34.465 24.8103 34.1817 24.9244 33.8864 24.9244H30.0286V26.0232C30.0286 28.031 28.3415 29.7262 26.2768 29.7262H25.1696V32.9171C25.1696 33.2043 25.0523 33.4798 24.8435 33.6828C24.6346 33.8859 24.3514 34 24.056 34C23.7607 34 23.4774 33.8859 23.2686 33.6828C23.0597 33.4798 22.9424 33.2043 22.9424 32.9171V29.7262H21.67V32.9171C21.67 33.2043 21.5527 33.4798 21.3439 33.6828C21.135 33.8859 20.8518 34 20.5564 34C20.2611 34 19.9778 33.8859 19.769 33.6828C19.5602 33.4798 19.4428 33.2043 19.4428 32.9171V29.7262H18.1701V32.9171C18.1701 33.2043 18.0527 33.4798 17.8439 33.6828C17.6351 33.8859 17.3518 34 17.0565 34C16.7611 34 16.4779 33.8859 16.269 33.6828C16.0602 33.4798 15.9429 33.2043 15.9429 32.9171V29.7262H14.7099C12.6452 29.7262 10.9714 28.0986 10.9714 26.0909V24.9244H7.1136C6.81826 24.9244 6.53501 24.8103 6.32617 24.6072C6.11733 24.4042 6 24.1287 6 23.8415C6 23.5543 6.11733 23.2789 6.32617 23.0758C6.53501 22.8727 6.81826 22.7586 7.1136 22.7586H10.9714V21.5206H7.1136C6.81826 21.5206 6.53501 21.4065 6.32617 21.2034C6.11733 21.0003 6 20.7249 6 20.4377C6 20.1505 6.11733 19.8751 6.32617 19.672C6.53501 19.4689 6.81826 19.3548 7.1136 19.3548H10.9714V18.1175H7.1136C6.81826 18.1175 6.53501 18.0035 6.32617 17.8004C6.11733 17.5973 6 17.3219 6 17.0347C6 16.7475 6.11733 16.472 6.32617 16.269C6.53501 16.0659 6.81826 15.9518 7.1136 15.9518H10.9714V13.9472C10.9714 11.9394 12.6452 10.3118 14.7099 10.3118H15.9429V7.08288C15.9429 6.79568 16.0602 6.52025 16.269 6.31717C16.4779 6.11409 16.7611 6 17.0565 6C17.2027 6 17.3475 6.02801 17.4826 6.08243C17.6177 6.13685 17.7405 6.21661 17.8439 6.31717C17.9473 6.41772 18.0293 6.5371 18.0853 6.66848C18.1413 6.79986 18.1701 6.94067 18.1701 7.08288V10.3118H19.4424V7.08288C19.4424 6.79568 19.5598 6.52025 19.7686 6.31717C19.9774 6.11409 20.2607 6 20.556 6C20.8514 6 21.1346 6.11409 21.3435 6.31717C21.5523 6.52025 21.6696 6.79568 21.6696 7.08288V10.3118H22.9424V7.08288C22.9424 6.79568 23.0597 6.52025 23.2686 6.31717C23.4774 6.11409 23.7607 6 24.056 6ZM13.1986 13.9472C13.1986 13.1368 13.8766 12.4776 14.7099 12.4776H26.2768C27.1101 12.4776 27.7881 13.1368 27.7881 13.9472V26.0909C27.7881 26.9012 27.1101 27.5605 26.2768 27.5605H14.7099C13.8766 27.5605 13.1986 26.9012 13.1986 26.0909V13.9472ZM17.5005 23.2096V16.9444H23.5391V23.2096H17.5005ZM23.738 14.7786H17.3016C16.1814 14.7786 15.2733 15.6617 15.2733 16.751V23.403C15.2733 24.4923 16.1814 25.3754 17.3016 25.3754H23.738C24.8582 25.3754 25.7663 24.4923 25.7663 23.403V16.751C25.7663 15.6617 24.8582 14.7786 23.738 14.7786Z" fill="white"/>
</svg>
