<svg width="40" height="40" viewBox="0 0 40 40" fill="none" xmlns="http://www.w3.org/2000/svg">
<path d="M11.2674 23.9575C11.2559 23.8889 11.25 23.8195 11.2499 23.75V16.25C11.2499 16.1788 11.2562 16.11 11.2674 16.0425C10.4314 15.7503 9.72564 15.1718 9.27517 14.4092C8.82471 13.6467 8.65856 12.7494 8.80615 11.8761C8.95374 11.0029 9.40555 10.21 10.0816 9.63782C10.7576 9.06568 11.6143 8.75118 12.4999 8.75C13.3866 8.74944 14.2447 9.06304 14.9221 9.63515C15.5994 10.2073 16.0521 11.0009 16.1999 11.8751C16.3476 12.7493 16.1809 13.6476 15.7292 14.4105C15.2774 15.1735 14.57 15.7517 13.7324 16.0425C13.7449 16.11 13.7499 16.18 13.7499 16.25V23.75C13.7499 23.8213 13.7437 23.89 13.7324 23.9575C14.5685 24.2497 15.2743 24.8282 15.7247 25.5908C16.1752 26.3533 16.3413 27.2506 16.1937 28.1239C16.0462 28.9972 15.5944 29.79 14.9183 30.3622C14.2423 30.9343 13.3856 31.2488 12.4999 31.25C11.6133 31.2506 10.7552 30.937 10.0778 30.3649C9.40049 29.7928 8.94776 28.9992 8.8 28.1249C8.65225 27.2507 8.81903 26.3524 9.27075 25.5895C9.72246 24.8265 10.4299 24.2483 11.2674 23.9575ZM29.9999 13.75H19.9999C19.6684 13.75 19.3505 13.6183 19.1161 13.3839C18.8816 13.1495 18.7499 12.8315 18.7499 12.5C18.7499 12.1685 18.8816 11.8505 19.1161 11.6161C19.3505 11.3817 19.6684 11.25 19.9999 11.25H29.9999C30.3315 11.25 30.6494 11.3817 30.8838 11.6161C31.1183 11.8505 31.2499 12.1685 31.2499 12.5C31.2499 12.8315 31.1183 13.1495 30.8838 13.3839C30.6494 13.6183 30.3315 13.75 29.9999 13.75ZM29.9999 21.25H22.4999C22.1684 21.25 21.8505 21.1183 21.6161 20.8839C21.3816 20.6495 21.2499 20.3315 21.2499 20C21.2499 19.6685 21.3816 19.3505 21.6161 19.1161C21.8505 18.8817 22.1684 18.75 22.4999 18.75H29.9999C30.3315 18.75 30.6494 18.8817 30.8838 19.1161C31.1183 19.3505 31.2499 19.6685 31.2499 20C31.2499 20.3315 31.1183 20.6495 30.8838 20.8839C30.6494 21.1183 30.3315 21.25 29.9999 21.25ZM29.9999 28.75H19.9999C19.6684 28.75 19.3505 28.6183 19.1161 28.3839C18.8816 28.1495 18.7499 27.8315 18.7499 27.5C18.7499 27.1685 18.8816 26.8505 19.1161 26.6161C19.3505 26.3817 19.6684 26.25 19.9999 26.25H29.9999C30.3315 26.25 30.6494 26.3817 30.8838 26.6161C31.1183 26.8505 31.2499 27.1685 31.2499 27.5C31.2499 27.8315 31.1183 28.1495 30.8838 28.3839C30.6494 28.6183 30.3315 28.75 29.9999 28.75ZM12.4999 26.25C12.1684 26.25 11.8505 26.3817 11.6161 26.6161C11.3816 26.8505 11.2499 27.1685 11.2499 27.5C11.2499 27.8315 11.3816 28.1495 11.6161 28.3839C11.8505 28.6183 12.1684 28.75 12.4999 28.75C12.8315 28.75 13.1494 28.6183 13.3838 28.3839C13.6183 28.1495 13.7499 27.8315 13.7499 27.5C13.7499 27.1685 13.6183 26.8505 13.3838 26.6161C13.1494 26.3817 12.8315 26.25 12.4999 26.25ZM12.4999 11.25C12.1684 11.25 11.8505 11.3817 11.6161 11.6161C11.3816 11.8505 11.2499 12.1685 11.2499 12.5C11.2499 12.8315 11.3816 13.1495 11.6161 13.3839C11.8505 13.6183 12.1684 13.75 12.4999 13.75C12.8315 13.75 13.1494 13.6183 13.3838 13.3839C13.6183 13.1495 13.7499 12.8315 13.7499 12.5C13.7499 12.1685 13.6183 11.8505 13.3838 11.6161C13.1494 11.3817 12.8315 11.25 12.4999 11.25Z" fill="white"/>
</svg>
