<svg width="32" height="32" viewBox="0 0 32 32" fill="none" xmlns="http://www.w3.org/2000/svg">
<g clip-path="url(#clip0_1016_2419)">
<path fill-rule="evenodd" clip-rule="evenodd" d="M8 2.14358C6.79547 2.83901 5.68037 3.6922 4.6863 4.68627C2.44866 6.92391 0.924806 9.77484 0.307443 12.8785C-0.309921 15.9822 0.00693253 19.1993 1.21793 22.1229C2.42894 25.0465 4.4797 27.5454 7.11088 29.3035C9.74207 31.0616 12.8355 32 16 32C20.2417 31.9943 24.3081 30.3068 27.3075 27.3074C30.3068 24.3081 31.9944 20.2417 32 16C32 12.8355 31.0616 9.74204 29.3035 7.11085C27.9349 5.06256 26.1174 3.36601 24 2.14355V7.4288C24.0983 7.52054 24.1951 7.61411 24.2905 7.70949C26.4897 9.90869 27.7277 12.8898 27.7333 16C27.7333 18.3206 27.0452 20.5891 25.7559 22.5187C24.4666 24.4482 22.6341 25.9521 20.4902 26.8402C18.3462 27.7282 15.987 27.9606 13.7109 27.5079C11.4349 27.0551 9.34422 25.9376 7.70329 24.2967C6.06235 22.6558 4.94486 20.5651 4.49213 18.289C4.03939 16.013 4.27175 13.6538 5.15982 11.5098C5.80543 9.95117 6.77652 8.55715 8 7.41679V2.14358Z" fill="white"/>
<path d="M13.7144 0H18.2858V10.2857H13.7144V0Z" fill="white"/>
</g>
<defs>
<clipPath id="clip0_1016_2419">
<rect width="32" height="32" fill="white"/>
</clipPath>
</defs>
</svg>
