<svg width="32" height="32" viewBox="0 0 32 32" fill="none" xmlns="http://www.w3.org/2000/svg">
<rect width="32" height="32" rx="16" fill="#22262D"/>
<path d="M17.0254 17.0733L17.0254 24.5574C17.0281 24.8211 16.9264 25.0753 16.7426 25.2645C16.6029 25.4057 16.4244 25.5022 16.2297 25.5416C16.035 25.581 15.833 25.5615 15.6495 25.4857C15.4659 25.4098 15.3091 25.281 15.199 25.1157C15.0889 24.9503 15.0305 24.756 15.0314 24.5574L15.0314 17.0733L7.54734 17.0733C7.29623 17.0539 7.0617 16.9404 6.89061 16.7556C6.71952 16.5708 6.62448 16.3282 6.62448 16.0763C6.62448 15.8244 6.71952 15.5819 6.89061 15.397C7.0617 15.2122 7.29623 15.0987 7.54734 15.0793L15.0307 15.0786L15.0314 7.58113C15.0207 7.44372 15.0386 7.3056 15.0839 7.17543C15.1292 7.04526 15.2009 6.92585 15.2945 6.82471C15.3881 6.72356 15.5016 6.64287 15.6279 6.58768C15.7542 6.53248 15.8906 6.50399 16.0284 6.50399C16.1662 6.50399 16.3025 6.53249 16.4288 6.58768C16.5551 6.64286 16.6686 6.72356 16.7623 6.82471C16.8559 6.92585 16.9276 7.04525 16.9729 7.17542C17.0181 7.30559 17.036 7.44372 17.0254 7.58113L17.0261 15.0786L24.5236 15.0793C24.7193 15.0812 24.9102 15.1406 25.0725 15.2499C25.2348 15.3593 25.3615 15.5139 25.4368 15.6946C25.5121 15.8753 25.5327 16.0741 25.496 16.2664C25.4594 16.4587 25.3671 16.636 25.2307 16.7763C25.1381 16.8699 25.0281 16.9444 24.9067 16.9953C24.7854 17.0463 24.6552 17.0728 24.5236 17.0733L17.0254 17.0733Z" fill="white" fill-opacity="0.6"/>
</svg>
