<svg width="24" height="24" viewBox="0 0 24 24" fill="none" xmlns="http://www.w3.org/2000/svg">
<g clip-path="url(#clip0_90_13405)">
<path d="M17.16 11.17H12.86V6.87C12.86 6.64589 12.771 6.43096 12.6125 6.27249C12.454 6.11403 12.2391 6.025 12.015 6.025C11.7909 6.025 11.576 6.11403 11.4175 6.27249C11.259 6.43096 11.17 6.64589 11.17 6.87V11.17H6.84001C6.6159 11.17 6.40097 11.259 6.2425 11.4175C6.08403 11.576 5.99501 11.7909 5.99501 12.015C5.99501 12.2391 6.08403 12.454 6.2425 12.6125C6.40097 12.771 6.6159 12.86 6.84001 12.86H11.16V17.14C11.16 17.3641 11.249 17.579 11.4075 17.7375C11.566 17.896 11.7809 17.985 12.005 17.985C12.2291 17.985 12.444 17.896 12.6025 17.7375C12.761 17.579 12.85 17.3641 12.85 17.14V12.86H17.15C17.3741 12.86 17.589 12.771 17.7475 12.6125C17.906 12.454 17.995 12.2391 17.995 12.015C17.995 11.7909 17.906 11.576 17.7475 11.4175C17.589 11.259 17.3741 11.17 17.15 11.17H17.16ZM19.3 19.29C18.2239 20.3653 16.9232 21.1892 15.4912 21.7026C14.0591 22.2159 12.5312 22.406 11.017 22.2592C9.50285 22.1123 8.03993 21.6322 6.73319 20.8533C5.42646 20.0744 4.30829 19.0159 3.45889 17.7538C2.60949 16.4918 2.04991 15.0573 1.82029 13.5535C1.59067 12.0496 1.69669 10.5136 2.13075 9.05557C2.56482 7.59752 3.31617 6.25361 4.33091 5.12021C5.34565 3.98681 6.59864 3.09201 8.00001 2.5C10.2026 1.57421 12.6584 1.44217 14.9476 2.12645C17.2368 2.81073 19.2173 4.26884 20.5505 6.25156C21.8838 8.23428 22.487 10.6185 22.257 12.9967C22.0271 15.3749 20.9784 17.5994 19.29 19.29H19.3ZM12 0C9.62663 0 7.30655 0.703788 5.33316 2.02236C3.35977 3.34094 1.8217 5.21509 0.913451 7.4078C0.00519937 9.60051 -0.232441 12.0133 0.230582 14.3411C0.693605 16.6689 1.83649 18.8071 3.51472 20.4853C5.19295 22.1635 7.33115 23.3064 9.65892 23.7694C11.9867 24.2324 14.3995 23.9948 16.5922 23.0866C18.7849 22.1783 20.6591 20.6402 21.9776 18.6668C23.2962 16.6935 24 14.3734 24 12C24 8.8174 22.7357 5.76516 20.4853 3.51472C18.2349 1.26428 15.1826 0 12 0Z" fill="white"/>
</g>
<defs>
<clipPath id="clip0_90_13405">
<rect width="24" height="24" fill="white"/>
</clipPath>
</defs>
</svg>
