<svg width="32" height="32" viewBox="0 0 32 32" fill="none" xmlns="http://www.w3.org/2000/svg">
<path d="M20.6139 3C21.2783 3.00002 21.8144 3.57131 21.8144 4.27889V9.83515C21.8112 10.5427 21.274 11.114 20.6104 11.114V11.1149H19.4134V14.9419H21.8118V13.6604C21.8118 12.9529 22.348 12.3816 23.0123 12.3815H26.7995C27.4638 12.3816 28 12.9529 28 13.6604V23.8968C28.0032 24.6036 27.4633 25.1748 26.8021 25.1748H23.0123C22.348 25.1746 21.8118 24.6035 21.8118 23.8968V22.6135H19.4098V27.7211C19.4097 28.4284 18.8735 28.999 18.2093 28.9991C17.545 28.9991 17.0081 28.4285 17.0079 27.7211V21.3355C17.008 20.7161 17.4202 20.2002 17.9692 20.0821C18.0384 20.067 18.1099 20.0594 18.1829 20.0575C18.1916 20.0573 18.2006 20.0566 18.2093 20.0566H21.8118V17.4997H18.2128L18.0897 17.4935C17.4832 17.4282 17.0114 16.8842 17.0114 16.2208V11.1149H9.80387V27.7211C9.8037 28.4286 9.26279 29 8.60246 29C7.93822 28.9998 7.4021 28.4284 7.40193 27.7211V11.1149H6.20053C5.5362 11.1148 5 10.5435 5 9.83603V4.27889C5 3.5714 5.5362 3.00016 6.20053 3H20.6139ZM24.2137 16.145C24.2151 16.1701 24.2172 16.1953 24.2172 16.2208V21.3355C24.2172 21.3603 24.215 21.385 24.2137 21.4095V22.6179H25.5981V14.9375H24.2137V16.145ZM7.40193 8.55802H19.4134V5.55778H7.40193V8.55802Z" fill="white" stroke="white" stroke-width="0.2"/>
</svg>
