<svg width="40" height="40" viewBox="0 0 40 40" fill="none" xmlns="http://www.w3.org/2000/svg">
<path d="M31.8555 8.30469H15.043C14.6289 8.30469 14.0391 8.54687 13.7383 8.84766L3.13672 19.4492C2.54688 20.0391 2.53907 21.0195 3.13672 21.6211L13.7383 32.2227C14.0469 32.5313 14.6211 32.7656 15.043 32.7656H31.8516C34.4023 32.7656 36.4453 30.7031 36.4453 28.1641V12.9062C36.4453 10.3477 34.3906 8.30469 31.8555 8.30469ZM29.3984 25.3984C29.6992 25.6992 29.6914 26.1914 29.3984 26.4805C29.1016 26.7773 28.6094 26.7734 28.3164 26.4805L23.4531 21.6172L18.5898 26.4805C18.2891 26.7812 17.7969 26.7734 17.5078 26.4805C17.2109 26.1836 17.2148 25.6914 17.5078 25.3984L22.3711 20.5352L17.5078 15.6719C17.207 15.3711 17.2148 14.8789 17.5078 14.5898C17.8047 14.293 18.2969 14.2969 18.5898 14.5898L23.4531 19.4531L28.3164 14.5898C28.6172 14.2891 29.1094 14.2969 29.3984 14.5898C29.6953 14.8867 29.6914 15.3789 29.3984 15.6719L24.5352 20.5352L29.3984 25.3984Z" fill="white"/>
</svg>
