<svg width="32" height="32" viewBox="0 0 32 32" fill="none" xmlns="http://www.w3.org/2000/svg">
<path d="M21 7C22.6 7 23.9 8.2 24 9.8V21H26V24C26 25.6 24.8 26.9 23.3 27H12C10.4 27 9.1 25.8 9 24.2V13C7.3 13 6 11.7 6 10C6 8.4 7.2 7.1 8.8 7H21ZM21 9H11V24C11 24.5 11.4 24.9 11.9 25H12.1C12.5 25 12.9 24.6 13 24.1V21H22V10C22 9.5 21.6 9.1 21.1 9H21ZM24 23H15V24C15 24.4 14.9 24.7 14.8 25H23.1C23.5 25 23.9 24.6 24 24.1V23ZM19 16C19.6 16 20 16.4 20 17C20 17.5 19.6 17.9 19.1 18H14C13.4 18 13 17.6 13 17C13 16.5 13.4 16.1 13.9 16H19ZM19 12C19.6 12 20 12.4 20 13C20 13.5 19.6 13.9 19.1 14H14C13.4 14 13 13.6 13 13C13 12.5 13.4 12.1 13.9 12H19ZM9 9C8.4 9 8 9.4 8 10C8 10.5 8.4 10.9 8.9 11H9V9Z" fill="white"/>
</svg>
