<svg width="32" height="32" viewBox="0 0 32 32" fill="none" xmlns="http://www.w3.org/2000/svg">
<path d="M13 19V9H9V19H13ZM13 21H9V23H13V21ZM19 21V23H23V21H19ZM19 19H23V9H19V19ZM18 7H24C24.2652 7 24.5196 7.10536 24.7071 7.29289C24.8946 7.48043 25 7.73478 25 8V24C25 24.2652 24.8946 24.5196 24.7071 24.7071C24.5196 24.8946 24.2652 25 24 25H18C17.7348 25 17.4804 24.8946 17.2929 24.7071C17.1054 24.5196 17 24.2652 17 24V8C17 7.73478 17.1054 7.48043 17.2929 7.29289C17.4804 7.10536 17.7348 7 18 7ZM8 7H14C14.2652 7 14.5196 7.10536 14.7071 7.29289C14.8946 7.48043 15 7.73478 15 8V24C15 24.2652 14.8946 24.5196 14.7071 24.7071C14.5196 24.8946 14.2652 25 14 25H8C7.73478 25 7.48043 24.8946 7.29289 24.7071C7.10536 24.5196 7 24.2652 7 24V8C7 7.73478 7.10536 7.48043 7.29289 7.29289C7.48043 7.10536 7.73478 7 8 7ZM11 11C11.2652 11 11.5196 11.1054 11.7071 11.2929C11.8946 11.4804 12 11.7348 12 12C12 12.2652 11.8946 12.5196 11.7071 12.7071C11.5196 12.8946 11.2652 13 11 13C10.7348 13 10.4804 12.8946 10.2929 12.7071C10.1054 12.5196 10 12.2652 10 12C10 11.7348 10.1054 11.4804 10.2929 11.2929C10.4804 11.1054 10.7348 11 11 11ZM11 15C11.2652 15 11.5196 15.1054 11.7071 15.2929C11.8946 15.4804 12 15.7348 12 16C12 16.2652 11.8946 16.5196 11.7071 16.7071C11.5196 16.8946 11.2652 17 11 17C10.7348 17 10.4804 16.8946 10.2929 16.7071C10.1054 16.5196 10 16.2652 10 16C10 15.7348 10.1054 15.4804 10.2929 15.2929C10.4804 15.1054 10.7348 15 11 15ZM21 11C21.2652 11 21.5196 11.1054 21.7071 11.2929C21.8946 11.4804 22 11.7348 22 12C22 12.2652 21.8946 12.5196 21.7071 12.7071C21.5196 12.8946 21.2652 13 21 13C20.7348 13 20.4804 12.8946 20.2929 12.7071C20.1054 12.5196 20 12.2652 20 12C20 11.7348 20.1054 11.4804 20.2929 11.2929C20.4804 11.1054 20.7348 11 21 11ZM21 15C21.2652 15 21.5196 15.1054 21.7071 15.2929C21.8946 15.4804 22 15.7348 22 16C22 16.2652 21.8946 16.5196 21.7071 16.7071C21.5196 16.8946 21.2652 17 21 17C20.7348 17 20.4804 16.8946 20.2929 16.7071C20.1054 16.5196 20 16.2652 20 16C20 15.7348 20.1054 15.4804 20.2929 15.2929C20.4804 15.1054 20.7348 15 21 15Z" fill="white"/>
</svg>
