<svg width="32" height="32" viewBox="0 0 32 32" fill="none" xmlns="http://www.w3.org/2000/svg">
<path d="M15.35 7.66551V5.33275H11.21C10.905 5.33275 10.6125 5.20987 10.3968 4.99113C10.1812 4.77239 10.06 4.47572 10.06 4.16638C10.06 3.85703 10.1812 3.56036 10.3968 3.34162C10.6125 3.12289 10.905 3 11.21 3H21.79C22.095 3 22.3875 3.12289 22.6032 3.34162C22.8188 3.56036 22.94 3.85703 22.94 4.16638C22.94 4.47572 22.8188 4.77239 22.6032 4.99113C22.3875 5.20987 22.095 5.33275 21.79 5.33275H17.65V7.66551H18.8C19.105 7.66551 19.3975 7.78839 19.6132 8.00713C19.8288 8.22587 19.95 8.52254 19.95 8.83188V12.331H21.2955C21.5671 11.5529 22.101 10.8971 22.8031 10.4796C23.5052 10.062 24.3301 9.90953 25.1323 10.0491C25.9344 10.1886 26.6622 10.6112 27.1869 11.2422C27.7116 11.8732 27.9996 12.6719 28 13.4974V20.4956C28.0012 21.322 27.714 22.1221 27.1893 22.7543C26.6646 23.3865 25.9363 23.8099 25.1332 23.9496C24.3302 24.0893 23.5044 23.9363 22.8019 23.5176C22.0995 23.0989 21.5659 22.4416 21.2955 21.662H11.7045C11.4329 22.4402 10.899 23.0959 10.1969 23.5135C9.49483 23.931 8.66986 24.0835 7.86771 23.944C7.06556 23.8044 6.33784 23.3818 5.8131 22.7508C5.28837 22.1199 5.00038 21.3211 5 20.4956V13.4974C4.99879 12.671 5.28596 11.8709 5.81066 11.2387C6.33536 10.6066 7.06373 10.1831 7.86675 10.0434C8.66977 9.90371 9.49563 10.0568 10.1981 10.4755C10.9005 10.8942 11.4341 11.5515 11.7045 12.331H13.05V8.83188C13.05 8.52254 13.1712 8.22587 13.3868 8.00713C13.6025 7.78839 13.895 7.66551 14.2 7.66551H15.35ZM14.2 14.6638H11.9V19.3293H21.1V14.6638H14.2ZM9.6 13.4974C9.6 13.188 9.47884 12.8914 9.26318 12.6726C9.04751 12.4539 8.755 12.331 8.45 12.331C8.145 12.331 7.8525 12.4539 7.63683 12.6726C7.42116 12.8914 7.3 13.188 7.3 13.4974V20.4956C7.3 20.805 7.42116 21.1017 7.63683 21.3204C7.8525 21.5391 8.145 21.662 8.45 21.662C8.755 21.662 9.04751 21.5391 9.26318 21.3204C9.47884 21.1017 9.6 20.805 9.6 20.4956V13.4974ZM23.4 20.4956C23.4 20.805 23.5212 21.1017 23.7368 21.3204C23.9525 21.5391 24.245 21.662 24.55 21.662C24.855 21.662 25.1475 21.5391 25.3632 21.3204C25.5788 21.1017 25.7 20.805 25.7 20.4956V13.4974C25.7 13.188 25.5788 12.8914 25.3632 12.6726C25.1475 12.4539 24.855 12.331 24.55 12.331C24.245 12.331 23.9525 12.4539 23.7368 12.6726C23.5212 12.8914 23.4 13.188 23.4 13.4974V20.4956ZM15.35 12.331H17.65V9.99826H15.35V12.331Z" fill="white" stroke="white" stroke-width="0.2"/>
<path d="M16.0926 27.1114C17.1044 28.2454 18.4701 28.9188 19.9162 28.9969L19.954 29C21.3878 28.9359 22.7475 28.2848 23.764 27.1756C23.8757 27.0615 23.9526 26.9124 23.9841 26.7486C24.0156 26.5849 24.0001 26.4145 23.9399 26.2607C23.8989 26.1738 23.8412 26.0977 23.7708 26.0375C23.7004 25.9773 23.619 25.9345 23.5321 25.9119C23.4453 25.8893 23.3549 25.8876 23.2674 25.9068C23.1798 25.9259 23.097 25.9656 23.0248 26.023C22.912 26.1625 20.2269 29.4599 16.6531 25.8995C12.4117 21.6754 9.26537 25.8088 9.23549 25.852C9.13011 25.9629 9.05586 26.1044 9.0215 26.26C8.98713 26.4155 8.99408 26.5785 9.04152 26.7299C9.08514 26.8207 9.14619 26.9 9.22047 26.9625C9.29476 27.025 9.38052 27.0692 9.47186 27.0919C9.56321 27.1147 9.65797 27.1155 9.74964 27.0944C9.8413 27.0732 9.9277 27.0306 10.0029 26.9694L10.0033 26.9689C10.1132 26.8219 12.5413 23.5739 16.0926 27.1114Z" fill="white" stroke="white" stroke-width="0.8"/>
</svg>
