<svg width="24" height="24" viewBox="0 0 24 24" fill="none" xmlns="http://www.w3.org/2000/svg">
<path d="M11 3C11.2652 3.00004 11.5195 3.10542 11.707 3.29295C11.8945 3.48048 11.9998 3.73481 11.9998 4C11.9998 4.26519 11.8945 4.51952 11.707 4.70705C11.5195 4.89458 11.2652 4.99996 11 5H5V19H19V13L19.007 12.883C19.0371 12.6299 19.1627 12.3979 19.3582 12.2343C19.5536 12.0707 19.8042 11.9879 20.0586 12.0028C20.313 12.0178 20.5522 12.1293 20.7272 12.3146C20.9021 12.5 20.9997 12.7451 21 13V19C21 19.5304 20.7893 20.0391 20.4142 20.4142C20.0391 20.7893 19.5304 21 19 21H5C4.46957 21 3.96086 20.7893 3.58579 20.4142C3.21071 20.0391 3 19.5304 3 19V5C3 4.46957 3.21071 3.96086 3.58579 3.58579C3.96086 3.21071 4.46957 3 5 3H11ZM20.72 3.293C20.9075 3.48053 21.0128 3.73484 21.0128 4C21.0128 4.26516 20.9075 4.51947 20.72 4.707L11.528 13.9C11.3394 14.0822 11.0868 14.183 10.8246 14.1807C10.5624 14.1784 10.3116 14.0732 10.1262 13.8878C9.94077 13.7024 9.83561 13.4516 9.83333 13.1894C9.83105 12.9272 9.93184 12.6746 10.114 12.486L19.306 3.294C19.4935 3.10653 19.7478 3.00121 20.013 3.00121C20.2782 3.00121 20.5325 3.10653 20.72 3.294V3.293Z" fill="white"/>
</svg>
