<svg width="32" height="32" viewBox="0 0 32 32" fill="none" xmlns="http://www.w3.org/2000/svg">
<path d="M14.6892 16.9968H10.9992C10.807 16.9966 10.619 16.9409 10.4576 16.8366C10.2962 16.7323 10.1683 16.5837 10.0892 16.4085C10.0101 16.2334 9.98307 16.0392 10.0115 15.8491C10.0398 15.659 10.1224 15.4812 10.2492 15.3368L17.2492 7.3368C17.3974 7.16963 17.5972 7.05687 17.8168 7.01648C18.0365 6.9761 18.2634 7.01042 18.4613 7.11397C18.6592 7.21752 18.8167 7.38434 18.9088 7.58784C19.0008 7.79134 19.0221 8.0198 18.9692 8.2368L17.2792 14.9968H20.9992C21.1914 14.997 21.3794 15.0527 21.5408 15.157C21.7022 15.2613 21.8301 15.4099 21.9093 15.5851C21.9884 15.7602 22.0154 15.9544 21.987 16.1445C21.9586 16.3346 21.8761 16.5124 21.7492 16.6568L14.7492 24.6568C14.6555 24.7635 14.5402 24.849 14.4108 24.9076C14.2815 24.9662 14.1412 24.9966 13.9992 24.9968C13.845 25.0013 13.6919 24.9701 13.5517 24.9056C13.4116 24.8411 13.2883 24.7451 13.1915 24.625C13.0946 24.5049 13.0269 24.364 12.9935 24.2134C12.9602 24.0628 12.9621 23.9065 12.9992 23.7568L14.6892 16.9968ZM13.1992 14.9968H15.1992L16.0092 11.7768L13.1992 14.9968ZM16.7792 16.9968L15.9692 20.2168L18.7892 16.9968H16.7792Z" fill="white"/>
</svg>
