<svg width="32" height="32" viewBox="0 0 32 32" fill="none" xmlns="http://www.w3.org/2000/svg">
<path d="M14.0091 25C9.03821 25.0055 5.00458 20.9801 5.00001 16.0091C4.99452 11.0382 9.01992 7.00458 13.9909 7.00001C18.9609 6.99452 22.9945 11.0199 23 15.9909V16.0009C23.0027 20.9691 18.9773 24.9973 14.011 24.9991H14.0091V25ZM12.9475 22.4642L13.3928 22.4972C13.5911 22.5117 13.7902 22.4869 13.9788 22.4241C14.1674 22.3613 14.3417 22.2617 14.4917 22.1313C14.6416 22.0008 14.7643 21.8419 14.8525 21.6638C14.9408 21.4857 14.9929 21.2918 15.0059 21.0935L14.8267 18.5769C14.8916 17.7429 14.438 17.0379 13.6114 16.973H13.5227C12.6887 16.909 12.1455 17.5482 12.0815 18.3757L11.5475 20.8539C11.5333 21.0518 11.5584 21.2506 11.6213 21.4389C11.6842 21.6271 11.7837 21.801 11.9141 21.9507C12.0444 22.1003 12.2031 22.2227 12.3809 22.3109C12.5587 22.399 12.7522 22.4511 12.9502 22.4642H12.9475ZM11.9023 13.0683L9.93437 11.489C9.59014 11.2868 9.17997 11.2287 8.79311 11.3273C8.40625 11.4259 8.07399 11.6734 7.86863 12.0158L7.64276 12.3943C7.44026 12.7392 7.38237 13.1501 7.48174 13.5374C7.5811 13.9248 7.82965 14.2571 8.17314 14.4619L10.5114 15.434C11.2247 15.8546 12.0586 15.7741 12.4866 15.0609L12.536 14.9877C12.9566 14.2671 12.6338 13.4889 11.9123 13.0683H11.9032H11.9023ZM14.4453 15.2968C14.4041 15.1927 14.3425 15.0979 14.2643 15.0178C14.186 14.9378 14.0926 14.8741 13.9895 14.8304C13.8864 14.7868 13.7756 14.7642 13.6637 14.7638C13.5517 14.7634 13.4408 14.7852 13.3374 14.8281C13.234 14.871 13.1401 14.934 13.0613 15.0135C12.9825 15.0931 12.9203 15.1874 12.8783 15.2912C12.8363 15.395 12.8154 15.5061 12.8167 15.6181C12.8181 15.73 12.8417 15.8406 12.8862 15.9433C12.9275 16.0474 12.989 16.1422 13.0673 16.2223C13.1455 16.3023 13.2389 16.366 13.342 16.4097C13.4451 16.4533 13.5559 16.4759 13.6679 16.4763C13.7798 16.4767 13.8907 16.4549 13.9942 16.412C14.0976 16.3691 14.1914 16.3061 14.2702 16.2265C14.3491 16.147 14.4113 16.0526 14.4533 15.9489C14.4953 15.8451 14.5162 15.734 14.5148 15.622C14.5135 15.5101 14.4898 15.3995 14.4453 15.2968ZM20.0354 13.1744L19.8671 12.7693C19.7139 12.4002 19.4207 12.1068 19.0517 11.9534C18.6827 11.8 18.268 11.7991 17.8983 11.9508L15.7146 13.2384C14.9465 13.5502 14.5167 14.2754 14.8321 15.0453L14.8651 15.1267C15.1769 15.8948 15.999 16.0978 16.7671 15.7814L19.206 15.1578C19.3904 15.0829 19.5582 14.9724 19.6996 14.8324C19.8411 14.6924 19.9535 14.5258 20.0304 14.3422C20.1072 14.1586 20.147 13.9617 20.1474 13.7626C20.1477 13.5636 20.1087 13.3665 20.0326 13.1826L20.0354 13.1744Z" fill="#0073E6"/>
<path d="M30.8557 28.8565L14.1413 29C6.95018 29 1 23.1792 1 16.0027C1 8.82621 6.95018 3 14.1413 3C21.3314 3 27.1613 8.82076 27.1613 16.0036C27.1613 16.8899 26.9032 19.8357 26.7346 20.6748H30.8557C31.1563 20.6735 31.4451 20.7906 31.6595 21.0005C31.8738 21.2103 31.9962 21.496 32 21.7953V27.7405C31.9909 28.358 31.4839 28.8565 30.8557 28.8638V28.8565ZM13.9151 5.94216C8.35065 5.94216 3.84015 10.3781 3.84015 15.8502C3.84015 21.3222 8.35065 25.7591 13.9151 25.7591C19.4787 25.7591 23.9901 21.3222 23.9901 15.8502C23.9901 10.3781 19.4787 5.94216 13.9151 5.94216Z" fill="#0073E6"/>
</svg>
