<svg width="56" height="56" viewBox="0 0 56 56" fill="none" xmlns="http://www.w3.org/2000/svg">
<path fill-rule="evenodd" clip-rule="evenodd" d="M50.5965 4.74219H28H8.10526H5.40351C2.41923 4.74219 0 7.12843 0 10.072V45.9272C0 48.8708 2.41923 51.2571 5.40351 51.2571H28H31.193H47.8947H50.5965C53.5808 51.2571 56 48.8708 56 45.9272V10.072C56 7.12843 53.5808 4.74219 50.5965 4.74219ZM47.8947 48.3499H50.5965C51.953 48.3499 53.0526 47.2652 53.0526 45.9272V10.072C53.0526 8.73402 51.953 7.64937 50.5965 7.64937H28H8.10526H5.40351C4.04702 7.64937 2.94737 8.73402 2.94737 10.072V45.9272C2.94737 47.2652 4.04702 48.3499 5.40351 48.3499H28H31.193H47.8947Z" fill="#D9D9D9"/>
<path d="M39.0078 22.4203L38.9842 22.2808H31.156V19.4434H43.0634V22.304L34.6693 32.5838V32.7234H43.6764V35.5841H30.708V32.6071L39.0078 22.4203Z" fill="white"/>
<path d="M27.5363 35.5841H24.2352V28.3277H17.4916V35.5841H14.167V19.4434H17.4916V25.5833H24.2352V19.4434H27.5363V35.5841Z" fill="white"/>
</svg>
