<svg width="32" height="32" viewBox="0 0 32 32" fill="none" xmlns="http://www.w3.org/2000/svg">
<path d="M6.37111 24.5557C5.66022 24.5557 5.11111 25.069 5.11111 25.6321V25.8125C5.11111 26.3772 5.65867 26.8889 6.37111 26.8889H28.4444C28.857 26.8889 29.2527 27.0528 29.5444 27.3445C29.8361 27.6363 30 28.0319 30 28.4445C30 28.857 29.8361 29.2527 29.5444 29.5444C29.2527 29.8361 28.857 30 28.4444 30H6.37111C3.988 30 2 28.1443 2 25.8125V25.6321C2 23.3019 3.98644 21.4446 6.37111 21.4446H25.7891C26.0772 21.4459 26.3541 21.3336 26.56 21.1321C26.7658 20.9306 26.884 20.6562 26.8889 20.3682V20.1877C26.884 19.8997 26.7658 19.6253 26.56 19.4238C26.3541 19.2223 26.0772 19.11 25.7891 19.1113H3.55556C3.143 19.1113 2.74734 18.9474 2.45561 18.6557C2.16389 18.364 2 17.9683 2 17.5558C2 17.1432 2.16389 16.7476 2.45561 16.4559C2.74734 16.1641 3.143 16.0002 3.55556 16.0002H25.7891C26.9023 15.999 27.9705 16.439 28.7598 17.2239C29.5491 18.0089 29.9951 19.0746 30 20.1877V20.3682C29.9951 21.4813 29.5491 22.547 28.7598 23.332C27.9705 24.1169 26.9023 24.5569 25.7891 24.5557H6.37267H6.37111ZM9.21 3.4938C9.95667 5.09288 9.95667 6.94707 8.73556 8.75771C8.64222 8.89771 8.56445 9.0377 8.50222 9.18392C8.188 9.9088 8.24245 10.7457 8.54889 11.5763L8.65933 11.8485L8.706 11.9512L8.77756 12.085C8.99085 12.4381 9.05512 12.8615 8.95622 13.2621C8.85733 13.6626 8.60337 14.0074 8.25022 14.2207C7.89707 14.434 7.47366 14.4983 7.07312 14.3994C6.67258 14.3005 6.32774 14.0465 6.11444 13.6934C5.92261 13.3634 5.76121 13.0167 5.63222 12.6574C5.07222 11.1439 4.96644 9.52303 5.64467 7.95194C5.738 7.73573 5.84378 7.52573 5.96511 7.3204L6.15644 7.01552C6.70867 6.20042 6.70867 5.4911 6.39133 4.81289C6.34818 4.71628 6.29665 4.62363 6.23733 4.53601C5.97742 4.21545 5.8555 3.80478 5.89838 3.39433C5.94126 2.98389 6.14544 2.60728 6.466 2.34738C6.78656 2.08747 7.19724 1.96555 7.60769 2.00843C8.01815 2.05131 8.39476 2.25549 8.65467 2.57604C8.818 2.77826 9.01867 3.08625 9.21 3.4938ZM17.7656 3.4938C18.5122 5.09288 18.5122 6.94707 17.2911 8.75771C17.1978 8.89771 17.12 9.0377 17.0578 9.18392C16.7436 9.9088 16.798 10.7457 17.1044 11.5763L17.2149 11.8485L17.2616 11.9512L17.3331 12.085C17.5464 12.4381 17.6107 12.8615 17.5118 13.2621C17.4129 13.6626 17.1589 14.0074 16.8058 14.2207C16.4526 14.434 16.0292 14.4983 15.6287 14.3994C15.2281 14.3005 14.8833 14.0465 14.67 13.6934C14.4782 13.3634 14.3168 13.0167 14.1878 12.6574C13.6278 11.1439 13.522 9.52303 14.2002 7.95194C14.2936 7.73573 14.3993 7.52573 14.5207 7.3204L14.712 7.01552C15.2642 6.20042 15.2642 5.4911 14.9469 4.81289C14.9037 4.71628 14.8522 4.62363 14.7929 4.53601C14.533 4.21545 14.4111 3.80478 14.4539 3.39433C14.4968 2.98389 14.701 2.60728 15.0216 2.34738C15.3421 2.08747 15.7528 1.96555 16.1632 2.00843C16.5737 2.05131 16.9503 2.25549 17.2102 2.57604C17.3736 2.77826 17.5742 3.08625 17.7656 3.4938ZM26.3211 3.4938C27.0678 5.09288 27.0678 6.94707 25.8467 8.75771C25.7533 8.89771 25.6756 9.0377 25.6133 9.18392C25.2991 9.9088 25.3536 10.7457 25.66 11.5763L25.7704 11.8485L25.8171 11.9512L25.8887 12.085C26.102 12.4381 26.1662 12.8615 26.0673 13.2621C25.9684 13.6626 25.7145 14.0074 25.3613 14.2207C25.0082 14.434 24.5848 14.4983 24.1842 14.3994C23.7837 14.3005 23.4388 14.0465 23.2256 13.6934C23.0337 13.3634 22.8723 13.0167 22.7433 12.6574C22.1833 11.1439 22.0776 9.52303 22.7558 7.95194C22.8491 7.73573 22.9549 7.52573 23.0762 7.3204L23.2676 7.01552C23.8198 6.20042 23.8198 5.4911 23.5024 4.81289C23.4593 4.71628 23.4078 4.62363 23.3484 4.53601C23.0885 4.21545 22.9666 3.80478 23.0095 3.39433C23.0524 2.98389 23.2566 2.60728 23.5771 2.34738C23.7358 2.21868 23.9184 2.12251 24.1142 2.06436C24.3101 2.0062 24.5156 1.9872 24.7188 2.00843C25.1293 2.05131 25.5059 2.25549 25.7658 2.57604C25.9291 2.77826 26.1298 3.08625 26.3211 3.4938Z" fill="#0073E6"/>
</svg>
