<svg width="56" height="56" viewBox="0 0 56 56" fill="none" xmlns="http://www.w3.org/2000/svg">
<path fill-rule="evenodd" clip-rule="evenodd" d="M19.5109 7.04119C18.8905 6.64864 18.8905 5.74367 19.5109 5.35111L24.1931 2.38844C24.4595 2.21991 24.807 2.41128 24.807 2.72645V4.74256H28H50.5965C53.5808 4.74256 56 7.12881 56 10.0724V45.9276C56 48.8712 53.5808 51.2574 50.5965 51.2574H49.3483C48.5455 51.2574 47.8947 50.6066 47.8947 49.8038C47.8947 49.0011 48.5455 48.3503 49.3483 48.3503H50.5965C51.953 48.3503 53.0526 47.2656 53.0526 45.9276V10.0724C53.0526 8.7344 51.953 7.64974 50.5965 7.64974H28H24.807V9.66585C24.807 9.98103 24.4595 10.1724 24.1931 10.0039L19.5109 7.04119ZM5.40351 7.64974C4.04702 7.64974 2.94737 8.7344 2.94737 10.0724V45.9276C2.94737 47.2656 4.04702 48.3503 5.40351 48.3503H28H31.193V46.3341C31.193 46.019 31.5405 45.8276 31.8069 45.9961L36.4891 48.9588C37.1095 49.3514 37.1095 50.2563 36.4891 50.6489L31.8069 53.6116C31.5405 53.7801 31.193 53.5887 31.193 53.2735V51.2574H28H5.40351C2.41923 51.2574 0 48.8712 0 45.9276V10.0724C0 7.12881 2.41923 4.74256 5.40351 4.74256H6.65167C7.45447 4.74256 8.10526 5.39336 8.10526 6.19615C8.10526 6.99895 7.45447 7.64974 6.65167 7.64974H5.40351Z" fill="white"/>
<path d="M39.0078 22.4203L38.9842 22.2808H31.156V19.4434H43.0634V22.304L34.6693 32.5838V32.7234H43.6764V35.5841H30.708V32.6071L39.0078 22.4203Z" fill="white"/>
<path d="M27.5363 35.5841H24.2352V28.3277H17.4916V35.5841H14.167V19.4434H17.4916V25.5833H24.2352V19.4434H27.5363V35.5841Z" fill="white"/>
</svg>
