<svg width="40" height="40" viewBox="0 0 40 40" fill="none" xmlns="http://www.w3.org/2000/svg">
<path d="M25.0011 18.5373C24.2692 18.2791 23.6354 17.8002 23.1871 17.1666C22.7388 16.533 22.498 15.776 22.498 14.9998C22.498 14.2237 22.7388 13.4667 23.1871 12.8331C23.6354 12.1995 24.2692 11.7206 25.0011 11.4623V10.0123C25.0011 9.68082 25.1328 9.36288 25.3672 9.12846C25.6016 8.89404 25.9196 8.76234 26.2511 8.76234C26.5826 8.76234 26.9006 8.89404 27.135 9.12846C27.3694 9.36288 27.5011 9.68082 27.5011 10.0123V11.4623C28.233 11.7206 28.8668 12.1995 29.3151 12.8331C29.7634 13.4667 30.0042 14.2237 30.0042 14.9998C30.0042 15.776 29.7634 16.533 29.3151 17.1666C28.8668 17.8002 28.233 18.2791 27.5011 18.5373V29.9961C27.5011 30.3276 27.3694 30.6456 27.135 30.88C26.9006 31.1144 26.5826 31.2461 26.2511 31.2461C25.9196 31.2461 25.6016 31.1144 25.3672 30.88C25.1328 30.6456 25.0011 30.3276 25.0011 29.9961V18.5348V18.5373ZM12.5011 28.5373C11.7692 28.2791 11.1354 27.8002 10.6871 27.1666C10.2388 26.533 9.99805 25.776 9.99805 24.9998C9.99805 24.2237 10.2388 23.4667 10.6871 22.8331C11.1354 22.1995 11.7692 21.7206 12.5011 21.4623L12.5011 10.0023C12.5011 9.67082 12.6328 9.35288 12.8672 9.11846C13.1016 8.88404 13.4196 8.75235 13.7511 8.75235C14.0826 8.75235 14.4006 8.88404 14.635 9.11846C14.8694 9.35288 15.0011 9.67082 15.0011 10.0023V21.4636C15.7322 21.7224 16.3651 22.2013 16.8127 22.8346C17.2603 23.4679 17.5006 24.2243 17.5006 24.9998C17.5006 25.7753 17.2603 26.5318 16.8127 27.1651C16.3651 27.7983 15.7322 28.2773 15.0011 28.5361V29.9886C15.0011 30.3201 14.8694 30.6381 14.635 30.8725C14.4006 31.1069 14.0826 31.2386 13.7511 31.2386C13.4196 31.2386 13.1016 31.1069 12.8672 30.8725C12.6328 30.6381 12.5011 30.3201 12.5011 29.9886V28.5361V28.5373ZM15.0011 24.9998C15.0011 24.6683 14.8694 24.3504 14.635 24.116C14.4006 23.8815 14.0826 23.7498 13.7511 23.7498C13.4196 23.7498 13.1016 23.8815 12.8672 24.116C12.6328 24.3504 12.5011 24.6683 12.5011 24.9998C12.5011 25.3314 12.6328 25.6493 12.8672 25.8837C13.1016 26.1181 13.4196 26.2498 13.7511 26.2498C14.0826 26.2498 14.4006 26.1181 14.635 25.8837C14.8694 25.6493 15.0011 25.3314 15.0011 24.9998ZM27.5011 14.9998C27.5011 14.6683 27.3694 14.3504 27.135 14.116C26.9006 13.8815 26.5826 13.7498 26.2511 13.7498C25.9196 13.7498 25.6016 13.8815 25.3672 14.116C25.1328 14.3504 25.0011 14.6683 25.0011 14.9998C25.0011 15.3314 25.1328 15.6493 25.3672 15.8837C25.6016 16.1181 25.9196 16.2498 26.2511 16.2498C26.5826 16.2498 26.9006 16.1181 27.135 15.8837C27.3694 15.6493 27.5011 15.3314 27.5011 14.9998Z" fill="white"/>
</svg>
