<svg width="40" height="40" viewBox="0 0 40 40" fill="none" xmlns="http://www.w3.org/2000/svg">
<path d="M18.75 11.625V10C18.75 9.66848 18.8817 9.35054 19.1161 9.11612C19.3505 8.8817 19.6685 8.75 20 8.75C20.3315 8.75 20.6495 8.8817 20.8839 9.11612C21.1183 9.35054 21.25 9.66848 21.25 10V11.625C24.1025 12.2038 26.25 14.7262 26.25 17.75V23.75H28.75C29.0815 23.75 29.3995 23.8817 29.6339 24.1161C29.8683 24.3505 30 24.6685 30 25C30 25.3315 29.8683 25.6495 29.6339 25.8839C29.3995 26.1183 29.0815 26.25 28.75 26.25H11.25C10.9185 26.25 10.6005 26.1183 10.3661 25.8839C10.1317 25.6495 10 25.3315 10 25C10 24.6685 10.1317 24.3505 10.3661 24.1161C10.6005 23.8817 10.9185 23.75 11.25 23.75H13.75V17.75C13.7502 16.3093 14.2479 14.9129 15.1589 13.7968C16.07 12.6808 17.3385 11.9136 18.75 11.625ZM23.75 23.75V17.75C23.75 16.7554 23.3549 15.8016 22.6517 15.0984C21.9484 14.3951 20.9946 14 20 14C19.0054 14 18.0516 14.3951 17.3483 15.0984C16.6451 15.8016 16.25 16.7554 16.25 17.75V23.75H23.75ZM22.5 31.25H17.5C17.1685 31.25 16.8505 31.1183 16.6161 30.8839C16.3817 30.6495 16.25 30.3315 16.25 30C16.25 29.6685 16.3817 29.3505 16.6161 29.1161C16.8505 28.8817 17.1685 28.75 17.5 28.75H22.5C22.8315 28.75 23.1495 28.8817 23.3839 29.1161C23.6183 29.3505 23.75 29.6685 23.75 30C23.75 30.3315 23.6183 30.6495 23.3839 30.8839C23.1495 31.1183 22.8315 31.25 22.5 31.25Z" fill="white"/>
<circle cx="30" cy="9" r="3" fill="#FF3D00"/>
</svg>
