<svg width="32" height="32" viewBox="0 0 32 32" fill="none" xmlns="http://www.w3.org/2000/svg">
<path d="M17.6331 25C17.4608 25 17.2975 24.9401 17.1542 24.8295C16.9583 24.6789 16.8621 24.4412 16.8621 24.1927C16.8621 24.0712 16.8639 23.946 16.8675 23.8154C16.8839 23.0806 16.8984 22.3223 16.3959 21.4407C16.0548 20.8456 15.8135 20.2433 15.643 19.7118C15.0189 20.7168 14.4384 22.2389 15.1405 23.8771C15.2566 24.1474 15.2149 24.4594 15.0316 24.6898C14.8484 24.9202 14.5527 25.0308 14.2643 24.98C11.4705 24.4757 8.99419 22.4566 8.24495 20.0674C7.32156 17.1285 8.11071 14.0789 10.2568 12.301C10.5888 12.0271 11.0786 12.0634 11.3653 12.3845L12.1943 13.317C12.8202 12.4915 13.5295 10.808 12.1072 8.17933C11.9494 7.88725 11.9875 7.52805 12.2052 7.2777C12.4211 7.02735 12.7712 6.93483 13.0833 7.04731C16.5864 8.31176 18.1338 10.7989 18.7688 12.6494C18.9828 12.1577 19.1806 11.5518 19.293 10.8334C19.3348 10.5631 19.5126 10.3327 19.7629 10.2239C20.0133 10.115 20.3035 10.1422 20.5303 10.2946C21.1779 10.7336 26.1015 16.0255 23.2587 21.1577C22.0959 23.2584 20.1856 24.6118 17.8816 24.9673L17.829 24.9764C17.7619 24.9909 17.6966 25 17.6331 25ZM16.0548 17.123C16.1491 17.123 16.2435 17.1393 16.3342 17.1738C16.619 17.2809 16.8186 17.5385 16.8494 17.8414C16.8512 17.8541 17.0109 19.2964 17.7837 20.6479C18.3297 21.6039 18.4495 22.4747 18.4694 23.1967C19.9117 22.7614 21.0727 21.7999 21.8582 20.3812C23.5018 17.4133 21.7294 14.1841 20.5049 12.5859C19.9625 14.2041 19.1334 15.1093 18.9357 15.3089C18.8177 15.4286 18.6635 15.5139 18.4894 15.5411C18.1429 15.5973 17.8036 15.4177 17.6476 15.1039C17.5878 14.9823 17.5605 14.8481 17.5678 14.7175C17.5642 14.5905 17.4118 11.4176 14.3205 9.42201C15.2221 12.9142 12.9744 14.8699 12.6714 15.113C12.3395 15.3796 11.8551 15.3397 11.5721 15.0223L10.7285 14.0735C9.53299 15.4685 9.14476 17.5874 9.77246 19.5884C10.2278 21.0416 11.6065 22.3586 13.2647 23.0298C12.8492 19.8787 15.3872 17.455 15.5106 17.3389C15.6593 17.1992 15.8553 17.123 16.0548 17.123Z" fill="white"/>
</svg>
