<svg width="32" height="32" viewBox="0 0 32 32" fill="none" xmlns="http://www.w3.org/2000/svg">
<path d="M5.94016 11.1768C7.98071 7.55551 11.8964 5.36204 16.0464 5.54828C19.7552 5.71383 23.2021 7.85211 25.0428 11.094C26.9179 14.3911 26.9248 18.5504 25.0634 21.8544C23.2366 25.0963 19.7966 27.2553 16.0878 27.4347C12.0618 27.6278 8.19441 25.5861 6.11939 22.1303C5.86432 21.7027 5.62994 21.2543 5.43002 20.7922C5.25767 20.4059 4.69928 20.3162 4.36838 20.5163C3.97543 20.7508 3.92028 21.1922 4.09263 21.5785C5.93326 25.7447 10.0144 28.5866 14.5367 28.9591C18.866 29.3177 23.0918 27.2967 25.6425 23.8134C28.1656 20.3645 28.7033 15.6603 27.0626 11.7217C25.4426 7.83832 21.8854 4.8999 17.7147 4.18254C13.0476 3.38241 8.34608 5.25168 5.49206 9.02472C5.16116 9.45927 4.86473 9.92142 4.59587 10.3974C4.10642 11.2665 5.4438 12.0459 5.94016 11.1768Z" fill="white" stroke="white" stroke-width="0.6"/>
<path d="M18.0264 23.0203C16.6347 23.5325 15.1474 23.6281 13.7556 23.2662C12.6231 22.9725 11.5793 22.3989 10.7401 21.5999C8.96632 19.9268 8.16811 17.4 8.69343 15.0303C9.21193 12.7016 10.9175 10.728 13.1416 9.94263C15.4476 9.12996 18.081 9.5602 19.9367 11.1241C20.96 11.9845 21.7173 13.084 22.1198 14.3201C22.6247 15.8703 22.5701 17.5161 21.9902 19.0731C21.8469 19.4624 22.1539 19.9131 22.5292 20.0155C22.959 20.1316 23.3274 19.8721 23.4707 19.476C24.6032 16.4576 23.88 12.9816 21.6695 10.646C19.6228 8.47437 16.5118 7.55927 13.6123 8.20121C10.7879 8.82948 8.47511 10.9397 7.49269 13.644C6.46252 16.4644 7.09018 19.6604 8.97997 21.955C11.2313 24.6935 15.1201 25.711 18.4358 24.4886C18.8246 24.3452 19.0907 23.9696 18.9747 23.5462C18.8724 23.1774 18.4221 22.8701 18.0264 23.0203Z" fill="white" stroke="white" stroke-width="0.6"/>
<path d="M17.3033 13.4493C18.4993 13.9741 19.2966 15.0238 19.3409 16.1908C19.3852 17.2542 18.8536 18.3315 17.8348 18.946C16.8529 19.5399 15.6053 19.6297 14.5717 19.1601C13.4938 18.6698 12.7482 17.6547 12.6744 16.612C12.571 15.2516 13.3388 14.0363 14.7267 13.4355C15.1328 13.256 15.2362 12.7104 15.0221 12.3721C14.7784 11.9785 14.2912 11.9163 13.8851 12.0958C12.1945 12.8278 11.0945 14.4161 11.0059 16.1424C10.9173 17.7859 11.8328 19.3604 13.2871 20.2581C14.7341 21.1558 16.6241 21.2248 18.1744 20.5412C19.7839 19.8368 20.8174 18.3315 20.9798 16.7018C21.1718 14.7959 19.9758 12.9107 18.1375 12.1028C17.7315 11.9232 17.2442 11.9992 17.0006 12.379C16.7939 12.7242 16.8972 13.2698 17.3033 13.4493Z" fill="white" stroke="white" stroke-width="0.6"/>
</svg>
