<svg width="24" height="24" viewBox="0 0 24 24" fill="none" xmlns="http://www.w3.org/2000/svg">
<path d="M13.7927 10.1049C13.2361 9.81939 12.6219 9.67114 11.9993 9.67199C11.354 9.67199 10.7459 9.82767 10.2059 10.1049L6.6511 2.82617C8.19394 1.64079 10.0706 1 11.9993 1C13.9281 1 15.8047 1.64079 17.3476 2.82617L13.7927 10.1049ZM14.2101 17.2074C14.7298 16.8562 15.1625 16.3858 15.4738 15.8335C15.7851 15.2811 15.9664 14.6622 16.0035 14.0256L23.9359 14.5131C24.1668 16.474 23.7705 18.4587 22.8064 20.1693C21.8423 21.8799 20.3624 23.2241 18.589 24L14.2101 17.2074ZM7.99649 14.0256C8.03341 14.662 8.21458 15.2809 8.52564 15.8332C8.8367 16.3855 9.2691 16.856 9.78857 17.2074L5.41105 24C3.63759 23.2241 2.15774 21.8799 1.19364 20.1693C0.229533 18.4587 -0.166796 16.474 0.0641451 14.5131L7.99516 14.0256H7.99649ZM11.9993 15.8336C11.4675 15.8336 10.9574 15.6172 10.5813 15.2321C10.2052 14.8469 9.99391 14.3245 9.99391 13.7798C9.99391 13.235 10.2052 12.7126 10.5813 12.3274C10.9574 11.9423 11.4675 11.7259 11.9993 11.7259C12.5312 11.7259 13.0413 11.9423 13.4174 12.3274C13.7935 12.7126 14.0048 13.235 14.0048 13.7798C14.0048 14.3245 13.7935 14.8469 13.4174 15.2321C13.0413 15.6172 12.5312 15.8336 11.9993 15.8336Z" fill="#197CDF"/>
</svg>
