<svg width="24" height="24" viewBox="0 0 24 24" fill="none" xmlns="http://www.w3.org/2000/svg">
<path d="M5.61954 17.9719C4.24227 17.4292 3.02383 16.558 2.07392 15.4366C1.12401 14.3153 0.47248 12.9791 0.177992 11.5484C-0.116497 10.1177 -0.0446913 8.63737 0.386941 7.24075C0.818574 5.84413 1.59648 4.57507 2.6506 3.54786C3.70473 2.52065 5.00197 1.76755 6.4255 1.35637C7.84903 0.945189 9.35415 0.888849 10.8053 1.19242C12.2565 1.49599 13.6081 2.14994 14.7385 3.09538C15.8689 4.04082 16.7426 5.24805 17.2808 6.60837C18.8538 6.46411 20.4229 6.92113 21.6626 7.88462C22.9023 8.84812 23.7175 10.2442 23.9392 11.7832C24.1608 13.3223 23.7719 14.8862 22.8531 16.1507C21.9342 17.4151 20.556 18.2831 19.0042 18.5745C18.9976 16.8808 18.3295 15.2545 17.1381 14.032C15.9468 12.8095 14.3234 12.0845 12.6038 12.0069C10.8843 11.9293 9.20026 12.5052 7.90022 13.6153C6.60017 14.7254 5.78362 16.2848 5.61954 17.9707V17.9719ZM13.4147 16.6929L15.6102 15.4452L16.7283 17.351L14.5328 18.5993L16.7283 19.847L15.6102 21.7523L13.4147 20.5051V23H11.179V20.504L8.98355 21.7511L7.86541 19.8459L10.0609 18.5981L7.86541 17.351L8.98355 15.4458L11.179 16.6935V14.2004H13.4147V16.6953V16.6929Z" fill="#FACC25"/>
</svg>
