<svg width="56" height="56" viewBox="0 0 56 56" fill="none" xmlns="http://www.w3.org/2000/svg">
<g clip-path="url(#clip0_90_28047)">
<path fill-rule="evenodd" clip-rule="evenodd" d="M0.9375 7.02051C0.9375 5.22558 2.39258 3.77051 4.1875 3.77051H52.5625C54.3574 3.77051 55.8125 5.22558 55.8125 7.02051V50.7116C55.8125 52.5065 54.3574 53.9616 52.5625 53.9616H4.1875C2.39257 53.9616 0.9375 52.5065 0.9375 50.7116V7.02051ZM4.1875 6.27051C3.77329 6.27051 3.4375 6.60629 3.4375 7.02051V50.7116C3.4375 51.1258 3.77329 51.4616 4.1875 51.4616H52.5625C52.9767 51.4616 53.3125 51.1258 53.3125 50.7116V7.02051C53.3125 6.60629 52.9767 6.27051 52.5625 6.27051H4.1875Z" fill="#197CDF"/>
<path fill-rule="evenodd" clip-rule="evenodd" d="M8.51953 36.3857V45.191H23.9586V36.3857H8.51953ZM8.01953 33.8857C6.91496 33.8857 6.01953 34.7812 6.01953 35.8857V45.691C6.01953 46.7956 6.91496 47.691 8.01953 47.691H24.4586C25.5631 47.691 26.4586 46.7956 26.4586 45.691V35.8857C26.4586 34.7812 25.5631 33.8857 24.4586 33.8857H8.01953Z" fill="#197CDF"/>
<path fill-rule="evenodd" clip-rule="evenodd" d="M5.76953 11.34C5.76953 9.79094 7.02532 8.53516 8.57441 8.53516H23.9037C25.4528 8.53516 26.7086 9.79094 26.7086 11.34V27.5658C26.7086 29.1148 25.4528 30.3706 23.9037 30.3706H8.32441V30.3596C6.89243 30.2332 5.76953 29.0306 5.76953 27.5658V11.34ZM8.82441 29.8706H10.8793V27.7037H8.82441V29.8706ZM8.32441 27.7037V29.8572C7.21407 29.7375 6.34003 28.8292 6.27359 27.7037H8.32441ZM8.82441 27.2037H10.8793V25.0368H8.82441V27.2037ZM8.32441 25.0368V27.2037H6.26953V25.0368H8.32441ZM8.82441 24.5368H10.8793V22.3698H8.82441V24.5368ZM8.32441 22.3698V24.5368H6.26953V22.3698H8.32441ZM8.82441 21.8698H10.8793V19.7029H8.82441V21.8698ZM8.32441 19.7029V21.8698H6.26953V19.7029H8.32441ZM8.82441 19.2029H10.8793V17.036H8.82441V19.2029ZM8.32441 17.036V19.2029H6.26953V17.036H8.32441ZM8.82441 16.536H10.8793V14.369H8.82441V16.536ZM8.32441 14.369V16.536H6.26953V14.369H8.32441ZM8.82441 13.869H10.8793V11.7021H8.82441V13.869ZM8.32441 11.7021V13.869H6.26953V11.7021H8.32441ZM8.82441 11.2021H10.8793V9.03516H8.82441V11.2021ZM8.32441 9.04856V11.2021H6.27359C6.34003 10.0766 7.21407 9.16832 8.32441 9.04856ZM11.3793 9.03516V11.2021H13.4342V9.03516H11.3793ZM13.9342 9.03516V11.2021H15.989V9.03516H13.9342ZM16.489 9.03516V11.2021H18.5439V9.03516H16.489ZM19.0439 9.03516V11.2021H21.0988V9.03516H19.0439ZM21.5988 9.03516V11.2021H23.6537V9.03516H21.5988ZM24.1537 9.04856V11.2021H26.2045C26.1381 10.0766 25.264 9.16832 24.1537 9.04856ZM26.2086 11.7021H24.1537V13.869H26.2086V11.7021ZM26.2086 14.369H24.1537V16.536H26.2086V14.369ZM26.2086 17.036H24.1537V19.2029H26.2086V17.036ZM26.2086 19.7029H24.1537V21.8698H26.2086V19.7029ZM26.2086 22.3698H24.1537V24.5368H26.2086V22.3698ZM26.2086 25.0368H24.1537V27.2037H26.2086V25.0368ZM26.2045 27.7037H24.1537V29.8572C25.264 29.7375 26.1381 28.8292 26.2045 27.7037ZM23.6537 29.8706V27.7037H21.5988V29.8706H23.6537ZM21.0988 29.8706V27.7037H19.0439V29.8706H21.0988ZM18.5439 29.8706V27.7037H16.489V29.8706H18.5439ZM15.989 29.8706V27.7037H13.9342V29.8706H15.989ZM13.4342 29.8706V27.7037H11.3793V29.8706H13.4342ZM11.3793 27.2037H13.4342V25.0368H11.3793V27.2037ZM11.3793 24.5368H13.4342V22.3698H11.3793V24.5368ZM11.3793 21.8698H13.4342V19.7029H11.3793V21.8698ZM11.3793 19.2029H13.4342V17.036H11.3793V19.2029ZM11.3793 16.536H13.4342V14.369H11.3793V16.536ZM11.3793 13.869H13.4342V11.7021H11.3793V13.869ZM13.9342 11.7021V13.869H15.989V11.7021H13.9342ZM16.489 11.7021V13.869H18.5439V11.7021H16.489ZM19.0439 11.7021V13.869H21.0988V11.7021H19.0439ZM21.5988 11.7021V13.869H23.6537V11.7021H21.5988ZM23.6537 14.369H21.5988V16.536H23.6537V14.369ZM23.6537 17.036H21.5988V19.2029H23.6537V17.036ZM23.6537 19.7029H21.5988V21.8698H23.6537V19.7029ZM23.6537 22.3698H21.5988V24.5368H23.6537V22.3698ZM23.6537 25.0368H21.5988V27.2037H23.6537V25.0368ZM21.0988 27.2037V25.0368H19.0439V27.2037H21.0988ZM18.5439 27.2037V25.0368H16.489V27.2037H18.5439ZM15.989 27.2037V25.0368H13.9342V27.2037H15.989ZM13.9342 24.5368H15.989V22.3698H13.9342V24.5368ZM13.9342 21.8698H15.989V19.7029H13.9342V21.8698ZM13.9342 19.2029H15.989V17.036H13.9342V19.2029ZM13.9342 16.536H15.989V14.369H13.9342V16.536ZM16.489 14.369V16.536H18.5439V14.369H16.489ZM19.0439 14.369V16.536H21.0988V14.369H19.0439ZM21.0988 17.036H19.0439V19.2029H21.0988V17.036ZM21.0988 19.7029H19.0439V21.8698H21.0988V19.7029ZM21.0988 22.3698H19.0439V24.5368H21.0988V22.3698ZM18.5439 24.5368V22.3698H16.489V24.5368H18.5439ZM16.489 21.8698H18.5439V19.7029H16.489V21.8698ZM16.489 19.2029H18.5439V17.036H16.489V19.2029Z" fill="#197CDF"/>
<path fill-rule="evenodd" clip-rule="evenodd" d="M31.3184 11.1804C31.3184 9.71945 32.5027 8.53516 33.9636 8.53516H48.3347C49.7956 8.53516 50.9799 9.71945 50.9799 11.1804V27.7254C50.9799 29.1863 49.7956 30.3706 48.3347 30.3706H33.7136V30.359C32.3699 30.233 31.3184 29.102 31.3184 27.7254V11.1804ZM34.2136 29.8706H36.1088V27.7037H34.2136V29.8706ZM33.7136 27.7037V29.8562C32.6466 29.7324 31.8184 28.8256 31.8184 27.7254V27.7037H33.7136ZM34.2136 27.2037H36.1088V25.0368H34.2136V27.2037ZM33.7136 25.0368V27.2037H31.8184V25.0368H33.7136ZM34.2136 24.5368H36.1088V22.3698H34.2136V24.5368ZM33.7136 22.3698V24.5368H31.8184V22.3698H33.7136ZM34.2136 21.8698H36.1088V19.7029H34.2136V21.8698ZM33.7136 19.7029V21.8698H31.8184V19.7029H33.7136ZM34.2136 19.2029H36.1088V17.036H34.2136V19.2029ZM33.7136 17.036V19.2029H31.8184V17.036H33.7136ZM34.2136 16.536H36.1088V14.369H34.2136V16.536ZM33.7136 14.369V16.536H31.8184V14.369H33.7136ZM34.2136 13.869H36.1088V11.7021H34.2136V13.869ZM33.7136 11.7021V13.869H31.8184V11.7021H33.7136ZM34.2136 11.2021H36.1088V9.03516H34.2136V11.2021ZM33.7136 9.04957V11.2021H31.8184V11.1804C31.8184 10.0802 32.6466 9.17341 33.7136 9.04957ZM36.6088 9.03516V11.2021H38.504V9.03516H36.6088ZM39.004 9.03516V11.2021H40.8992V9.03516H39.004ZM41.3992 9.03516V11.2021H43.2943V9.03516H41.3992ZM43.7943 9.03516V11.2021H45.6895V9.03516H43.7943ZM46.1895 9.03516V11.2021H48.0847V9.03516H46.1895ZM48.5847 9.04957V11.2021H50.4799V11.1804C50.4799 10.0802 49.6517 9.17341 48.5847 9.04957ZM50.4799 11.7021H48.5847V13.869H50.4799V11.7021ZM50.4799 14.369H48.5847V16.536H50.4799V14.369ZM50.4799 17.036H48.5847V19.2029H50.4799V17.036ZM50.4799 19.7029H48.5847V21.8698H50.4799V19.7029ZM50.4799 22.3698H48.5847V24.5368H50.4799V22.3698ZM50.4799 25.0368H48.5847V27.2037H50.4799V25.0368ZM50.4799 27.7037H48.5847V29.8562C49.6517 29.7324 50.4799 28.8256 50.4799 27.7254V27.7037ZM48.0847 29.8706V27.7037H46.1895V29.8706H48.0847ZM45.6895 29.8706V27.7037H43.7943V29.8706H45.6895ZM43.2943 29.8706V27.7037H41.3992V29.8706H43.2943ZM40.8992 29.8706V27.7037H39.004V29.8706H40.8992ZM38.504 29.8706V27.7037H36.6088V29.8706H38.504ZM36.6088 27.2037H38.504V25.0368H36.6088V27.2037ZM36.6088 24.5368H38.504V22.3698H36.6088V24.5368ZM36.6088 21.8698H38.504V19.7029H36.6088V21.8698ZM36.6088 19.2029H38.504V17.036H36.6088V19.2029ZM36.6088 16.536H38.504V14.369H36.6088V16.536ZM36.6088 13.869H38.504V11.7021H36.6088V13.869ZM39.004 11.7021V13.869H40.8992V11.7021H39.004ZM41.3992 11.7021V13.869H43.2943V11.7021H41.3992ZM43.7943 11.7021V13.869H45.6895V11.7021H43.7943ZM46.1895 11.7021V13.869H48.0847V11.7021H46.1895ZM48.0847 14.369H46.1895V16.536H48.0847V14.369ZM48.0847 17.036H46.1895V19.2029H48.0847V17.036ZM48.0847 19.7029H46.1895V21.8698H48.0847V19.7029ZM48.0847 22.3698H46.1895V24.5368H48.0847V22.3698ZM48.0847 25.0368H46.1895V27.2037H48.0847V25.0368ZM45.6895 27.2037V25.0368H43.7943V27.2037H45.6895ZM43.2943 27.2037V25.0368H41.3992V27.2037H43.2943ZM40.8992 27.2037V25.0368H39.004V27.2037H40.8992ZM39.004 24.5368H40.8992V22.3698H39.004V24.5368ZM39.004 21.8698H40.8992V19.7029H39.004V21.8698ZM39.004 19.2029H40.8992V17.036H39.004V19.2029ZM39.004 16.536H40.8992V14.369H39.004V16.536ZM41.3992 14.369V16.536H43.2943V14.369H41.3992ZM43.7943 14.369V16.536H45.6895V14.369H43.7943ZM45.6895 17.036H43.7943V19.2029H45.6895V17.036ZM45.6895 19.7029H43.7943V21.8698H45.6895V19.7029ZM45.6895 22.3698H43.7943V24.5368H45.6895V22.3698ZM43.2943 24.5368V22.3698H41.3992V24.5368H43.2943ZM41.3992 21.8698H43.2943V19.7029H41.3992V21.8698ZM41.3992 19.2029H43.2943V17.036H41.3992V19.2029Z" fill="#197CDF"/>
<path fill-rule="evenodd" clip-rule="evenodd" d="M10.571 2.4L10.4288 2.62011H22.0506L21.9084 2.4H10.571ZM9.80888 0C9.46947 0 9.15323 0.172159 8.96901 0.457222L7.01723 3.47733C6.58722 4.14272 7.06486 5.02011 7.85711 5.02011H24.6223C25.4146 5.02011 25.8922 4.14273 25.4622 3.47733L23.5104 0.457223C23.3262 0.172159 23.01 0 22.6705 0H9.80888Z" fill="#197CDF"/>
<path fill-rule="evenodd" clip-rule="evenodd" d="M35.9618 2.4L35.8285 2.62011H46.4696L46.3363 2.4H35.9618ZM35.1731 0C34.8234 0 34.4991 0.182706 34.3179 0.481819L32.4881 3.50193C32.0843 4.16837 32.5641 5.02011 33.3434 5.02011H48.9548C49.734 5.02011 50.2138 4.16837 49.81 3.50193L47.9802 0.481819C47.799 0.182706 47.4747 0 47.125 0H35.1731Z" fill="#197CDF"/>
<path fill-rule="evenodd" clip-rule="evenodd" d="M34.0684 36.3857V45.191H48.2299V36.3857H34.0684ZM33.5684 33.8857C32.4638 33.8857 31.5684 34.7812 31.5684 35.8857V45.691C31.5684 46.7956 32.4638 47.691 33.5684 47.691H48.7299C49.8345 47.691 50.7299 46.7956 50.7299 45.691V35.8857C50.7299 34.7812 49.8345 33.8857 48.7299 33.8857H33.5684Z" fill="#197CDF"/>
<path fill-rule="evenodd" clip-rule="evenodd" d="M48.7299 10.7852H33.5684L33.5684 10.7852V28.1206L48.7299 28.1206V10.7852ZM33.5684 8.78516C32.4638 8.78516 31.5684 9.68059 31.5684 10.7852V28.1206C31.5684 29.2252 32.4638 30.1206 33.5684 30.1206H48.7299C49.8345 30.1206 50.7299 29.2252 50.7299 28.1206V10.7852C50.7299 9.68059 49.8345 8.78516 48.7299 8.78516H33.5684Z" fill="#197CDF"/>
<path fill-rule="evenodd" clip-rule="evenodd" d="M24.4586 10.7852H8.01953L8.01953 28.1206L24.4586 28.1206V10.7852ZM8.01953 8.78516C6.91496 8.78516 6.01953 9.68059 6.01953 10.7852V28.1206C6.01953 29.2252 6.91496 30.1206 8.01953 30.1206H24.4586C25.5631 30.1206 26.4586 29.2252 26.4586 28.1206V10.7852C26.4586 9.68059 25.5631 8.78516 24.4586 8.78516H8.01953Z" fill="#197CDF"/>
<path d="M7.5625 53.0527H25.5625C25.5625 54.6805 24.2429 56.0001 22.6151 56.0001H10.5099C8.88208 56.0001 7.5625 54.6805 7.5625 53.0527Z" fill="#197CDF"/>
<path d="M32.5625 53.0527H48.5625C48.5625 54.6805 47.2429 56.0001 45.6151 56.0001H35.5099C33.8821 56.0001 32.5625 54.6805 32.5625 53.0527Z" fill="#197CDF"/>
</g>
<defs>
<clipPath id="clip0_90_28047">
<rect width="56" height="56" fill="white"/>
</clipPath>
</defs>
</svg>
