<svg width="20" height="20" viewBox="0 0 20 20" fill="none" xmlns="http://www.w3.org/2000/svg">
<g clip-path="url(#clip0_90_26721)">
<path d="M7.61504 11.7789C7.64234 12.7667 6.64558 13.3757 5.80195 12.8612C5.57578 12.7232 5.36939 12.5874 5.2127 12.4664C4.21544 11.7371 3.44784 10.9505 2.88238 10.2621C2.81825 10.1841 2.57788 10.3236 2.63652 10.4058C3.1502 11.1265 3.94121 12.0054 4.86699 12.8082C5.45267 13.316 5.21269 14.262 4.46359 14.0625C4.24943 14.0055 4.03758 13.9319 3.83574 13.8375C2.43535 13.1812 1.14434 11.4742 0.749805 9.89217C0.329722 8.21505 0.251838 6.50479 0.237436 5.95492C0.234279 5.83439 0.288165 5.74776 0.406054 5.77302C2.04277 6.17732 4.45488 7.07966 5.89824 8.17537C7.3416 9.27107 7.5916 11.0035 7.61504 11.7789ZM19.4979 3.43123C19.6812 3.39021 19.7653 3.52465 19.7603 3.71248C19.7378 4.56756 19.6164 7.22478 18.9646 9.83162C18.3494 12.2926 16.3436 14.9449 14.1619 15.9683C13.8487 16.1151 13.5199 16.2297 13.1874 16.3183C12.0217 16.6291 11.6489 15.157 12.5604 14.3668C13.9998 13.1187 15.2303 11.7515 16.0291 10.6324C16.1196 10.5053 15.7465 10.2887 15.6475 10.4093C14.7688 11.4788 13.5763 12.7006 12.0271 13.8336C11.6382 14.1339 11.0532 14.4927 10.4604 14.8299C9.43846 15.4111 8.26937 14.6951 8.27964 13.5194C8.28197 13.2529 8.2861 12.9958 8.29277 12.7672C8.32793 11.5601 8.7166 8.86873 10.9607 7.1656C13.2049 5.46052 16.9549 4.06013 19.4979 3.43123Z" fill="white"/>
</g>
<defs>
<clipPath id="clip0_90_26721">
<rect width="20" height="20" fill="white"/>
</clipPath>
</defs>
</svg>
