<svg width="32" height="32" viewBox="0 0 32 32" fill="none" xmlns="http://www.w3.org/2000/svg">
<path d="M23.178 8.62414L24.3569 7.39388C24.7312 7.00335 25.338 7.00335 25.7122 7.39388L26.1637 7.86501C26.538 8.25555 26.538 8.88872 26.1637 9.27926L24.9848 10.5095C26.8194 12.9058 27.705 15.9441 27.4599 19.0005C27.2148 22.0569 25.8575 24.8994 23.6667 26.9441C21.476 28.9889 18.6181 30.0807 15.68 29.9953C12.7419 29.91 9.94662 28.654 7.86827 26.4852C5.78992 24.3164 4.58625 21.3996 4.50446 18.3337C4.42267 15.2678 5.46897 12.2856 7.42847 9.99951C9.38798 7.71345 12.1119 6.29709 15.0409 6.04131C17.9699 5.78552 20.8816 6.70974 23.178 8.62414ZM15.9994 27.3338C17.4701 27.3332 18.918 26.9542 20.2149 26.2304C21.5118 25.5067 22.6177 24.4605 23.4348 23.1844C24.2518 21.9083 24.7548 20.4418 24.8993 18.9145C25.0437 17.3872 24.8251 15.8464 24.2628 14.4283C23.6429 12.8667 22.6283 11.5102 21.3273 10.5034C20.0263 9.4966 18.4877 8.87734 16.8758 8.71172C15.2639 8.5461 13.6391 8.84033 12.1749 9.56302C10.7107 10.2857 9.46206 11.4097 8.56222 12.8151C7.66238 14.2204 7.14513 15.8544 7.06568 17.5425C6.98624 19.2307 7.34758 20.9096 8.11113 22.4002C8.87469 23.8908 10.0118 25.1371 11.4011 26.006C12.7904 26.8749 14.3797 27.3339 15.9994 27.3338ZM14.7217 12.3335C14.7217 11.7812 15.1507 11.3335 15.68 11.3335H16.3189C16.8482 11.3335 17.2772 11.7812 17.2772 12.3335V18.3337C17.2772 18.886 16.8482 19.3337 16.3189 19.3337H15.68C15.1507 19.3337 14.7217 18.886 14.7217 18.3337V12.3335ZM10.8883 3.00002C10.8883 2.44772 11.3174 2 11.8467 2H20.1522C20.6815 2 21.1105 2.44772 21.1105 3.00002V3.6667C21.1105 4.219 20.6815 4.66672 20.1522 4.66672H11.8467C11.3174 4.66672 10.8883 4.219 10.8883 3.6667V3.00002Z" fill="white"/>
</svg>
