<svg width="32" height="32" viewBox="0 0 32 32" fill="none" xmlns="http://www.w3.org/2000/svg">
<path d="M19.5889 28.6663C16.9063 28.6663 14.5596 27.5623 12.2889 26.4937L11.6923 26.219C9.5969 25.2432 7.5235 24.221 5.47359 23.153L5.36825 23.0977C3.60159 22.273 2.83892 20.1477 3.66825 18.3583C3.95547 17.7431 4.41184 17.2223 4.98404 16.8569C5.55624 16.4914 6.22063 16.2963 6.89959 16.2943C7.42092 16.2943 7.93025 16.4077 8.41292 16.6317L10.3123 17.5677C9.54359 15.543 8.57892 13.1877 7.76559 11.771C6.92892 10.309 6.13225 9.78301 5.43025 9.31834L5.36892 9.27701C4.87692 8.94368 4.36825 8.59901 3.97159 8.01701C3.42492 7.19834 3.28292 6.21834 3.58092 5.32368C3.72046 4.90243 3.95375 4.51834 4.26323 4.20032C4.5727 3.8823 4.9503 3.63863 5.36759 3.48768C5.65471 3.3851 5.95736 3.33278 6.26225 3.33301C7.92359 3.33301 9.70159 4.76234 10.9003 5.96168C11.3469 6.40701 11.8416 7.02368 12.4029 7.83501C12.8236 7.17501 13.4829 6.64834 14.2709 6.36168C15.3763 5.97034 16.5143 6.20568 17.3336 6.88434C17.683 6.48332 18.1294 6.17871 18.6303 5.99968C19.2816 5.7635 19.9929 5.7499 20.6529 5.96099C21.3128 6.17209 21.8842 6.59597 22.2776 7.16634C22.4249 7.07968 22.5796 7.00634 22.7396 6.94568C23.0503 6.83234 23.3783 6.77368 23.7083 6.77301C24.8976 6.77301 25.9549 7.48701 26.3403 8.54968C26.3723 8.63634 29.6303 17.5363 29.3116 20.349C28.9903 23.1157 28.2476 26.2103 23.4703 27.9417C22.1316 28.4297 20.8616 28.6663 19.5889 28.6663ZM6.89559 18.325C6.29159 18.325 5.76225 18.665 5.51359 19.2117C5.42523 19.3981 5.37494 19.6002 5.36567 19.8062C5.3564 20.0123 5.38833 20.2181 5.45959 20.4117C5.52822 20.6005 5.63371 20.7737 5.7699 20.9213C5.9061 21.069 6.07029 21.1881 6.25292 21.2717L6.27492 21.2817C6.74159 21.5303 9.19359 22.821 12.5429 24.3797L13.1416 24.6557C15.4129 25.719 17.3723 26.6363 19.5816 26.6363C20.6196 26.6363 21.6649 26.4397 22.7756 26.0343C26.4849 24.6877 27.0009 22.645 27.2903 20.1143C27.4876 18.4277 25.6383 12.5477 24.4263 9.23701C24.3343 8.98568 24.0303 8.80368 23.7036 8.80368C23.6148 8.80092 23.5262 8.81447 23.4423 8.84368C23.3409 8.88234 23.1956 8.97968 23.0716 9.08101L23.4763 10.1923C23.5676 10.4443 23.5563 10.7223 23.4443 10.9657C23.3589 11.1476 23.2218 11.3002 23.0499 11.4043C22.8781 11.5084 22.6793 11.5594 22.4786 11.5509C22.2779 11.5423 22.0842 11.4746 21.9218 11.3563C21.7595 11.2379 21.6358 11.0742 21.5663 10.8857L20.7156 8.55901C20.5183 8.01301 19.8983 7.69634 19.3223 7.90968C19.0496 8.00701 18.8269 8.20968 18.7043 8.47168C18.6433 8.60094 18.6089 8.74115 18.6032 8.88396C18.5975 9.02677 18.6205 9.16927 18.6709 9.30301L18.9976 10.203C19.0432 10.3284 19.0637 10.4616 19.0578 10.5949C19.0519 10.7282 19.0198 10.8591 18.9632 10.9799C18.9067 11.1008 18.8268 11.2094 18.7283 11.2993C18.6298 11.3893 18.5144 11.459 18.3889 11.5043C18.1356 11.5957 17.8564 11.583 17.6124 11.469C17.3685 11.3551 17.1795 11.1492 17.0869 10.8963L16.3649 8.92434C16.1643 8.38234 15.5429 8.06434 14.9689 8.27834C14.4876 8.45368 13.6729 9.03501 14.0196 9.98501L14.5443 11.4237C14.6326 11.6659 14.6255 11.9326 14.5244 12.1697C14.4232 12.4068 14.2356 12.5966 13.9996 12.7003C13.7638 12.8072 13.4959 12.8191 13.2516 12.7334C13.0074 12.6477 12.8056 12.4711 12.6883 12.2403L12.6749 12.215C11.7649 10.5363 10.4436 8.39434 9.46359 7.41634C7.82892 5.78568 6.55692 5.23434 6.06625 5.41168C5.79692 5.51168 5.59825 5.71168 5.51025 5.97568C5.41492 6.26901 5.47025 6.60634 5.66425 6.89968C5.84225 7.16034 6.14425 7.36968 6.55092 7.63634L6.56425 7.64501C7.36559 8.18368 8.46359 8.92168 9.52759 10.7717C10.4509 12.381 11.6969 15.3403 13.0369 19.1063L13.0929 19.2643C13.1624 19.4572 13.1713 19.6667 13.1184 19.8647C13.0655 20.0627 12.9533 20.2399 12.7969 20.3723C12.5023 20.6323 12.0509 20.6923 11.6836 20.5117L7.53425 18.4703C7.33562 18.3727 7.1169 18.323 6.89559 18.325Z" fill="white"/>
</svg>
