<svg width="24" height="24" viewBox="0 0 24 24" fill="none" xmlns="http://www.w3.org/2000/svg">
<path d="M12 1.25C17.937 1.25 22.75 6.063 22.75 12C22.75 12.1989 22.671 12.3897 22.5303 12.5303C22.3897 12.671 22.1989 12.75 22 12.75C21.8011 12.75 21.6103 12.671 21.4697 12.5303C21.329 12.3897 21.25 12.1989 21.25 12C21.2497 9.81448 20.4755 7.69967 19.0647 6.03046C17.654 4.36126 15.6977 3.2455 13.5428 2.88097C11.3879 2.51644 9.17355 2.92669 7.29226 4.039C5.41097 5.15131 3.98428 6.89382 3.26513 8.95763C2.54597 11.0214 2.58079 13.2732 3.36343 15.3138C4.14606 17.3544 5.62595 19.052 7.54074 20.1056C9.45553 21.1592 11.6815 21.5007 13.8241 21.0697C15.9667 20.6388 17.8875 19.463 19.246 17.751L17.455 17.75C17.2736 17.7502 17.0982 17.6847 16.9614 17.5656C16.8246 17.4464 16.7357 17.2817 16.711 17.102L16.705 17C16.705 16.8188 16.7706 16.6437 16.8898 16.5071C17.0089 16.3705 17.1734 16.2816 17.353 16.257L17.454 16.25H21.091C21.2722 16.25 21.4473 16.3156 21.5839 16.4348C21.7205 16.5539 21.8094 16.7184 21.834 16.898L21.841 17V20.636C21.8409 20.826 21.7688 21.0089 21.639 21.1478C21.5093 21.2866 21.3317 21.3711 21.1421 21.384C20.9525 21.397 20.7651 21.3375 20.6177 21.2176C20.4703 21.0977 20.3739 20.9263 20.348 20.738L20.341 20.636V18.782C19.3336 20.0224 18.062 21.0223 16.619 21.7088C15.176 22.3952 13.598 22.751 12 22.75C6.063 22.75 1.25 17.937 1.25 12C1.25 6.063 6.063 1.25 12 1.25ZM11.718 7.628C11.7785 7.49901 11.8745 7.38993 11.9948 7.31352C12.115 7.23711 12.2545 7.19653 12.397 7.19653C12.5395 7.19653 12.679 7.23711 12.7992 7.31352C12.9195 7.38993 13.0155 7.49901 13.076 7.628L16.353 14.623C16.4065 14.7373 16.4303 14.8632 16.4222 14.9891C16.4141 15.1151 16.3744 15.2369 16.3067 15.3434C16.239 15.4499 16.1455 15.5376 16.0349 15.5983C15.9243 15.6591 15.8002 15.691 15.674 15.691L9.121 15.696C8.99473 15.6961 8.87047 15.6644 8.75975 15.6037C8.64902 15.543 8.55541 15.4553 8.4876 15.3488C8.41978 15.2423 8.37995 15.1204 8.37181 14.9944C8.36366 14.8684 8.38746 14.7424 8.441 14.628L11.718 7.628ZM12.397 9.715L10.299 14.195L14.494 14.192L12.397 9.715Z" fill="#197CDF" stroke="#197CDF" stroke-width="0.4"/>
</svg>
