<svg width="24" height="24" viewBox="0 0 24 24" fill="none" xmlns="http://www.w3.org/2000/svg">
<path d="M18.0453 2.25H5.94849C3.89899 2.25 2.25 3.88249 2.25 5.91148V17.8903C2.25 19.8697 3.89899 21.5517 5.94849 21.5517H10.9487C11.3492 21.5517 11.6496 21.2544 11.6496 20.8579C11.6496 20.4614 11.3492 20.164 10.9487 20.164H5.94849C4.70002 20.164 3.64867 19.1727 3.64867 17.8872V5.91148C3.64867 4.6755 4.64995 3.68423 5.94849 3.68423H18.0484C19.2969 3.68423 20.3482 4.6755 20.3482 5.91148V12.1471C19.9477 11.8993 19.447 11.7506 18.8995 11.7506H16.5496C13.9994 11.7506 11.8999 13.7796 11.8999 16.3042V19.4236C11.8999 20.7092 12.9512 21.75 14.2498 21.75H16.4495C19.35 21.75 21.75 19.3741 21.75 16.5025V5.91148C21.7469 3.88249 20.0478 2.25 18.0453 2.25ZM16.4463 20.3622H14.2466C13.746 20.3622 13.2954 19.9657 13.2954 19.4205V16.3042C13.2954 14.5726 14.7441 13.1353 16.4964 13.1353H18.8463C19.6473 13.1353 20.295 13.7796 20.295 14.5695V16.4994C20.295 18.6306 18.5459 20.3622 16.4463 20.3622Z" fill="#197CDF"/>
<path d="M17.8187 13.8556H16.405L14.9883 17.2796H16.3531L15.4249 20.25L18.5485 16.0732H16.8905L17.8187 13.8556ZM13.428 11.2412C13.4769 11.4428 13.6723 11.594 13.8677 11.594C14.112 11.594 14.2585 11.4428 14.3074 11.2412L15.089 8.62358L15.7241 9.83001C15.8218 9.98121 15.9684 10.082 16.115 10.082H18.3103C18.5546 10.082 18.75 9.88041 18.75 9.62841C18.75 9.37642 18.5546 9.17482 18.3103 9.17482H16.4081L15.431 7.16201C15.3333 7.01081 15.1379 6.91002 14.9913 6.91002C14.7959 6.91002 14.6493 7.06121 14.6005 7.26281L14.0142 9.22522L13.2326 5.60279C13.1837 5.4012 13.0372 5.25 12.7929 5.25C12.5975 5.25 12.4021 5.3508 12.3044 5.55239L9.9136 12.3468L8.98538 10.8884C8.88767 10.7372 8.74111 10.6364 8.54569 10.6868C8.39913 10.6868 8.25257 10.7876 8.15486 10.9388L6.59765 14.3596H4.93968C4.69542 14.3596 4.5 14.5612 4.5 14.8132C4.5 15.0652 4.69542 15.2668 4.93968 15.2668H6.89078C7.08619 15.2668 7.23275 15.166 7.33046 15.0148L8.64645 12.0948L9.62353 13.654C9.72123 13.8052 9.8678 13.906 10.0632 13.8556C10.2586 13.8556 10.4052 13.7044 10.454 13.5532L12.6005 7.41401L13.428 11.2412Z" fill="#197CDF"/>
</svg>
