<svg width="24" height="24" viewBox="0 0 24 24" fill="none" xmlns="http://www.w3.org/2000/svg">
<path d="M17.7137 10.0217C17.9223 9.40996 18.0418 8.75605 18.0418 8.07402C18.0418 4.73887 15.3371 2.03418 12.002 2.03418C8.6668 2.03418 5.95977 4.73652 5.95977 8.07402C5.95977 8.75605 6.0793 9.40996 6.28789 10.0217C3.55977 10.6029 1.51367 13.0264 1.51367 15.9279C1.51367 19.2631 4.21836 21.9678 7.55352 21.9678C9.31602 21.9678 10.898 21.2084 12.002 20.0037C13.1059 21.2084 14.6879 21.9678 16.4504 21.9678C19.7855 21.9678 22.4902 19.2631 22.4902 15.9279C22.4879 13.024 20.4418 10.6029 17.7137 10.0217ZM11.9996 3.60918C14.4605 3.60918 16.4645 5.61309 16.4645 8.07402C16.4645 8.72793 16.3191 9.34668 16.066 9.90684C15.3652 11.4561 13.809 12.5389 11.9996 12.5389C10.1902 12.5389 8.63398 11.4561 7.9332 9.90684C7.68008 9.34668 7.53477 8.72793 7.53477 8.07402C7.53477 5.61074 9.53867 3.60918 11.9996 3.60918ZM7.55117 20.3904C5.09023 20.3904 3.08633 18.3865 3.08633 15.9256C3.08633 13.6428 4.80898 11.7561 7.02383 11.4959C7.88398 12.7451 9.20352 13.6545 10.7387 13.9803C10.5277 14.592 10.4059 15.2436 10.4059 15.9256C10.4059 16.9123 10.6473 17.8428 11.0668 18.6654C10.2512 19.7131 8.98086 20.3904 7.55117 20.3904ZM16.448 20.3904C15.0184 20.3904 13.748 19.7131 12.9301 18.6654C12.4027 17.9904 12.0676 17.1631 11.9996 16.2607C11.9902 16.1506 11.9832 16.0381 11.9832 15.9256C11.9832 15.8131 11.9926 15.7029 11.9996 15.5904C12.0395 15.0584 12.1824 14.5568 12.3934 14.0928C14.2941 13.9709 15.9559 12.9725 16.9754 11.4936C19.1902 11.7561 20.9129 13.6404 20.9129 15.9232C20.9129 18.3889 18.909 20.3904 16.448 20.3904Z" fill="#197CDF"/>
<path d="M18.0422 8.07349C18.0421 4.84262 15.504 2.20368 12.3132 2.04199L12.0027 2.03394C8.66763 2.03394 5.96036 4.73612 5.96021 8.07349L5.96606 8.32837C5.99181 8.91874 6.10583 9.48653 6.28833 10.0217C3.56037 10.6031 1.5144 13.0265 1.5144 15.928L1.52246 16.2385C1.67908 19.3263 4.15561 21.8029 7.24341 21.9595L7.55396 21.9675C9.31645 21.9675 10.8988 21.2079 12.0027 20.0032C13.0375 21.1325 14.4926 21.8708 16.1226 21.9587L16.4514 21.9675C19.6822 21.9674 22.3211 19.4292 22.4829 16.2385L22.491 15.928C22.4886 13.0241 20.4422 10.603 17.7141 10.0217C17.8966 9.48653 18.0114 8.91874 18.0371 8.32837L18.0422 8.07349ZM10.2566 15.925C10.2566 15.2831 10.3627 14.6685 10.5466 14.0881C9.07349 13.7336 7.8066 12.8534 6.95557 11.6565C4.85724 11.9462 3.23721 13.7493 3.23706 15.925C3.23706 18.3031 5.17373 20.2404 7.55176 20.2405V20.3899L7.32251 20.384C5.04373 20.268 3.20894 18.4338 3.09277 16.155L3.08691 15.925C3.08706 13.6424 4.80972 11.7556 7.02441 11.4954C7.88453 12.7445 9.20419 13.6539 10.7393 13.9797C10.5284 14.5914 10.4068 15.2431 10.4067 15.925L10.4177 16.2927C10.4697 17.143 10.7004 17.9453 11.0674 18.665C10.2518 19.7127 8.98145 20.3899 7.55176 20.3899V20.2405C8.90017 20.2405 10.1007 19.6154 10.8909 18.6431C10.4887 17.8225 10.2566 16.9009 10.2566 15.925ZM20.7639 15.9229C20.7638 13.7465 19.1427 11.9454 17.0432 11.6543C16.0113 13.1032 14.3725 14.0848 12.4963 14.2332C12.3109 14.661 12.1861 15.1188 12.1499 15.6013C12.1426 15.7174 12.1338 15.8194 12.1338 15.925C12.1338 15.9784 12.1354 16.0323 12.1382 16.0862L12.1499 16.248V16.2495L12.1653 16.4121C12.2569 17.2207 12.5716 17.9613 13.0493 18.5728L13.2024 18.7588C13.9941 19.6654 15.1539 20.2404 16.4485 20.2405V20.3899L16.1826 20.3826C14.9501 20.3095 13.8538 19.7321 13.0896 18.8569L12.9307 18.665C12.4364 18.0323 12.1106 17.2657 12.0159 16.429L12.0005 16.2605C11.9958 16.2053 11.9917 16.1496 11.9888 16.0935L11.9836 15.925C11.9837 15.8127 11.9935 15.7027 12.0005 15.5903C12.0403 15.0583 12.1829 14.5566 12.3938 14.0925C14.2946 13.9707 15.9563 12.972 16.9758 11.4932C19.1906 11.7557 20.9133 13.6401 20.9133 15.9229L20.9075 16.1528C20.7876 18.5118 18.8325 20.3899 16.4485 20.3899V20.2405C18.8266 20.2405 20.7639 18.3056 20.7639 15.9229ZM16.3152 8.07349C16.315 5.69557 14.3784 3.75887 12.0005 3.75879C9.62244 3.75879 7.68595 5.69323 7.68579 8.07349C7.68579 8.70471 7.82555 9.3027 8.07031 9.84448L8.20728 10.1199C8.93721 11.4691 10.3618 12.3889 12.0005 12.3889V12.5383L11.8313 12.5354C10.1504 12.4725 8.70871 11.4748 8.0022 10.0503L7.93408 9.90674C7.71261 9.41663 7.57352 8.88151 7.54224 8.31738L7.53564 8.07349C7.5358 5.61034 9.53965 3.60864 12.0005 3.60864L12.2297 3.6145C14.5845 3.73439 16.4652 5.6896 16.4653 8.07349L16.4587 8.31738C16.4275 8.88152 16.2884 9.41662 16.0669 9.90674L15.9988 10.0503C15.2687 11.5223 13.7533 12.5383 12.0005 12.5383V12.3889C13.7483 12.3889 15.2524 11.3424 15.9299 9.84448L16.0171 9.6394C16.208 9.15326 16.3152 8.62604 16.3152 8.07349ZM18.1924 8.07349C18.1924 8.71515 18.0878 9.33181 17.906 9.9126C20.6211 10.5675 22.6386 13.0086 22.6411 15.9272V15.928C22.641 19.3457 19.8692 22.1175 16.4514 22.1177C14.702 22.1177 13.1275 21.386 12.0027 20.2192C10.8778 21.386 9.30334 22.1177 7.55396 22.1177C4.13619 22.1175 1.36442 19.3457 1.36426 15.928C1.36426 13.0116 3.3815 10.5678 6.09644 9.9126C5.9147 9.33185 5.81079 8.71508 5.81079 8.07349C5.81095 4.65317 8.5849 1.88379 12.0027 1.88379C15.4206 1.88379 18.1922 4.65562 18.1924 8.07349Z" fill="#197CDF"/>
</svg>
