<svg width="24" height="24" viewBox="0 0 24 24" fill="none" xmlns="http://www.w3.org/2000/svg">
<path d="M17.6176 6.20468L18.5402 5.23805C18.8331 4.93121 19.308 4.9312 19.6009 5.23805L19.9542 5.60822C20.2471 5.91507 20.2471 6.41257 19.9542 6.71942L19.0315 7.68604C20.4673 9.56883 21.1605 11.9561 20.9686 14.3576C20.7768 16.759 19.7145 18.9924 18 20.599C16.2855 22.2056 14.0489 23.0634 11.7495 22.9963C9.45017 22.9293 7.26257 21.9424 5.63604 20.2384C4.0095 18.5343 3.0675 16.2425 3.00349 13.8336C2.93948 11.4247 3.75832 9.08152 5.29185 7.28533C6.82537 5.48914 8.95717 4.37629 11.2494 4.17531C13.5417 3.97434 15.8204 4.70051 17.6176 6.20468ZM11.9996 20.9052C13.1506 20.9046 14.2837 20.6069 15.2986 20.0382C16.3136 19.4695 17.1791 18.6475 17.8185 17.6449C18.458 16.6423 18.8516 15.49 18.9646 14.29C19.0777 13.09 18.9066 11.8793 18.4666 10.7651C17.9814 9.53816 17.1874 8.4723 16.1692 7.68124C15.151 6.89019 13.9469 6.40363 12.6854 6.2735C11.4239 6.14336 10.1523 6.37455 9.00646 6.94237C7.86056 7.51019 6.88335 8.39334 6.17913 9.49755C5.4749 10.6018 5.0701 11.8856 5.00793 13.212C4.94575 14.5384 5.22854 15.8576 5.8261 17.0288C6.42367 18.1999 7.31358 19.1792 8.40085 19.8619C9.48813 20.5446 10.7319 20.9052 11.9996 20.9052ZM10.9996 9.11921C10.9996 8.68527 11.3353 8.33348 11.7496 8.33348H12.2496C12.6638 8.33348 12.9996 8.68527 12.9996 9.11921V13.8336C12.9996 14.2675 12.6638 14.6193 12.2496 14.6193H11.7496C11.3353 14.6193 10.9996 14.2675 10.9996 13.8336V9.11921ZM7.99956 1.78573C7.99956 1.35178 8.33535 1 8.74956 1H15.2496C15.6638 1 15.9996 1.35178 15.9996 1.78573V2.30955C15.9996 2.7435 15.6638 3.09528 15.2496 3.09528H8.74956C8.33535 3.09528 7.99956 2.7435 7.99956 2.30955V1.78573Z" fill="white" fill-opacity="0.6"/>
</svg>
