<svg width="32" height="32" viewBox="0 0 32 32" fill="none" xmlns="http://www.w3.org/2000/svg">
<path d="M11 15C9.93913 15 8.92172 14.5786 8.17157 13.8284C7.42143 13.0783 7 12.0609 7 11C7 9.93913 7.42143 8.92172 8.17157 8.17157C8.92172 7.42143 9.93913 7 11 7C12.0609 7 13.0783 7.42143 13.8284 8.17157C14.5786 8.92172 15 9.93913 15 11C15 12.0609 14.5786 13.0783 13.8284 13.8284C13.0783 14.5786 12.0609 15 11 15ZM11 13C11.5304 13 12.0391 12.7893 12.4142 12.4142C12.7893 12.0391 13 11.5304 13 11C13 10.4696 12.7893 9.96086 12.4142 9.58579C12.0391 9.21071 11.5304 9 11 9C10.4696 9 9.96086 9.21071 9.58579 9.58579C9.21071 9.96086 9 10.4696 9 11C9 11.5304 9.21071 12.0391 9.58579 12.4142C9.96086 12.7893 10.4696 13 11 13ZM21 15C19.9391 15 18.9217 14.5786 18.1716 13.8284C17.4214 13.0783 17 12.0609 17 11C17 9.93913 17.4214 8.92172 18.1716 8.17157C18.9217 7.42143 19.9391 7 21 7C22.0609 7 23.0783 7.42143 23.8284 8.17157C24.5786 8.92172 25 9.93913 25 11C25 12.0609 24.5786 13.0783 23.8284 13.8284C23.0783 14.5786 22.0609 15 21 15ZM21 25C19.9391 25 18.9217 24.5786 18.1716 23.8284C17.4214 23.0783 17 22.0609 17 21C17 19.9391 17.4214 18.9217 18.1716 18.1716C18.9217 17.4214 19.9391 17 21 17C22.0609 17 23.0783 17.4214 23.8284 18.1716C24.5786 18.9217 25 19.9391 25 21C25 22.0609 24.5786 23.0783 23.8284 23.8284C23.0783 24.5786 22.0609 25 21 25ZM21 23C21.5304 23 22.0391 22.7893 22.4142 22.4142C22.7893 22.0391 23 21.5304 23 21C23 20.4696 22.7893 19.9609 22.4142 19.5858C22.0391 19.2107 21.5304 19 21 19C20.4696 19 19.9609 19.2107 19.5858 19.5858C19.2107 19.9609 19 20.4696 19 21C19 21.5304 19.2107 22.0391 19.5858 22.4142C19.9609 22.7893 20.4696 23 21 23ZM11 25C9.93913 25 8.92172 24.5786 8.17157 23.8284C7.42143 23.0783 7 22.0609 7 21C7 19.9391 7.42143 18.9217 8.17157 18.1716C8.92172 17.4214 9.93913 17 11 17C12.0609 17 13.0783 17.4214 13.8284 18.1716C14.5786 18.9217 15 19.9391 15 21C15 22.0609 14.5786 23.0783 13.8284 23.8284C13.0783 24.5786 12.0609 25 11 25ZM11 23C11.5304 23 12.0391 22.7893 12.4142 22.4142C12.7893 22.0391 13 21.5304 13 21C13 20.4696 12.7893 19.9609 12.4142 19.5858C12.0391 19.2107 11.5304 19 11 19C10.4696 19 9.96086 19.2107 9.58579 19.5858C9.21071 19.9609 9 20.4696 9 21C9 21.5304 9.21071 22.0391 9.58579 22.4142C9.96086 22.7893 10.4696 23 11 23Z" fill="white"/>
</svg>
