<svg width="24" height="24" viewBox="0 0 24 24" fill="none" xmlns="http://www.w3.org/2000/svg">
<path d="M9.13844 14.1354C9.1712 15.3208 7.97509 16.0517 6.96274 15.4342C6.69132 15.2687 6.44366 15.1057 6.25563 14.9604C5.05892 14.0853 4.1378 13.1414 3.45924 12.3154C3.38229 12.2217 3.09385 12.3891 3.16422 12.4878C3.78062 13.3526 4.72984 14.4073 5.84078 15.3706C6.5436 15.98 6.25562 17.1151 5.3567 16.8758C5.09971 16.8074 4.84549 16.719 4.60328 16.6058C2.92281 15.8183 1.37359 13.7698 0.900156 11.8714C0.396057 9.85885 0.302596 7.80652 0.285313 7.14668C0.281525 7.00205 0.346189 6.8981 0.487656 6.92841C2.45172 7.41357 5.34625 8.49638 7.07828 9.81122C8.81031 11.1261 9.11031 13.205 9.13844 14.1354ZM23.3978 4.11825C23.6179 4.06903 23.7187 4.23036 23.7128 4.45576C23.6857 5.48185 23.54 8.67052 22.758 11.7987C22.0197 14.7518 19.6127 17.9347 16.9947 19.1628C16.6188 19.339 16.2242 19.4764 15.8253 19.5828C14.4265 19.9557 13.979 18.1892 15.0728 17.2409C16.8002 15.7433 18.2767 14.1026 19.2353 12.7597C19.344 12.6072 18.8962 12.3472 18.7774 12.4919C17.723 13.7754 16.2919 15.2416 14.433 16.6011C13.9662 16.9615 13.2642 17.3921 12.5529 17.7966C11.3265 18.4941 9.92363 17.6349 9.93596 16.2241C9.93875 15.9043 9.94372 15.5957 9.95172 15.3214C9.99391 13.8729 10.4603 10.6433 13.1533 8.5995C15.8463 6.55341 20.3463 4.87294 23.3978 4.11825Z" fill="#197CDF"/>
</svg>
