<svg width="24" height="24" viewBox="0 0 24 24" fill="none" xmlns="http://www.w3.org/2000/svg">
<g clip-path="url(#clip0_90_7741)">
<path d="M11.9467 23.131C6.16809 23.131 0.0263672 21.3404 0.0263672 18.0225C0.0263672 17.0144 0.618863 15.5635 3.44476 14.3731C3.6515 14.2932 3.88126 14.2969 4.08531 14.3835C4.28935 14.4701 4.45162 14.6329 4.5377 14.8371C4.62378 15.0414 4.6269 15.2712 4.54639 15.4777C4.46589 15.6842 4.30809 15.8513 4.10648 15.9434C2.61731 16.5699 1.72927 17.347 1.72927 18.0225C1.72927 19.4443 5.61615 21.4285 11.9467 21.4285C18.2772 21.4285 22.1643 19.4448 22.1643 18.023C22.1643 17.3372 21.2558 16.5506 19.7326 15.9192C19.5253 15.8315 19.3612 15.6653 19.2759 15.457C19.1907 15.2487 19.1914 15.0152 19.2777 14.8074C19.3641 14.5995 19.5292 14.4343 19.7369 14.3478C19.9447 14.2612 20.1782 14.2604 20.3866 14.3454C23.2638 15.5406 23.8675 17.0053 23.8675 18.023C23.8672 21.3407 17.7255 23.1312 11.9467 23.1312V23.131Z" fill="#197CDF"/>
<path d="M11.7122 19.6437C7.28036 18.2779 4.30273 14.4497 4.30273 10.1202V4.19826C4.30273 3.94723 4.41345 3.70972 4.60574 3.54773C4.70029 3.46724 4.81145 3.40862 4.93128 3.37607C5.05111 3.34351 5.17665 3.33782 5.29893 3.3594C6.14432 3.50345 7.09623 3.40112 8.14021 3.07084C9.38452 2.66879 10.5006 1.94531 11.3756 0.973566C11.4535 0.888299 11.5479 0.819702 11.6531 0.771916C11.7582 0.72413 11.872 0.698145 11.9874 0.695531C12.1029 0.692918 12.2177 0.713728 12.3249 0.756707C12.4321 0.799686 12.5295 0.863941 12.6112 0.945596C13.1715 1.51082 14.3327 2.53778 15.8154 3.07248C16.7757 3.4207 17.7779 3.51533 18.6159 3.35241C18.739 3.32865 18.8659 3.3324 18.9875 3.36337C19.109 3.39435 19.2223 3.4518 19.319 3.5316C19.4158 3.61141 19.4938 3.71161 19.5473 3.82504C19.6009 3.93848 19.6287 4.06234 19.6288 4.18778V10.1197C19.6288 14.3308 16.5832 18.2452 12.2219 19.6398C12.138 19.6668 12.0504 19.6805 11.9623 19.6805C11.8776 19.6808 11.7933 19.6684 11.7122 19.6437ZM6.00564 5.1264V10.1202C6.00564 13.6153 8.38634 16.7241 11.9574 17.9331C15.4849 16.695 17.9262 13.5176 17.9262 10.1202V5.13176C17.0089 5.14751 16.0968 4.99218 15.2364 4.67375C13.9165 4.19756 12.8268 3.43142 12.0264 2.73148C11.0586 3.62262 9.90832 4.29232 8.65555 4.69403C7.72649 4.98818 6.83355 5.13689 6.00564 5.12687V5.1264Z" fill="#197CDF"/>
<path d="M12.3304 9.83684L13.7697 11.2761C13.8531 11.3589 13.9002 11.4715 13.9006 11.589C13.901 11.7065 13.8547 11.8194 13.7719 11.9028C13.6891 11.9862 13.5766 12.0332 13.459 12.0337C13.3415 12.0341 13.2287 11.9878 13.1453 11.905L11.582 10.3373C11.565 10.3232 11.55 10.3068 11.5377 10.2886C11.4777 10.2113 11.445 10.1163 11.4447 10.0184V7.80413C11.4447 7.68668 11.4914 7.57403 11.5744 7.49098C11.6575 7.40793 11.7701 7.36127 11.8876 7.36127C12.005 7.36127 12.1176 7.40793 12.2007 7.49098C12.2838 7.57403 12.3304 7.68668 12.3304 7.80413V9.83684ZM11.8876 13.0485C13.5611 13.0485 14.9176 11.6919 14.9176 10.0184C14.9176 8.34488 13.5611 6.98834 11.8876 6.98834C10.214 6.98834 8.85748 8.34488 8.85748 10.0184C8.85748 11.6919 10.214 13.0485 11.8876 13.0485ZM11.8876 14.447C9.44182 14.447 7.45898 12.4641 7.45898 10.0184C7.45898 7.57268 9.44182 5.58984 11.8876 5.58984C14.3333 5.58984 16.3161 7.57268 16.3161 10.0184C16.3161 12.4641 14.3333 14.447 11.8876 14.447Z" fill="#197CDF"/>
</g>
<defs>
<clipPath id="clip0_90_7741">
<rect width="24" height="24" fill="white"/>
</clipPath>
</defs>
</svg>

