<svg width="32" height="32" viewBox="0 0 32 32" fill="none" xmlns="http://www.w3.org/2000/svg">
<path d="M24.6804 2H7.31066C4.36778 2 2 4.34408 2 7.25751V24.4578C2 27.3001 4.36778 29.7153 7.31066 29.7153H14.4904C15.0655 29.7153 15.4968 29.2883 15.4968 28.719C15.4968 28.1496 15.0655 27.7226 14.4904 27.7226H7.31066C5.51797 27.7226 4.00834 26.2993 4.00834 24.4534V7.25751C4.00834 5.48276 5.44609 4.05941 7.31066 4.05941H24.6849C26.4775 4.05941 27.9872 5.48276 27.9872 7.25751V16.2113C27.4121 15.8554 26.6932 15.6419 25.9069 15.6419H22.5327C18.871 15.6419 15.8562 18.5554 15.8562 22.1805V26.6596C15.8562 28.5055 17.3659 30 19.2304 30H22.389C26.5539 30 30 26.5884 30 22.4651V7.25751C29.9955 4.34408 27.5558 2 24.6804 2ZM22.3845 28.0073H19.2259C18.5071 28.0073 17.8601 27.438 17.8601 26.6551V22.1805C17.8601 19.694 19.9403 17.6302 22.4564 17.6302H25.8306C26.9807 17.6302 27.9108 18.5554 27.9108 19.6896V22.4607C27.9108 25.5209 25.3992 28.0073 22.3845 28.0073Z" fill="white" stroke="white" stroke-width="0.2"/>
<path d="M24.3548 18.6654H22.3249L20.2905 23.5819H22.2503L20.9175 27.8471L25.4026 21.8496H23.022L24.3548 18.6654ZM18.0502 14.9113C18.1203 15.2008 18.4009 15.4179 18.6815 15.4179C19.0323 15.4179 19.2427 15.2008 19.3128 14.9113L20.4352 11.1527L21.3472 12.885C21.4875 13.1021 21.6979 13.2469 21.9084 13.2469H25.0607C25.4114 13.2469 25.692 12.9574 25.692 12.5955C25.692 12.2337 25.4114 11.9442 25.0607 11.9442H22.3292L20.9263 9.05405C20.786 8.83694 20.5054 8.69221 20.2949 8.69221C20.0143 8.69221 19.8039 8.90931 19.7337 9.19878L18.892 12.0166L17.7696 6.81517C17.6994 6.5257 17.489 6.30859 17.1382 6.30859C16.8576 6.30859 16.577 6.45333 16.4367 6.7428L13.0038 16.4989L11.671 14.4047C11.5307 14.1876 11.3203 14.0429 11.0397 14.1153C10.8292 14.1153 10.6188 14.26 10.4785 14.4771L8.24249 19.3891H5.86181C5.51107 19.3891 5.23047 19.6785 5.23047 20.0404C5.23047 20.4022 5.51107 20.6917 5.86181 20.6917H8.66338C8.94397 20.6917 9.15442 20.547 9.29472 20.3299L11.1844 16.137L12.5873 18.3759C12.7276 18.593 12.9381 18.7378 13.2187 18.6654C13.4993 18.6654 13.7097 18.4483 13.7799 18.2312L16.862 9.41588L18.0502 14.9113Z" fill="white" stroke="white" stroke-width="0.2"/>
</svg>
