<svg width="32" height="32" viewBox="0 0 32 32" fill="none" xmlns="http://www.w3.org/2000/svg">
<path d="M19.0693 2.7998C20.293 2.79989 21.2822 3.80073 21.2822 5.03125V5.64355H22.1895V5.23438C22.1895 4.9666 22.2953 4.70952 22.4834 4.51953C22.6717 4.32945 22.9282 4.22168 23.1953 4.22168C23.4623 4.22177 23.718 4.32953 23.9062 4.51953C24.0944 4.70953 24.2002 4.96653 24.2002 5.23438V7.77344C24.2002 8.04128 24.0944 8.29828 23.9062 8.48828C23.718 8.67828 23.4623 8.78604 23.1953 8.78613C22.9282 8.78613 22.6717 8.67836 22.4834 8.48828C22.2953 8.2983 22.1895 8.04121 22.1895 7.77344V7.66895H21.2822V19.3516C21.2822 20.5142 20.399 21.4701 19.2695 21.5723V25.6484C19.2695 26.3181 18.7305 26.8643 18.0625 26.8643H17.0039V28.3906C17.0039 28.6047 16.9191 28.81 16.7686 28.9619C16.618 29.1138 16.4139 29.2001 16.2002 29.2002H12.7959C12.5822 29.2001 12.3781 29.1138 12.2275 28.9619C12.077 28.81 11.9922 28.6047 11.9922 28.3906V26.8643H11.0186C10.3507 26.8641 9.8125 26.318 9.8125 25.6484V21.5723C8.68291 21.4702 7.7998 20.5143 7.7998 19.3516V5.03125C7.7998 3.80068 8.78895 2.7998 10.0127 2.7998H19.0693ZM13.5332 27.5811H15.5488V26.3564H13.5332V27.5811ZM11.8223 24.8389H17.2588V21.583H11.8223V24.8389ZM10.0127 4.8252C9.9596 4.8252 9.90824 4.84631 9.87012 4.88477C9.83193 4.92331 9.81055 4.97596 9.81055 5.03125V19.3516C9.81055 19.4069 9.83193 19.4595 9.87012 19.498C9.90824 19.5365 9.9596 19.5576 10.0127 19.5576H19.0693C19.1224 19.5576 19.1738 19.5365 19.2119 19.498C19.25 19.4595 19.2715 19.4068 19.2715 19.3516V5.03125C19.2715 4.976 19.25 4.9233 19.2119 4.88477C19.1738 4.84632 19.1224 4.82524 19.0693 4.8252H10.0127Z" fill="white" stroke="white" stroke-width="0.4"/>
</svg>
