<svg width="40" height="40" viewBox="0 0 40 40" fill="none" xmlns="http://www.w3.org/2000/svg">
<path d="M21.25 16.4625V17.5C21.25 17.8315 21.1183 18.1495 20.8839 18.3839C20.6495 18.6183 20.3315 18.75 20 18.75C19.6685 18.75 19.3505 18.6183 19.1161 18.3839C18.8817 18.1495 18.75 17.8315 18.75 17.5V15C18.75 14.6685 18.8817 14.3505 19.1161 14.1161C19.3505 13.8817 19.6685 13.75 20 13.75C21.6576 13.75 23.2473 14.4085 24.4194 15.5806C25.5915 16.7527 26.25 18.3424 26.25 20C26.25 20.3315 26.1183 20.6495 25.8839 20.8839C25.6495 21.1183 25.3315 21.25 25 21.25C24.6685 21.25 24.3505 21.1183 24.1161 20.8839C23.8817 20.6495 23.75 20.3315 23.75 20C23.7502 19.2242 23.5099 18.4675 23.0622 17.8339C22.6145 17.2004 21.9813 16.7213 21.25 16.4625ZM18.75 23.5375V22.5C18.75 22.1685 18.8817 21.8505 19.1161 21.6161C19.3505 21.3817 19.6685 21.25 20 21.25C20.3315 21.25 20.6495 21.3817 20.8839 21.6161C21.1183 21.8505 21.25 22.1685 21.25 22.5V25C21.25 25.3315 21.1183 25.6495 20.8839 25.8839C20.6495 26.1183 20.3315 26.25 20 26.25C18.3424 26.25 16.7527 25.5915 15.5806 24.4194C14.4085 23.2473 13.75 21.6576 13.75 20C13.75 19.6685 13.8817 19.3505 14.1161 19.1161C14.3505 18.8817 14.6685 18.75 15 18.75C15.3315 18.75 15.6495 18.8817 15.8839 19.1161C16.1183 19.3505 16.25 19.6685 16.25 20C16.25 21.6325 17.2937 23.0212 18.75 23.5375ZM20 31.25C17.0163 31.25 14.1548 30.0647 12.045 27.955C9.93526 25.8452 8.75 22.9837 8.75 20C8.75 17.0163 9.93526 14.1548 12.045 12.045C14.1548 9.93526 17.0163 8.75 20 8.75C22.9837 8.75 25.8452 9.93526 27.955 12.045C30.0647 14.1548 31.25 17.0163 31.25 20C31.25 22.9837 30.0647 25.8452 27.955 27.955C25.8452 30.0647 22.9837 31.25 20 31.25ZM20 11.25C17.6794 11.25 15.4538 12.1719 13.8128 13.8128C12.1719 15.4538 11.25 17.6794 11.25 20C11.25 22.3206 12.1719 24.5462 13.8128 26.1872C15.4538 27.8281 17.6794 28.75 20 28.75C22.3206 28.75 24.5462 27.8281 26.1872 26.1872C27.8281 24.5462 28.75 22.3206 28.75 20C28.75 17.6794 27.8281 15.4538 26.1872 13.8128C24.5462 12.1719 22.3206 11.25 20 11.25Z" fill="white"/>
</svg>
