<svg width="20" height="20" viewBox="0 0 20 20" fill="none" xmlns="http://www.w3.org/2000/svg">
<path d="M17.2148 10.9351L17.2051 10.8961C16.7676 9.37066 16.0371 8.07574 15.0332 7.05035C14.5957 6.60308 14.0996 6.20269 13.5586 5.86285C13.4492 5.79254 13.414 5.64996 13.4805 5.53472C13.7441 5.07769 13.8496 4.57379 13.8047 3.99371C13.7949 3.88043 13.7715 3.77886 13.7324 3.68121C13.4336 2.9234 12.7402 2.37652 11.7246 2.09722C11.0762 1.91949 10.4394 1.88824 10.1133 1.88629C10.1074 1.88629 10.0996 1.88629 10.0918 1.88433C10.0683 1.88238 10.0449 1.88043 10.0195 1.88043C9.31053 1.87066 6.9492 1.97418 6.27342 3.69488C6.23631 3.79254 6.21483 3.89215 6.20506 3.99371C6.16014 4.57379 6.26756 5.07965 6.53123 5.53668C6.59764 5.65191 6.56248 5.79644 6.45311 5.8648C5.91209 6.2066 5.416 6.60894 4.97655 7.05816C3.97069 8.08941 3.23631 9.39215 2.79686 10.9351L2.78905 10.9664C2.40233 12.7652 2.77733 14.4703 3.84373 15.7671C4.72069 16.8316 6.46092 18.1031 9.77537 18.1031C9.84959 18.1031 9.92772 18.1031 9.99803 18.1011C10.0762 18.1031 10.1543 18.1031 10.2285 18.1031C13.543 18.1031 15.2851 16.8336 16.1601 15.7691C17.2344 14.4722 17.6094 12.7554 17.2148 10.9351ZM8.22069 5.96832C8.24608 5.76324 8.16405 5.56402 8.00584 5.43316C7.54686 5.05816 7.35741 4.64801 7.39452 4.10699C7.78319 3.16363 9.4453 3.07769 9.9492 3.07379H9.96873C9.99217 3.07574 10.0156 3.07769 10.0644 3.07769C10.4199 3.07769 12.2051 3.12652 12.6152 4.10113C12.6523 4.64801 12.4629 5.05816 12.0058 5.43316C11.8457 5.56402 11.7656 5.76324 11.791 5.96832C11.8164 6.1734 11.9414 6.34722 12.1289 6.43511C14.082 7.36285 15.4004 8.96441 16.0488 11.1968L16.0547 11.2183C16.3594 12.6617 16.0703 14.0074 15.2422 15.0093C14.5293 15.8765 13.0801 16.9097 10.2305 16.9097C10.1601 16.9097 10.0879 16.9097 10.0156 16.9078H9.96678C9.90428 16.9097 9.84178 16.9117 9.77537 16.9097C6.92772 16.9097 5.4785 15.8765 4.76561 15.0093C3.94334 14.0074 3.65233 12.6714 3.95116 11.2496L3.95702 11.2281C4.60741 8.98004 5.92967 7.36871 7.88475 6.43902C8.0703 6.34918 8.19725 6.1734 8.22069 5.96832Z" fill="white" fill-opacity="0.8"/>
<path d="M11.9355 12.8298H10.4941V14.5388C10.4941 14.8063 10.2773 15.027 10.0059 15.027C9.73633 15.027 9.51758 14.8102 9.51758 14.5388V12.8298H8.07617C7.80859 12.8298 7.58789 12.613 7.58789 12.3415C7.58789 12.072 7.80469 11.8532 8.07617 11.8532H9.51758V11.2438H8.23047C7.9707 11.2341 7.76367 11.0173 7.76367 10.7556C7.76367 10.4938 7.9707 10.279 8.23047 10.2673H9.06445L8.25391 9.39423C8.07617 9.19501 8.0918 8.89423 8.28516 8.71259C8.47852 8.53095 8.78125 8.54072 8.9668 8.73017L10.0039 9.84736L11.041 8.73017C11.2266 8.54072 11.5293 8.5329 11.7227 8.71259C11.916 8.89423 11.9316 9.19697 11.7539 9.39423L10.9414 10.2673H11.7773C12.0449 10.2673 12.2656 10.486 12.2656 10.7556C12.2656 11.0231 12.0469 11.2438 11.7773 11.2438H10.4902V11.8532H11.9336C12.2012 11.8532 12.4219 12.07 12.4219 12.3415C12.4238 12.611 12.207 12.8298 11.9355 12.8298Z" fill="white" fill-opacity="0.8"/>
</svg>
