<svg width="24" height="24" viewBox="0 0 24 24" fill="none" xmlns="http://www.w3.org/2000/svg">
<path d="M14.25 12.75H12C11.8011 12.75 11.6103 12.671 11.4697 12.5303C11.329 12.3897 11.25 12.1989 11.25 12V9C11.25 8.80109 11.329 8.61032 11.4697 8.46967C11.6103 8.32902 11.8011 8.25 12 8.25C12.1989 8.25 12.3897 8.32902 12.5303 8.46967C12.671 8.61032 12.75 8.80109 12.75 9V11.25H14.25C14.4489 11.25 14.6397 11.329 14.7803 11.4697C14.921 11.6103 15 11.8011 15 12C15 12.1989 14.921 12.3897 14.7803 12.5303C14.6397 12.671 14.4489 12.75 14.25 12.75ZM12 18.75C10.2098 18.75 8.4929 18.0388 7.22703 16.773C5.96116 15.5071 5.25 13.7902 5.25 12C5.25 10.2098 5.96116 8.4929 7.22703 7.22703C8.4929 5.96116 10.2098 5.25 12 5.25C13.7902 5.25 15.5071 5.96116 16.773 7.22703C18.0388 8.4929 18.75 10.2098 18.75 12C18.75 13.7902 18.0388 15.5071 16.773 16.773C15.5071 18.0388 13.7902 18.75 12 18.75ZM12 6.75C10.6076 6.75 9.27226 7.30312 8.28769 8.28769C7.30312 9.27226 6.75 10.6076 6.75 12C6.75 13.3924 7.30312 14.7277 8.28769 15.7123C9.27226 16.6969 10.6076 17.25 12 17.25C13.3924 17.25 14.7277 16.6969 15.7123 15.7123C16.6969 14.7277 17.25 13.3924 17.25 12C17.25 10.6076 16.6969 9.27226 15.7123 8.28769C14.7277 7.30312 13.3924 6.75 12 6.75Z" fill="#197CDF"/>
</svg>
