<svg width="32" height="32" viewBox="0 0 32 32" fill="none" xmlns="http://www.w3.org/2000/svg">
<path d="M16 2C14.1435 2 12.363 2.7375 11.0503 4.05025C9.7375 5.36301 9 7.14348 9 9V23C9 24.8565 9.7375 26.637 11.0503 27.9497C12.363 29.2625 14.1435 30 16 30C17.8565 30 19.637 29.2625 20.9497 27.9497C22.2625 26.637 23 24.8565 23 23V9C23 7.14348 22.2625 5.36301 20.9497 4.05025C19.637 2.7375 17.8565 2 16 2ZM20.6667 12.5V13.6667C20.3572 13.6667 20.0605 13.7896 19.8417 14.0084C19.6229 14.2272 19.5 14.5239 19.5 14.8333C19.5 15.1428 19.6229 15.4395 19.8417 15.6583C20.0605 15.8771 20.3572 16 20.6667 16V17.1667C20.3572 17.1667 20.0605 17.2896 19.8417 17.5084C19.6229 17.7272 19.5 18.0239 19.5 18.3333C19.5 18.6428 19.6229 18.9395 19.8417 19.1583C20.0605 19.3771 20.3572 19.5 20.6667 19.5V23C20.6667 24.2377 20.175 25.4247 19.2998 26.2998C18.4247 27.175 17.2377 27.6667 16 27.6667C14.7623 27.6667 13.5753 27.175 12.7002 26.2998C11.825 25.4247 11.3333 24.2377 11.3333 23V19.5C11.6428 19.5 11.9395 19.3771 12.1583 19.1583C12.3771 18.9395 12.5 18.6428 12.5 18.3333C12.5 18.0239 12.3771 17.7272 12.1583 17.5084C11.9395 17.2896 11.6428 17.1667 11.3333 17.1667V16C11.6428 16 11.9395 15.8771 12.1583 15.6583C12.3771 15.4395 12.5 15.1428 12.5 14.8333C12.5 14.5239 12.3771 14.2272 12.1583 14.0084C11.9395 13.7896 11.6428 13.6667 11.3333 13.6667V12.5C11.6428 12.5 11.9395 12.3771 12.1583 12.1583C12.3771 11.9395 12.5 11.6428 12.5 11.3333C12.5 11.0239 12.3771 10.7272 12.1583 10.5084C11.9395 10.2896 11.6428 10.1667 11.3333 10.1667V9C11.3333 7.76232 11.825 6.57534 12.7002 5.70017C13.5753 4.825 14.7623 4.33333 16 4.33333C17.2377 4.33333 18.4247 4.825 19.2998 5.70017C20.175 6.57534 20.6667 7.76232 20.6667 9V10.1667C20.3572 10.1667 20.0605 10.2896 19.8417 10.5084C19.6229 10.7272 19.5 11.0239 19.5 11.3333C19.5 11.6428 19.6229 11.9395 19.8417 12.1583C20.0605 12.3771 20.3572 12.5 20.6667 12.5ZM14.8333 20.9793C14.3885 21.2362 14.0408 21.6326 13.8443 22.1071C13.6477 22.5817 13.6132 23.1078 13.7462 23.604C13.8791 24.1001 14.1721 24.5385 14.5796 24.8512C14.9871 25.1639 15.4864 25.3334 16 25.3334C16.5136 25.3334 17.0129 25.1639 17.4204 24.8512C17.8279 24.5385 18.1209 24.1001 18.2538 23.604C18.3868 23.1078 18.3523 22.5817 18.1557 22.1071C17.9592 21.6326 17.6115 21.2362 17.1667 20.9793V9C17.1667 8.69058 17.0438 8.39383 16.825 8.17504C16.6062 7.95625 16.3094 7.83333 16 7.83333C15.6906 7.83333 15.3938 7.95625 15.175 8.17504C14.9562 8.39383 14.8333 8.69058 14.8333 9V20.9793Z" fill="white"/>
</svg>
