<svg width="32" height="32" viewBox="0 0 32 32" fill="none" xmlns="http://www.w3.org/2000/svg">
<path d="M11.9979 23.5C11.7327 23.5 11.4783 23.3947 11.2908 23.2072C11.1032 23.0196 10.9979 22.7653 10.9979 22.5C10.9979 22.2348 11.1032 21.9805 11.2908 21.7929C11.4783 21.6054 11.7327 21.5 11.9979 21.5C12.2631 21.5 12.5174 21.3947 12.705 21.2072C12.8925 21.0196 12.9979 20.7653 12.9979 20.5C12.9979 20.2348 13.1032 19.9805 13.2908 19.7929C13.4783 19.6054 13.7327 19.5 13.9979 19.5C14.2631 19.5 14.5174 19.6054 14.705 19.7929C14.8925 19.9805 14.9979 20.2348 14.9979 20.5C14.9979 21.2957 14.6818 22.0588 14.1192 22.6214C13.5566 23.184 12.7935 23.5 11.9979 23.5ZM11.9679 8.96004C11.8193 8.95833 11.6722 8.98974 11.5372 9.05202C11.4023 9.11429 11.283 9.20585 11.1879 9.32004C10.0179 10.68 8.28787 12.94 6.98787 14.62C4.44787 17.88 4.22787 22.04 6.98787 24.85C7.64041 25.5229 8.42144 26.0578 9.28462 26.4232C10.1478 26.7885 11.0756 26.9767 12.0129 26.9767C12.9502 26.9767 13.8779 26.7885 14.7411 26.4232C15.6043 26.0578 16.3853 25.5229 17.0379 24.85C19.7979 22.04 19.4979 17.73 17.0379 14.62C15.6679 12.89 13.9079 10.62 12.7479 9.32004C12.6523 9.21701 12.5362 9.13526 12.407 9.08013C12.2777 9.02499 12.1383 8.9977 11.9979 9.00004L11.9679 8.96004ZM11.9779 11.54C12.9779 12.8 14.3179 14.44 15.3979 15.81L15.4679 15.9C17.0979 17.96 17.8379 21.22 15.6079 23.49C15.1414 23.974 14.5823 24.3589 13.9637 24.6218C13.3452 24.8847 12.68 25.0202 12.0079 25.0202C11.3358 25.0202 10.6706 24.8847 10.052 24.6218C9.43348 24.3589 8.87429 23.974 8.40787 23.49C6.40787 21.49 6.50787 18.49 8.55787 15.89L9.29787 14.89C10.1779 13.75 11.1479 12.5 11.9679 11.5L11.9779 11.54ZM22.9379 5.00004C22.8529 4.999 22.7687 5.01633 22.691 5.05085C22.6133 5.08537 22.544 5.13626 22.4879 5.20004C21.8179 5.96004 20.8279 7.20004 20.0879 8.14004C18.6379 9.95004 18.5079 12.26 20.0879 13.82C20.8543 14.5713 21.8847 14.9921 22.9579 14.9921C24.0311 14.9921 25.0615 14.5713 25.8279 13.82C26.5455 13.0485 26.9445 12.0338 26.9445 10.98C26.9445 9.9263 26.5455 8.91163 25.8279 8.14004C25.0479 7.14004 24.0379 5.94004 23.3779 5.20004C23.2808 5.08801 23.1452 5.01661 22.9979 5.00004H22.9379ZM22.9979 7.81004L24.2879 9.39004C24.6807 9.78283 24.9127 10.3081 24.9386 10.8629C24.9645 11.4178 24.7824 11.9624 24.4279 12.39C24.0358 12.7718 23.5101 12.9855 22.9629 12.9855C22.4156 12.9855 21.89 12.7718 21.4979 12.39C21.1335 11.9661 20.9458 11.4184 20.9737 10.8601C21.0017 10.3018 21.243 9.7755 21.6479 9.39004L22.0679 8.86004L22.9379 7.77004L22.9979 7.81004Z" fill="white"/>
</svg>
