<svg width="32" height="32" viewBox="0 0 32 32" fill="none" xmlns="http://www.w3.org/2000/svg">
<path d="M15.9963 10.4785C12.5789 10.4785 9.81104 13.173 9.81104 16.4991C9.81104 19.822 12.5789 22.5197 15.9963 22.5197C19.4138 22.5197 22.1817 19.8252 22.1817 16.4991C22.1817 13.1763 19.4138 10.4785 15.9963 10.4785ZM15.9963 20.0523C13.9797 20.0523 12.3454 18.4599 12.3454 16.4991C12.3454 14.535 13.9797 12.946 15.9963 12.946C18.013 12.946 19.6473 14.5383 19.6473 16.4991C19.6473 18.4632 18.013 20.0523 15.9963 20.0523Z" fill="white"/>
<path d="M14.3584 16.4986C14.3584 17.3803 15.0927 18.0909 15.9961 18.0909C16.8995 18.0909 17.6338 17.377 17.6338 16.4986C17.6338 15.6169 16.8995 14.9062 15.9961 14.9062C15.0927 14.9062 14.3584 15.6169 14.3584 16.4986Z" fill="white"/>
<path d="M27.0273 5H15.9966C9.46954 5 4.18089 10.1488 4.18089 16.4984C4.17751 18.367 4.64445 20.2094 5.5445 21.8643H4.96928C3.88313 21.8643 3 22.7229 3 23.7823V26.082C3 27.1413 3.88313 28 4.96928 28H16C22.527 28 27.8191 22.8512 27.8191 16.5016C27.8225 14.633 27.3521 12.7906 26.4555 11.1357H27.0307C27.5518 11.1357 28.0525 10.9351 28.4247 10.5732C28.7936 10.2146 29.0033 9.72765 29 9.21771V6.91804C28.9966 5.85868 28.1134 5 27.0273 5ZM26.7972 9.36576H22.5541L23.7113 10.866C24.9667 12.4879 25.6434 14.4652 25.64 16.4951C25.64 21.6767 21.3225 25.878 15.9966 25.878H5.19599V23.6244H9.43909L8.28188 22.1242C7.02654 20.5022 6.34981 18.525 6.3532 16.4951C6.3532 11.3134 10.6707 7.11214 15.9966 7.11214H26.7972V9.36576Z" fill="white"/>
</svg>
