<svg width="40" height="40" viewBox="0 0 40 40" fill="none" xmlns="http://www.w3.org/2000/svg">
<path d="M19.5837 8.88741C20.4835 8.88741 21.3465 9.23846 21.9828 9.86335C22.6191 10.4882 22.9765 11.3358 22.9765 12.2195V20.1165C22.976 20.6977 23.2074 21.256 23.6212 21.6715C24.4009 22.4524 24.9285 23.4421 25.1377 24.5164C25.347 25.5906 25.2285 26.7017 24.7973 27.7101C24.3661 28.7185 23.6413 29.5794 22.7137 30.1848C21.7862 30.7903 20.6973 31.1132 19.5837 31.1132C18.47 31.1132 17.3811 30.7903 16.4536 30.1848C15.5261 29.5794 14.8012 28.7185 14.37 27.7101C13.9388 26.7017 13.8204 25.5906 14.0296 24.5164C14.2388 23.4421 14.7664 22.4524 15.5462 21.6715C15.9599 21.256 16.1913 20.6977 16.1908 20.1165V12.2195C16.1908 11.3358 16.5483 10.4882 17.1845 9.86335C17.8208 9.23846 18.6838 8.88741 19.5837 8.88741ZM19.5837 6.66602C18.0839 6.66602 16.6456 7.25111 15.5851 8.29259C14.5247 9.33407 13.9289 10.7466 13.9289 12.2195V20.1165C12.8379 21.2101 12.0999 22.5956 11.8075 24.0994C11.5151 25.6032 11.6813 27.1583 12.2852 28.5697C12.8891 29.9812 13.9038 31.1861 15.2022 32.0334C16.5006 32.8807 18.0248 33.3327 19.5837 33.3327C21.1425 33.3327 22.6667 32.8807 23.9651 32.0334C25.2635 31.1861 26.2782 29.9812 26.8821 28.5697C27.486 27.1583 27.6522 25.6032 27.3598 24.0994C27.0674 22.5956 26.3294 21.2101 25.2384 20.1165V12.2195C25.2384 10.7466 24.6426 9.33407 23.5822 8.29259C22.5217 7.25111 21.0834 6.66602 19.5837 6.66602ZM20.7146 23.6241C21.1458 23.8686 21.4828 24.246 21.6734 24.6978C21.8639 25.1496 21.8974 25.6505 21.7685 26.1228C21.6396 26.5952 21.3556 27.0126 20.9606 27.3102C20.5656 27.6079 20.0816 27.7693 19.5837 27.7693C19.0857 27.7693 18.6017 27.6079 18.2067 27.3102C17.8117 27.0126 17.5277 26.5952 17.3988 26.1228C17.27 25.6505 17.3034 25.1496 17.4939 24.6978C17.6845 24.246 18.0215 23.8686 18.4527 23.6241V12.2195C18.4527 11.9249 18.5719 11.6424 18.784 11.4341C18.996 11.2258 19.2837 11.1088 19.5837 11.1088C19.8836 11.1088 20.1713 11.2258 20.3834 11.4341C20.5955 11.6424 20.7146 11.9249 20.7146 12.2195V23.6241Z" fill="white"/>
</svg>
