<svg width="40" height="40" viewBox="0 0 40 40" fill="none" xmlns="http://www.w3.org/2000/svg">
<path d="M30 31.25H10C9.66848 31.25 9.35054 31.1183 9.11612 30.8839C8.8817 30.6495 8.75 30.3315 8.75 30V10C8.75 9.66848 8.8817 9.35054 9.11612 9.11612C9.35054 8.8817 9.66848 8.75 10 8.75C10.3315 8.75 10.6495 8.8817 10.8839 9.11612C11.1183 9.35054 11.25 9.66848 11.25 10V28.75H30C30.3315 28.75 30.6495 28.8817 30.8839 29.1161C31.1183 29.3505 31.25 29.6685 31.25 30C31.25 30.3315 31.1183 30.6495 30.8839 30.8839C30.6495 31.1183 30.3315 31.25 30 31.25ZM15 26.25C14.6685 26.25 14.3505 26.1183 14.1161 25.8839C13.8817 25.6495 13.75 25.3315 13.75 25V18.75C13.75 18.4185 13.8817 18.1005 14.1161 17.8661C14.3505 17.6317 14.6685 17.5 15 17.5C15.3315 17.5 15.6495 17.6317 15.8839 17.8661C16.1183 18.1005 16.25 18.4185 16.25 18.75V25C16.25 25.3315 16.1183 25.6495 15.8839 25.8839C15.6495 26.1183 15.3315 26.25 15 26.25ZM20 26.25C19.6685 26.25 19.3505 26.1183 19.1161 25.8839C18.8817 25.6495 18.75 25.3315 18.75 25V22.5C18.75 22.1685 18.8817 21.8505 19.1161 21.6161C19.3505 21.3817 19.6685 21.25 20 21.25C20.3315 21.25 20.6495 21.3817 20.8839 21.6161C21.1183 21.8505 21.25 22.1685 21.25 22.5V25C21.25 25.3315 21.1183 25.6495 20.8839 25.8839C20.6495 26.1183 20.3315 26.25 20 26.25ZM25 26.25C24.6685 26.25 24.3505 26.1183 24.1161 25.8839C23.8817 25.6495 23.75 25.3315 23.75 25V18.75C23.75 18.4185 23.8817 18.1005 24.1161 17.8661C24.3505 17.6317 24.6685 17.5 25 17.5C25.3315 17.5 25.6495 17.6317 25.8839 17.8661C26.1183 18.1005 26.25 18.4185 26.25 18.75V25C26.25 25.3315 26.1183 25.6495 25.8839 25.8839C25.6495 26.1183 25.3315 26.25 25 26.25ZM30 26.25C29.6685 26.25 29.3505 26.1183 29.1161 25.8839C28.8817 25.6495 28.75 25.3315 28.75 25V20C28.75 19.6685 28.8817 19.3505 29.1161 19.1161C29.3505 18.8817 29.6685 18.75 30 18.75C30.3315 18.75 30.6495 18.8817 30.8839 19.1161C31.1183 19.3505 31.25 19.6685 31.25 20V25C31.25 25.3315 31.1183 25.6495 30.8839 25.8839C30.6495 26.1183 30.3315 26.25 30 26.25ZM20 17.5C19.8355 17.501 19.6724 17.4694 19.5201 17.4072C19.3678 17.345 19.2293 17.2534 19.1125 17.1375L14.1125 12.1375C13.9816 12.0254 13.8754 11.8875 13.8003 11.7325C13.7253 11.5774 13.6832 11.4085 13.6765 11.2363C13.6699 11.0642 13.6989 10.8925 13.7617 10.7321C13.8245 10.5717 13.9199 10.426 14.0417 10.3042C14.1635 10.1824 14.3092 10.087 14.4696 10.0242C14.63 9.96136 14.8017 9.93235 14.9738 9.939C15.146 9.94565 15.3149 9.98781 15.47 10.0628C15.625 10.1379 15.7629 10.2441 15.875 10.375L19.9875 14.4875L25.35 9.125C25.5842 8.89219 25.901 8.76151 26.2313 8.76151C26.5615 8.76151 26.8783 8.89219 27.1125 9.125L30.8625 12.875C31.0673 13.1141 31.1743 13.4217 31.1621 13.7363C31.15 14.0509 31.0196 14.3493 30.797 14.572C30.5743 14.7946 30.2759 14.925 29.9613 14.9371C29.6467 14.9493 29.3391 14.8423 29.1 14.6375L26.25 11.7625L20.8875 17.125C20.7717 17.2431 20.6337 17.3371 20.4813 17.4014C20.329 17.4658 20.1654 17.4993 20 17.5Z" fill="white"/>
</svg>
