<svg width="32" height="32" viewBox="0 0 32 32" fill="none" xmlns="http://www.w3.org/2000/svg">
<path d="M22.5455 4H9.45455C8.00791 4 6.62053 4.57467 5.5976 5.5976C4.57467 6.62053 4 8.00791 4 9.45455C4 10.9012 4.57467 12.2886 5.5976 13.3115C6.62053 14.3344 8.00791 14.9091 9.45455 14.9091H22.5455C23.2618 14.9091 23.971 14.768 24.6328 14.4939C25.2946 14.2198 25.8959 13.818 26.4024 13.3115C26.9089 12.805 27.3107 12.2037 27.5848 11.5419C27.8589 10.8801 28 10.1708 28 9.45455C28 8.73824 27.8589 8.02896 27.5848 7.36718C27.3107 6.70541 26.9089 6.1041 26.4024 5.5976C25.8959 5.0911 25.2946 4.68932 24.6328 4.4152C23.971 4.14109 23.2618 4 22.5455 4ZM22.5455 6.18182C23.4134 6.18182 24.2459 6.52662 24.8596 7.14038C25.4734 7.75413 25.8182 8.58656 25.8182 9.45455C25.8182 10.3225 25.4734 11.155 24.8596 11.7687C24.2459 12.3825 23.4134 12.7273 22.5455 12.7273H9.45455C8.58656 12.7273 7.75413 12.3825 7.14038 11.7687C6.52662 11.155 6.18182 10.3225 6.18182 9.45455C6.18182 8.58656 6.52662 7.75413 7.14038 7.14038C7.75413 6.52662 8.58656 6.18182 9.45455 6.18182H22.5455ZM22.5455 17.0909H9.45455C8.73825 17.0909 8.02896 17.232 7.36718 17.5061C6.70541 17.7802 6.1041 18.182 5.5976 18.6885C5.0911 19.195 4.68932 19.7963 4.4152 20.4581C4.14109 21.1199 4 21.8292 4 22.5455C4 23.2618 4.14109 23.971 4.4152 24.6328C4.68932 25.2946 5.0911 25.8959 5.5976 26.4024C6.1041 26.9089 6.70541 27.3107 7.36718 27.5848C8.02896 27.8589 8.73825 28 9.45455 28H22.5455C23.2618 28 23.971 27.8589 24.6328 27.5848C25.2946 27.3107 25.8959 26.9089 26.4024 26.4024C26.9089 25.8959 27.3107 25.2946 27.5848 24.6328C27.8589 23.971 28 23.2618 28 22.5455C28 21.8292 27.8589 21.1199 27.5848 20.4581C27.3107 19.7963 26.9089 19.195 26.4024 18.6885C25.8959 18.182 25.2946 17.7802 24.6328 17.5061C23.971 17.232 23.2618 17.0909 22.5455 17.0909ZM22.5455 19.2727C23.4134 19.2727 24.2459 19.6175 24.8596 20.2313C25.4734 20.845 25.8182 21.6775 25.8182 22.5455C25.8182 23.4134 25.4734 24.2459 24.8596 24.8596C24.2459 25.4734 23.4134 25.8182 22.5455 25.8182H9.45455C8.58656 25.8182 7.75413 25.4734 7.14038 24.8596C6.52662 24.2459 6.18182 23.4134 6.18182 22.5455C6.18182 21.6775 6.52662 20.845 7.14038 20.2313C7.75413 19.6175 8.58656 19.2727 9.45455 19.2727H22.5455Z" fill="white"/>
<path d="M22.5452 7.27344C22.2587 7.27344 21.975 7.32987 21.7102 7.43952C21.4455 7.54916 21.205 7.70988 21.0024 7.91248C20.7998 8.11508 20.6391 8.3556 20.5295 8.62031C20.4198 8.88502 20.3634 9.16874 20.3634 9.45526C20.3634 9.74178 20.4198 10.0255 20.5295 10.2902C20.6391 10.5549 20.7998 10.7954 21.0024 10.998C21.205 11.2006 21.4455 11.3613 21.7102 11.471C21.975 11.5806 22.2587 11.6371 22.5452 11.6371C23.1238 11.6371 23.6788 11.4072 24.088 10.998C24.4971 10.5889 24.727 10.0339 24.727 9.45526C24.727 8.8766 24.4971 8.32165 24.088 7.91248C23.6788 7.50331 23.1238 7.27344 22.5452 7.27344ZM9.45428 20.3643C8.87562 20.3643 8.32067 20.5942 7.9115 21.0034C7.50233 21.4126 7.27246 21.9675 7.27246 22.5462C7.27246 23.1248 7.50233 23.6798 7.9115 24.0889C8.32067 24.4981 8.87562 24.728 9.45428 24.728C10.0329 24.728 10.5879 24.4981 10.9971 24.0889C11.4062 23.6798 11.6361 23.1248 11.6361 22.5462C11.6361 21.9675 11.4062 21.4126 10.9971 21.0034C10.5879 20.5942 10.0329 20.3643 9.45428 20.3643Z" fill="white"/>
</svg>
