<svg width="24" height="24" viewBox="0 0 24 24" fill="none" xmlns="http://www.w3.org/2000/svg">
<circle cx="12" cy="12" r="11" fill="#FF3D00"/>
<path d="M12 14.3778C11.3446 14.3778 10.7983 13.8759 10.7429 13.2229L10.2273 7.14927L10.1817 5.88514C10.1445 4.85519 10.9694 4 12 4C13.0306 4 13.8555 4.85519 13.8183 5.88514L13.7727 7.14927L13.2571 13.2229C13.2017 13.8759 12.6554 14.3778 12 14.3778ZM12 20C11.4242 20 10.947 19.8239 10.5682 19.4716C10.1894 19.1193 10 18.6755 10 18.14C10 17.5905 10.1894 17.1396 10.5682 16.7873C10.947 16.4351 11.4242 16.2589 12 16.2589C12.5758 16.2589 13.053 16.4351 13.4318 16.7873C13.8106 17.1396 14 17.5905 14 18.14C14 18.6755 13.8106 19.1193 13.4318 19.4716C13.053 19.8239 12.5758 20 12 20Z" fill="white"/>
</svg>
