<svg width="56" height="56" viewBox="0 0 56 56" fill="none" xmlns="http://www.w3.org/2000/svg">
<path fill-rule="evenodd" clip-rule="evenodd" d="M9.26148 2.85957L9.85653 1.90638H20.7394L21.3344 2.85957H9.26148ZM8.54785 0.565941C8.76857 0.212372 9.14016 0 9.53807 0H21.0578C21.4557 0 21.8273 0.212373 22.048 0.565941L23.4365 2.79006C23.5917 3.03873 23.6521 3.31227 23.6358 3.57446H31.9813C31.965 3.31227 32.0254 3.03873 32.1806 2.79005L33.5691 0.565941C33.7898 0.212372 34.1614 0 34.5593 0H46.0791C46.477 0 46.8486 0.212373 47.0693 0.565941L48.4577 2.79006C48.613 3.03873 48.6734 3.31227 48.657 3.57446H52.4475C53.6457 3.57446 54.617 4.5476 54.617 5.74803V52.6349C54.617 53.8354 53.6457 54.8085 52.4475 54.8085H47.2195C46.8981 55.5208 46.2974 56 45.6094 56H33.8375C33.1495 56 32.5488 55.5208 32.2274 54.8085H23.3949C23.0803 55.5208 22.4922 56 21.8186 56H8.77725C8.10369 56 7.51561 55.5208 7.20097 54.8085H3.16947C1.9713 54.8085 1 53.8354 1 52.6349V5.74803C1 4.5476 1.97131 3.57446 3.16947 3.57446H6.96011C6.94377 3.31227 7.00415 3.03873 7.1594 2.79005L8.54785 0.565941ZM3.16947 5.43752C2.99831 5.43752 2.85955 5.57654 2.85955 5.74803V52.6349C2.85955 52.8064 2.99831 52.9454 3.16947 52.9454H52.4475C52.6187 52.9454 52.7575 52.8064 52.7575 52.6349V5.74803C52.7575 5.57654 52.6187 5.43752 52.4475 5.43752H3.16947ZM4.57446 36.5958C4.57446 35.4677 5.54859 34.5532 6.75023 34.5532H23.8455C25.0471 34.5532 26.0213 35.4677 26.0213 36.5958V46.8085C26.0213 47.9366 25.0471 48.8511 23.8455 48.8511H6.75023C5.54858 48.8511 4.57446 47.9366 4.57446 46.8085V36.5958ZM6.75023 36.304C6.57856 36.304 6.4394 36.4346 6.4394 36.5958V46.8085C6.4394 46.9697 6.57856 47.1003 6.75023 47.1003H23.8455C24.0172 47.1003 24.1563 46.9697 24.1563 46.8085V36.5958C24.1563 36.4346 24.0172 36.304 23.8455 36.304H6.75023ZM7.26929 9.56415H6.49507C6.1415 9.56415 5.85487 9.83808 5.85487 10.176V11.2432H7.26929V9.56415ZM7.58179 9.56415V11.2432H9.73022V9.56415H7.58179ZM10.0427 9.56415V11.2432H12.1912V9.56415H10.0427ZM12.5037 9.56415V11.2432H14.6521V9.56415H12.5037ZM14.9646 9.56415V11.2432H17.113V9.56415H14.9646ZM17.4255 9.56415V11.2432H19.574V9.56415H17.4255ZM19.8865 9.56415V11.2432H22.0349V9.56415H19.8865ZM22.3474 9.56415V11.2432H24.4958V9.92629C24.4958 9.83924 24.4855 9.75459 24.466 9.67348C24.3624 9.60456 24.2365 9.56415 24.1007 9.56415H22.3474ZM24.3278 29.7154C24.4343 29.5481 24.4958 29.35 24.4958 29.1376V27.8207H22.3474V29.7551H24.1007C24.1807 29.7551 24.2572 29.741 24.3278 29.7154ZM22.0349 29.7551V27.8207H19.8865V29.7551H22.0349ZM19.574 29.7551V27.8207H17.4255V29.7551H19.574ZM17.113 29.7551V27.8207H14.9646V29.7551H17.113ZM14.6521 29.7551V27.8207H12.5037V29.7551H14.6521ZM12.1912 29.7551V27.8207H10.0427V29.7551H12.1912ZM9.73022 29.7551V27.8207H7.58179V29.7551H9.73022ZM7.26929 29.7551V27.8207H5.85487V29.1432C5.85487 29.4811 6.1415 29.7551 6.49507 29.7551H7.26929ZM5.85487 27.5108H7.26929V25.1094H5.85487V27.5108ZM5.85487 24.7995H7.26929V22.3981H5.85487V24.7995ZM5.85487 22.0883H7.26929V19.6869H5.85487V22.0883ZM5.85487 19.377H7.26929V16.9756H5.85487V19.377ZM5.85487 16.6657H7.26929V14.2643H5.85487V16.6657ZM5.85487 13.9545H7.26929V11.553H5.85487V13.9545ZM22.3474 11.553H24.4958V13.9545H22.3474V11.553ZM22.3474 14.2643H24.4958V16.6657H22.3474V14.2643ZM22.3474 16.9756H24.4958V19.377H22.3474V16.9756ZM22.3474 19.6869H24.4958V22.0883H22.3474V19.6869ZM22.3474 22.3981H24.4958V24.7995H22.3474V22.3981ZM22.3474 25.1094H24.4958V27.5108H22.3474V25.1094ZM7.58179 13.9545V11.553H9.73022V13.9545H7.58179ZM10.0427 13.9545V11.553H12.1912V13.9545H10.0427ZM12.5037 13.9545V11.553H14.6521V13.9545H12.5037ZM14.9646 13.9545V11.553H17.113V13.9545H14.9646ZM17.4255 13.9545V11.553H19.574V13.9545H17.4255ZM19.8865 13.9545V11.553H22.0349V13.9545H19.8865ZM19.8865 14.2643H22.0349V16.6657H19.8865V14.2643ZM19.8865 16.9756H22.0349V19.377H19.8865V16.9756ZM19.8865 19.6869H22.0349V22.0883H19.8865V19.6869ZM19.8865 22.3981H22.0349V24.7995H19.8865V22.3981ZM19.8865 25.1094H22.0349V27.5108H19.8865V25.1094ZM19.574 25.1094V27.5108H17.4255V25.1094H19.574ZM17.113 25.1094V27.5108H14.9646V25.1094H17.113ZM14.6521 25.1094V27.5108H12.5037V25.1094H14.6521ZM12.1912 25.1094V27.5108H10.0427V25.1094H12.1912ZM9.73022 25.1094V27.5108H7.58179V25.1094H9.73022ZM9.73022 24.7995H7.58179V22.3981H9.73022V24.7995ZM9.73022 22.0883H7.58179V19.6869H9.73022V22.0883ZM9.73022 19.377H7.58179V16.9756H9.73022V19.377ZM9.73022 16.6657H7.58179V14.2643H9.73022V16.6657ZM10.0427 16.6657V14.2643H12.1912V16.6657H10.0427ZM12.5037 16.6657V14.2643H14.6521V16.6657H12.5037ZM14.9646 16.6657V14.2643H17.113V16.6657H14.9646ZM17.4255 16.6657V14.2643H19.574V16.6657H17.4255ZM17.4255 16.9756H19.574V19.377H17.4255V16.9756ZM17.4255 19.6869H19.574V22.0883H17.4255V19.6869ZM17.4255 22.3981H19.574V24.7995H17.4255V22.3981ZM17.113 22.3981V24.7995H14.9646V22.3981H17.113ZM14.6521 22.3981V24.7995H12.5037V22.3981H14.6521ZM12.1912 22.3981V24.7995H10.0427V22.3981H12.1912ZM12.1912 22.0883H10.0427V19.6869H12.1912V22.0883ZM12.1912 19.377H10.0427V16.9756H12.1912V19.377ZM12.5037 19.377V16.9756H14.6521V19.377H12.5037ZM14.9646 19.377V16.9756H17.113V19.377H14.9646ZM14.9646 19.6869H17.113V22.0883H14.9646V19.6869ZM14.6521 19.6869V22.0883H12.5037V19.6869H14.6521ZM31.5163 9.56415H33.2693V11.2432H31.1208V9.92629C31.1208 9.83932 31.1312 9.75474 31.1507 9.67369C31.2543 9.60464 31.3804 9.56415 31.5163 9.56415ZM31.5163 29.7551H33.2693V27.8207H31.1208V29.1376C31.1208 29.3499 31.1824 29.548 31.2888 29.7153C31.3595 29.741 31.4362 29.7551 31.5163 29.7551ZM33.5818 29.7551H35.7302V27.8207H33.5818V29.7551ZM36.0427 29.7551H38.1912V27.8207H36.0427V29.7551ZM38.5037 29.7551H40.6521V27.8207H38.5037V29.7551ZM40.9646 29.7551H43.113V27.8207H40.9646V29.7551ZM43.4255 29.7551H45.574V27.8207H43.4255V29.7551ZM45.8865 29.7551H48.0349V27.8207H45.8865V29.7551ZM49.7621 29.1432V27.8207H48.3474V29.7551H49.1219C49.4755 29.7551 49.7621 29.4811 49.7621 29.1432ZM49.7621 27.5108V25.1094H48.3474V27.5108H49.7621ZM49.7621 24.7995V22.3981H48.3474V24.7995H49.7621ZM49.7621 22.0883V19.6869H48.3474V22.0883H49.7621ZM49.7621 19.377V16.9756H48.3474V19.377H49.7621ZM49.7621 16.6657V14.2643H48.3474V16.6657H49.7621ZM49.7621 13.9545V11.553H48.3474V13.9545H49.7621ZM49.1219 9.56415H48.3474V11.2432H49.7621V10.176C49.7621 9.83808 49.4755 9.56415 49.1219 9.56415ZM48.0349 9.56415H45.8865V11.2432H48.0349V9.56415ZM45.574 9.56415H43.4255V11.2432H45.574V9.56415ZM43.113 9.56415H40.9646V11.2432H43.113V9.56415ZM40.6521 9.56415H38.5037V11.2432H40.6521V9.56415ZM38.1912 9.56415H36.0427V11.2432H38.1912V9.56415ZM35.7302 9.56415H33.5818V11.2432H35.7302V9.56415ZM31.1208 27.5108H33.2693V25.1094H31.1208V27.5108ZM31.1208 24.7995H33.2693V22.3981H31.1208V24.7995ZM31.1208 22.0883H33.2693V19.6869H31.1208V22.0883ZM31.1208 19.377H33.2693V16.9756H31.1208V19.377ZM31.1208 16.6657H33.2693V14.2643H31.1208V16.6657ZM31.1208 13.9545H33.2693V11.553H31.1208V13.9545ZM33.5818 11.553V13.9545H35.7302V11.553H33.5818ZM36.0427 11.553V13.9545H38.1912V11.553H36.0427ZM38.5037 11.553V13.9545H40.6521V11.553H38.5037ZM40.9646 11.553V13.9545H43.113V11.553H40.9646ZM43.4255 11.553V13.9545H45.574V11.553H43.4255ZM45.8865 11.553V13.9545H48.0349V11.553H45.8865ZM48.0349 14.2643H45.8865V16.6657H48.0349V14.2643ZM48.0349 16.9756H45.8865V19.377H48.0349V16.9756ZM48.0349 19.6869H45.8865V22.0883H48.0349V19.6869ZM48.0349 22.3981H45.8865V24.7995H48.0349V22.3981ZM48.0349 25.1094H45.8865V27.5108H48.0349V25.1094ZM45.574 27.5108V25.1094H43.4255V27.5108H45.574ZM43.113 27.5108V25.1094H40.9646V27.5108H43.113ZM40.6521 27.5108V25.1094H38.5037V27.5108H40.6521ZM38.1912 27.5108V25.1094H36.0427V27.5108H38.1912ZM35.7302 27.5108V25.1094H33.5818V27.5108H35.7302ZM33.5818 24.7995H35.7302V22.3981H33.5818V24.7995ZM33.5818 22.0883H35.7302V19.6869H33.5818V22.0883ZM33.5818 19.377H35.7302V16.9756H33.5818V19.377ZM33.5818 16.6657H35.7302V14.2643H33.5818V16.6657ZM36.0427 14.2643V16.6657H38.1912V14.2643H36.0427ZM38.5037 14.2643V16.6657H40.6521V14.2643H38.5037ZM40.9646 14.2643V16.6657H43.113V14.2643H40.9646ZM43.4255 14.2643V16.6657H45.574V14.2643H43.4255ZM45.574 16.9756H43.4255V19.377H45.574V16.9756ZM45.574 19.6869H43.4255V22.0883H45.574V19.6869ZM45.574 22.3981H43.4255V24.7995H45.574V22.3981ZM43.113 24.7995V22.3981H40.9646V24.7995H43.113ZM40.6521 24.7995V22.3981H38.5037V24.7995H40.6521ZM38.1912 24.7995V22.3981H36.0427V24.7995H38.1912ZM36.0427 22.0883H38.1912V19.6869H36.0427V22.0883ZM36.0427 19.377H38.1912V16.9756H36.0427V19.377ZM38.5037 16.9756V19.377H40.6521V16.9756H38.5037ZM40.9646 16.9756V19.377H43.113V16.9756H40.9646ZM43.113 19.6869H40.9646V22.0883H43.113V19.6869ZM40.6521 22.0883V19.6869H38.5037V22.0883H40.6521ZM34.8778 1.90638L34.2827 2.85957H46.3556L45.7606 1.90638H34.8778ZM31.7715 34.5532C30.5698 34.5532 29.5957 35.4677 29.5957 36.5958V46.8085C29.5957 47.9366 30.5698 48.8511 31.7715 48.8511H48.8667C50.0684 48.8511 51.0425 47.9366 51.0425 46.8085V36.5958C51.0425 35.4677 50.0684 34.5532 48.8667 34.5532H31.7715ZM31.4606 36.5958C31.4606 36.4346 31.5998 36.304 31.7715 36.304H48.8667C49.0384 36.304 49.1776 36.4346 49.1776 36.5958V46.8085C49.1776 46.9697 49.0384 47.1003 48.8667 47.1003H31.7715C31.5998 47.1003 31.4606 46.9697 31.4606 46.8085V36.5958ZM29.5957 10.176C29.5957 9.16225 30.4556 8.34045 31.5163 8.34045H49.1219C50.1826 8.34045 51.0425 9.16225 51.0425 10.176V29.1432C51.0425 30.157 50.1826 30.9788 49.1219 30.9788H31.5163C30.4556 30.9788 29.5957 30.157 29.5957 29.1432V10.176ZM6.49507 8.34045C5.43435 8.34045 4.57446 9.16225 4.57446 10.176V29.1432C4.57446 30.157 5.43435 30.9788 6.49507 30.9788H24.1007C25.1614 30.9788 26.0213 30.157 26.0213 29.1432V10.176C26.0213 9.16225 25.1614 8.34045 24.1007 8.34045H6.49507Z" fill="white" fill-opacity="0.3"/>
</svg>
