<svg width="48" height="48" viewBox="0 0 48 48" fill="none" xmlns="http://www.w3.org/2000/svg">
<path d="M24.2841 0C25.2265 0 25.9863 0.765691 25.9863 1.70808V6.65562L30.0887 4.27904C30.4387 4.07562 30.8497 4.00361 31.2481 4.07593C31.6464 4.14826 32.0059 4.36018 32.262 4.67366L32.4211 4.90042C32.6479 5.2931 32.7099 5.75966 32.5934 6.19793C32.4769 6.6362 32.1915 7.01046 31.7997 7.23873L25.9863 10.6048V21.0948L34.9037 15.9352L34.8094 9.04694C34.8029 8.64231 34.9402 8.24851 35.1969 7.93569C35.4537 7.62287 35.8131 7.41136 36.2112 7.33885L36.4881 7.3153C36.712 7.31257 36.9343 7.35398 37.1422 7.43717C37.3501 7.52035 37.5396 7.64368 37.6999 7.8001C37.8601 7.95653 37.988 8.14299 38.0762 8.34884C38.1644 8.55469 38.2111 8.77589 38.2138 8.99982L38.2816 13.9798L41.7389 11.9919C41.9538 11.8554 42.1967 11.7688 42.4495 11.7388C42.7024 11.7087 42.9587 11.7358 43.1996 11.8181L43.4824 11.9448C43.7495 12.0944 43.9715 12.3131 44.1251 12.5779C44.2788 12.8427 44.3584 13.144 44.3557 13.4501C44.353 13.7563 44.268 14.0561 44.1097 14.3182C43.9514 14.5802 43.7256 14.7949 43.4559 14.9398L40.0014 16.9218L44.1096 19.3013C44.3912 19.4664 44.6198 19.7085 44.7685 19.9991C44.9172 20.2897 44.9798 20.6167 44.949 20.9417L44.8989 21.2244C44.8017 21.5875 44.5874 21.9084 44.2892 22.1374C43.991 22.3663 43.6256 22.4905 43.2497 22.4907C42.9529 22.4885 42.6616 22.4093 42.4045 22.261L36.597 18.8949L27.7975 23.9956L36.5882 29.0698L42.487 25.5594C42.7978 25.3763 43.1588 25.2969 43.5177 25.3326L43.7828 25.3797C44.1084 25.4651 44.4016 25.6446 44.6258 25.8958C44.8499 26.147 44.9949 26.4587 45.0427 26.792C45.0905 27.1252 45.0389 27.4651 44.8944 27.7692C44.7499 28.0733 44.5189 28.328 44.2304 28.5014L39.9661 31.0517L43.6944 33.2133C43.9776 33.3771 44.2077 33.6188 44.3576 33.9095C44.5074 34.2003 44.5706 34.528 44.5396 34.8537L44.4895 35.1334C44.4229 35.3869 44.2986 35.6215 44.1265 35.8191C43.9543 36.0166 43.7388 36.1717 43.4968 36.2723C43.2548 36.3729 42.9929 36.4163 42.7314 36.3991C42.4699 36.3819 42.216 36.3045 41.9893 36.173L38.2992 34.0291V38.8176C38.2772 39.2069 38.1226 39.5769 37.8611 39.8662C37.5997 40.1555 37.2472 40.3467 36.8621 40.4079L36.597 40.4285C36.1564 40.4274 35.7332 40.2567 35.4151 39.9518C35.0971 39.6469 34.9086 39.2312 34.889 38.7911V32.056L25.9863 26.8934V37.3834L31.9852 40.7465C32.3378 40.9454 32.6083 41.2629 32.7486 41.6426C32.8888 42.0224 32.8896 42.4395 32.7509 42.8198L32.6331 43.0731C32.5242 43.2681 32.3779 43.4398 32.2026 43.5783C32.0272 43.7167 31.8263 43.8193 31.6113 43.88C31.3963 43.9407 31.1715 43.9584 30.9496 43.9322C30.7277 43.9059 30.5132 43.8361 30.3184 43.7269L25.9863 41.2973V46.2919C25.9863 46.6959 25.8431 47.0868 25.5822 47.3952C25.3212 47.7036 24.9594 47.9096 24.561 47.9764L24.2841 48C24.0602 47.9996 23.8386 47.9551 23.6318 47.8691C23.4251 47.783 23.2373 47.6571 23.0793 47.4985C22.9212 47.3399 22.7959 47.1517 22.7106 46.9447C22.6253 46.7376 22.5816 46.5158 22.5819 46.2919L22.579 41.3326L18.4796 43.7092C18.3085 43.8131 18.1199 43.8849 17.923 43.9212L17.6285 43.9477C17.2523 43.9487 16.8862 43.8254 16.5873 43.597C16.2883 43.3686 16.0731 43.0479 15.975 42.6847C15.877 42.3215 15.9016 41.936 16.0451 41.5882C16.1886 41.2404 16.4429 40.9497 16.7686 40.7613L22.579 37.3805V27.0142L13.4879 32.2798L13.588 39.171C13.5943 39.5319 13.486 39.8855 13.2788 40.1811L13.108 40.3873C12.9512 40.5495 12.7637 40.6789 12.5564 40.7679C12.3491 40.8568 12.1261 40.9037 11.9006 40.9056C11.4524 40.9048 11.0225 40.7277 10.704 40.4124C10.3854 40.0972 10.2038 39.6692 10.1984 39.2211L10.1188 34.2293L6.4877 36.3379C6.32216 36.4368 6.14086 36.5066 5.95172 36.5441L5.66017 36.5794C5.28189 36.5857 4.91224 36.4662 4.6092 36.2397C4.30617 36.0132 4.08691 35.6925 3.98583 35.3279C3.88475 34.9634 3.90756 34.5756 4.05069 34.2254C4.19383 33.8751 4.44918 33.5824 4.77668 33.393L8.39604 31.2991L4.27898 28.9196C3.92903 28.7163 3.66245 28.3956 3.52658 28.0144C3.39071 27.6333 3.39435 27.2162 3.53685 26.8375L3.65465 26.5872C3.76606 26.393 3.91466 26.2228 4.09195 26.0862C4.26923 25.9496 4.47172 25.8493 4.68781 25.791C4.90391 25.7327 5.12938 25.7177 5.35131 25.7466C5.57324 25.7756 5.78728 25.8481 5.98117 25.9599L11.7916 29.3289L20.9858 23.9956L11.7945 18.6829L5.9046 22.1903C5.73039 22.2984 5.53769 22.3733 5.33622 22.4112L5.027 22.4406C4.65423 22.4367 4.29292 22.3113 3.99782 22.0836C3.70271 21.8558 3.48992 21.538 3.39169 21.1784C3.29347 20.8188 3.31516 20.4369 3.45349 20.0908C3.59181 19.7446 3.83923 19.453 4.15823 19.2601L8.41077 16.7097L3.79306 14.0298C3.44245 13.8265 3.1754 13.5053 3.03949 13.1234C2.90358 12.7416 2.90764 12.3239 3.05093 11.9448L3.16873 11.6945C3.28014 11.5003 3.42874 11.3301 3.60603 11.1935C3.78331 11.0569 3.9858 10.9566 4.20189 10.8983C4.41799 10.8401 4.64346 10.825 4.86539 10.854C5.08732 10.8829 5.30135 10.9554 5.49525 11.0672L10.0806 13.7265V8.97037C10.0807 8.56594 10.2243 8.17468 10.4858 7.86621C10.7474 7.55774 11.1099 7.35209 11.5089 7.28585L11.7857 7.26229C12.7251 7.26229 13.4879 8.02798 13.4879 8.97037L13.4849 15.7055L22.579 20.974V10.6137L16.5889 7.25345C16.2364 7.05523 15.9654 6.73852 15.8242 6.35953C15.6829 5.98053 15.6805 5.56375 15.8174 5.18314L15.9322 4.92987C16.0409 4.73421 16.1871 4.5619 16.3625 4.42282C16.5379 4.28373 16.739 4.1806 16.9542 4.11933C17.1695 4.05805 17.3948 4.03984 17.6171 4.06573C17.8394 4.09162 18.0545 4.1611 18.2499 4.2702L22.579 6.69685V1.70808C22.5791 1.30366 22.7227 0.91239 22.9843 0.603924C23.2458 0.295457 23.6083 0.0898017 24.0073 0.0235597L24.2841 0Z" fill="white"/>
</svg>
