<svg width="48" height="48" viewBox="0 0 48 48" fill="none" xmlns="http://www.w3.org/2000/svg">
<g clip-path="url(#clip0_90_7803)">
<path d="M24 12.9216C21.0621 12.9211 18.2443 14.0877 16.1665 16.1648C14.0887 18.2418 12.9212 21.0592 12.9207 23.9971C12.9202 26.9351 14.0868 29.7528 16.1638 31.8306C18.2409 33.9084 21.0583 35.076 23.9962 35.0765C25.4509 35.0767 26.8914 34.7905 28.2355 34.234C29.5796 33.6775 30.8009 32.8618 31.8297 31.8333C32.8585 30.8049 33.6747 29.5839 34.2316 28.24C34.7885 26.8961 35.0753 25.4557 35.0755 24.001C35.0758 22.5463 34.7895 21.1058 34.2331 19.7617C33.6766 18.4176 32.8609 17.1963 31.8324 16.1675C30.8039 15.1387 29.5829 14.3225 28.239 13.7656C26.8952 13.2086 25.4547 12.9219 24 12.9216ZM24 7.38242C25.0176 7.38242 25.8451 6.55682 25.8451 5.53922V1.84706C25.8451 1.35745 25.6506 0.887888 25.3044 0.541681C24.9582 0.195474 24.4887 0.000976563 23.9991 0.000976562C23.5095 0.000976563 23.0399 0.195474 22.6937 0.541681C22.3475 0.887888 22.153 1.35745 22.153 1.84706V5.53922C22.153 6.55874 22.9786 7.38242 24 7.38242ZM24 40.6138C23.5105 40.6138 23.041 40.8081 22.6946 41.1541C22.3483 41.5001 22.1535 41.9694 22.153 42.4589V46.1511C22.153 46.6407 22.3475 47.1102 22.6937 47.4564C23.0399 47.8026 23.5095 47.9971 23.9991 47.9971C24.4887 47.9971 24.9582 47.8026 25.3044 47.4564C25.6506 47.1102 25.8451 46.6407 25.8451 46.1511V42.4589C25.8451 41.4413 25.0195 40.6138 24 40.6138ZM46.1491 22.153H42.457C41.9674 22.153 41.4978 22.3475 41.1516 22.6937C40.8054 23.0399 40.6109 23.5094 40.6109 23.9991C40.6109 24.4887 40.8054 24.9582 41.1516 25.3044C41.4978 25.6506 41.9674 25.8451 42.457 25.8451H46.1491C46.6388 25.8451 47.1083 25.6506 47.4545 25.3044C47.8007 24.9582 47.9952 24.4887 47.9952 23.9991C47.9952 23.5094 47.8007 23.0399 47.4545 22.6937C47.1083 22.3475 46.6388 22.153 46.1491 22.153ZM7.38435 24C7.3846 23.7574 7.337 23.5171 7.24426 23.2929C7.15153 23.0687 7.01549 22.865 6.84392 22.6934C6.67236 22.5218 6.46864 22.3858 6.24444 22.2931C6.02023 22.2003 5.77993 22.1527 5.53731 22.153H1.84707C1.36776 22.1684 0.913257 22.3697 0.579671 22.7142C0.246085 23.0587 0.0595703 23.5195 0.0595703 23.9991C0.0595703 24.4786 0.246085 24.9394 0.579671 25.2839C0.913257 25.6284 1.36776 25.8297 1.84707 25.8451H5.53923C5.78144 25.8451 6.02128 25.7974 6.24503 25.7046C6.46879 25.6119 6.67206 25.476 6.84325 25.3046C7.01443 25.1332 7.15016 24.9298 7.24267 24.706C7.33519 24.4821 7.38268 24.2422 7.38243 24H7.38435ZM38.3578 12.2496L40.969 9.63842C41.1404 9.46696 41.2764 9.26342 41.3692 9.0394C41.462 8.81539 41.5098 8.57529 41.5098 8.33282C41.5098 8.09034 41.462 7.85025 41.3692 7.62623C41.2764 7.40222 41.1404 7.19867 40.969 7.02722C40.7975 6.85576 40.594 6.71976 40.37 6.62697C40.146 6.53418 39.9059 6.48642 39.6634 6.48642C39.4209 6.48642 39.1808 6.53418 38.9568 6.62697C38.7328 6.71976 38.5292 6.85576 38.3578 7.02722L35.7447 9.63842C35.3995 9.98526 35.2057 10.4547 35.2057 10.944C35.2057 11.4333 35.3995 11.9028 35.7447 12.2496C36.0913 12.5953 36.5608 12.7894 37.0503 12.7894C37.5397 12.7894 38.0093 12.5953 38.3559 12.2496H38.3578ZM9.63843 35.7466L7.02723 38.3578C6.6959 38.7071 6.51405 39.1719 6.5204 39.6533C6.52675 40.1347 6.7208 40.5946 7.06123 40.935C7.40165 41.2754 7.86153 41.4695 8.34292 41.4758C8.8243 41.4822 9.28914 41.3003 9.63843 40.969L12.2496 38.3578C12.5809 38.0085 12.7628 37.5437 12.7565 37.0623C12.7501 36.5809 12.556 36.121 12.2156 35.7806C11.8752 35.4402 11.4153 35.2461 10.9339 35.2397C10.4526 35.2334 9.98771 35.4153 9.63843 35.7466ZM38.3597 35.7466C38.0125 35.4013 37.5428 35.2075 37.0531 35.2075C36.5635 35.2075 36.0938 35.4013 35.7466 35.7466C35.4014 36.0934 35.2076 36.5628 35.2076 37.0522C35.2076 37.5415 35.4014 38.0109 35.7466 38.3578L38.3578 40.969C38.529 41.1408 38.7325 41.2772 38.9565 41.3702C39.1806 41.4632 39.4208 41.5111 39.6634 41.5111C39.906 41.5111 40.1462 41.4632 40.3702 41.3702C40.5943 41.2772 40.7977 41.1408 40.969 40.969C41.1408 40.7977 41.2772 40.5943 41.3702 40.3702C41.4632 40.1462 41.5111 39.906 41.5111 39.6634C41.5111 39.4208 41.4632 39.1806 41.3702 38.9565C41.2772 38.7325 41.1408 38.529 40.969 38.3578L38.3578 35.7466H38.3597ZM9.63843 7.02914C9.28914 6.69781 8.8243 6.51596 8.34292 6.52231C7.86153 6.52866 7.40165 6.72271 7.06123 7.06314C6.7208 7.40356 6.52675 7.86344 6.5204 8.34483C6.51405 8.82621 6.6959 9.29105 7.02723 9.64034L9.63843 12.2496C9.80988 12.4211 10.0134 12.5571 10.2374 12.6499C10.4615 12.7427 10.7016 12.7904 10.944 12.7904C11.1865 12.7904 11.4266 12.7427 11.6506 12.6499C11.8746 12.5571 12.0782 12.4211 12.2496 12.2496C12.4211 12.0782 12.5571 11.8746 12.6499 11.6506C12.7427 11.4266 12.7904 11.1865 12.7904 10.944C12.7904 10.7015 12.7427 10.4614 12.6499 10.2374C12.5571 10.0134 12.4211 9.80987 12.2496 9.63842L9.63843 7.02722V7.02914Z" fill="white"/>
</g>
<defs>
<clipPath id="clip0_90_7803">
<rect width="48" height="48" fill="white"/>
</clipPath>
</defs>
</svg>
