<svg width="32" height="32" viewBox="0 0 32 32" fill="none" xmlns="http://www.w3.org/2000/svg">
<path d="M6.00625 2.95898C4.90625 2.95898 4.00313 3.85898 4.00313 4.96211V26.9902C4.00313 28.0902 4.90312 28.9934 6.00625 28.9934C7.10625 28.9934 8.00937 28.0934 8.00937 26.9902V4.96211C8.00937 3.85898 7.10938 2.95898 6.00625 2.95898ZM11.0125 2.95898H10.8406C9.74062 2.95898 8.8375 3.85898 8.8375 4.96211V26.9902C8.8375 28.0902 9.7375 28.9934 10.8406 28.9934H11.0125C12.1125 28.9934 13.0156 28.0934 13.0156 26.9902V4.96211C13.0156 3.85898 12.1156 2.95898 11.0125 2.95898ZM16.0187 2.95898C14.9187 2.95898 14.0156 3.85898 14.0156 4.96211V26.9902C14.0156 28.0902 14.9156 28.9934 16.0187 28.9934C17.1187 28.9934 18.0219 28.0934 18.0219 26.9902V4.96211C18.0219 3.85898 17.1219 2.95898 16.0187 2.95898ZM21.025 2.95898C19.925 2.95898 19.0219 3.85898 19.0219 4.96211V26.9902C19.0219 28.0902 19.9219 28.9934 21.025 28.9934C22.125 28.9934 23.0281 28.0934 23.0281 26.9902V4.96211C23.0281 3.85898 22.1281 2.95898 21.025 2.95898ZM26.0312 2.95898C24.9312 2.95898 24.0281 3.85898 24.0281 4.96211V26.9902C24.0281 28.0902 24.9281 28.9934 26.0312 28.9934C27.1313 28.9934 28.0344 28.0934 28.0344 26.9902V4.96211C28.0344 3.85898 27.1344 2.95898 26.0312 2.95898ZM1 10.9684C1 12.0684 1.9 12.9715 3.00312 12.9715V8.96523C1.90312 8.96523 1 9.86836 1 10.9684ZM1 21.984C1 23.084 1.9 23.9871 3.00312 23.9871V19.9809C1.90312 19.9809 1 20.8809 1 21.984ZM29.0375 19.9809V23.9871C30.1375 23.9871 31.0406 23.0871 31.0406 21.984C31.0375 20.8809 30.1375 19.9809 29.0375 19.9809ZM29.0375 8.96523V12.9715C30.1375 12.9715 31.0406 12.0715 31.0406 10.9684C31.0375 9.86836 30.1375 8.96523 29.0375 8.96523Z" fill="#0073E6"/>
</svg>
